#N canvas 376 100 545 515 10;
#X declare -path lib;
#X obj 20 70 bng 15 50 10 0 empty empty empty 17 7 0 10 #fcfcfc #000000
#000000;
#X obj 20 30 tgl 15 0 empty metro empty 17 7 0 10 #fcfcfc #000000 #000000
0 1;
#X msg 40 100 panic;
#X msg 155 258 240;
#X msg 182 258 400;
#X msg 101 258 120;
#X msg 74 258 100;
#X msg 128 258 200;
#X msg 209 258 480;
#X obj 20 284 hsl 128 15 40 480 0 0 empty empty empty -25 5 0 10 #fcfcfc
#000000 #000000 1732 1;
#X floatatom 20 332 5 0 0 1 ms - ms, f 5;
#X obj 71 28 r ms;
#X msg 20 258 50;
#X msg 47 258 60;
#X msg 20 384 4;
#X msg 60 384 8;
#X msg 100 384 9;
#X msg 140 384 12;
#X msg 180 384 15;
#X text 80 235 tempo;
#X text 80 360 meter;
#X obj 20 409 hsl 128 15 1 17 0 0 empty empty empty -2 -8 0 10 #fcfcfc
#000000 #000000 11112 1;
#X obj 20 49 metro 160;
#X msg 100 435 3 2 2;
#X msg 150 435 2 3 2;
#X obj 180 130 tgl 20 0 empty play play -1 -11 0 10 #69be77 #000000
#000000 0 1;
#X floatatom 20 235 5 40 480 0 - tempo -, f 5;
#N canvas 175 149 455 623 tempo 0;
#X obj 30 20 inlet;
#X obj 30 75 change;
#X obj 30 100 t f f;
#X obj 204 88 r n;
#X obj 204 113 t b f;
#X obj 30 130 expr rint(60000/$f1*4/max(1 \, $f2));
#X msg 90 75 tempo \$1;
#X obj 90 100 s arp;
#X obj 30 45 expr rint($f1);
#X obj 30 155 t f f;
#X obj 30 180 outlet;
#X obj 80 180 f;
#X obj 80 155 r getms;
#X obj 80 205 s ms;
#X connect 0 0 8 0;
#X connect 1 0 2 0;
#X connect 2 0 5 0;
#X connect 2 1 6 0;
#X connect 3 0 4 0;
#X connect 4 0 5 0;
#X connect 4 1 5 1;
#X connect 5 0 9 0;
#X connect 6 0 7 0;
#X connect 8 0 1 0;
#X connect 9 0 10 0;
#X connect 9 1 11 1;
#X connect 11 0 13 0;
#X connect 12 0 11 0;
#X restore 20 307 pd tempo;
#X floatatom 20 360 5 1 17 0 - meter -, f 5;
#N canvas 195 355 455 378 meter 0;
#X obj 30 20 inlet;
#X obj 30 45 route float list;
#X obj 30 90 expr rint($f1);
#X obj 30 115 t f f;
#X msg 30 140 meter \$1;
#X obj 30 165 s arp;
#X obj 80 115 s meter;
#X obj 140 90 list prepend meter;
#X obj 140 115 list trim;
#X obj 30 70 change;
#X connect 0 0 1 0;
#X connect 1 0 9 0;
#X connect 1 1 7 0;
#X connect 2 0 3 0;
#X connect 3 0 4 0;
#X connect 3 1 6 0;
#X connect 4 0 5 0;
#X connect 7 0 8 0;
#X connect 8 0 5 0;
#X connect 9 0 2 0;
#X restore 20 452 pd meter;
#X symbolatom 260 300 10 0 0 0 - preset preset-set, f 10;
#X obj 100 60 vradio 15 0 1 5 empty empty mod-switch 0 -8 0 10 #fcfcfc
#000000 #000000 4;
#X text 120 60 velmod;
#X text 120 74 pmod;
#X text 120 89 gate;
#X text 120 106 gatemod;
#X text 120 121 swing;
#X obj 260 320 preset default 1;
#X obj 260 345 preset triplet 2;
#X obj 260 370 preset weirdmod 3;
#X obj 260 395 preset bla 4;
#N canvas 710 207 459 515 init 0;
#X obj 70 20 loadbang;
#X msg 89 80 \; hmin 0 \; hmax 100 \; hmod 0 \; pref 100 \; prefmod
0 \; smin 1 \; smax 7 \; smod 0 \; uniq 1 \; nmax 1 \; nmod 0;
#X obj 210 20 declare -path lib;
#X obj 70 45 t b b b;
#X msg 70 290 \; preset symbol default;
#X msg 166 80 \; tempo 100 \; meter 15 \; swing 0 \; minvel 60 \; maxvel
120 \; velmod 100 \; pmin 30 \; pmax 100 \; pmod 0 \; gate 100 \; gatemod
0 \; pgm 1 \; down -1 \; up 1, f 12;
#X connect 0 0 3 0;
#X connect 3 0 4 0;
#X connect 3 1 1 0;
#X connect 3 2 5 0;
#X restore 20 480 pd init;
#X obj 260 420 preset raptor 5;
#X obj 260 445 preset tr808 6;
#N canvas 341 115 823 548 arp 0;
#X floatatom 50 398 5 0 0 0 - - -, f 5;
#X floatatom 96 398 5 0 0 0 - - -, f 5;
#X obj 50 442 makenote 127 160;
#N canvas 728 183 461 294 gate 0;
#X obj 50 20 inlet;
#X obj 50 120 * 1;
#X floatatom 50 50 5 0 0 0 - - -, f 5;
#X obj 50 145 outlet;
#X obj 50 79 t f b;
#X obj 92 79 r ms;
#X obj 77 100 f;
#X obj 140 20 loadbang;
#X obj 140 45 s getms;
#X connect 0 0 2 0;
#X connect 1 0 3 0;
#X connect 2 0 4 0;
#X connect 4 0 1 0;
#X connect 4 1 6 0;
#X connect 5 0 6 1;
#X connect 6 0 1 1;
#X connect 7 0 8 0;
#X restore 143 398 pd gate;
#X obj 50 370 unpack f f f;
#X obj 96 420 veltracker;
#X floatatom 280 340 5 0 0 0 - vel -, f 5;
#X obj 260 340 tgl 15 1 empty veltracker vel-tracker -2 -8 0 10 #fcfcfc
#000000 #000000 1 1;
#X obj 50 421 pipe;
#X obj 220 400 r arp;
#X obj 220 425 route pgm chan;
#X obj 50 480 noteout;
#X obj 220 480 pgmout;
#X obj 260 450 t f f f b;
#X msg 311 480 0;
#X obj 311 505 ctlout 123;
#X text 50 310 - output -;
#X obj 50 45 r arp;
#X obj 50 95 s tempo;
#X obj 87 121 change;
#X obj 87 146 s swing;
#X obj 260 70 notein;
#X obj 260 92 trace 300;
#X obj 260 114 s arp;
#X obj 311 114 s vel;
#X floatatom 311 70 5 0 0 0 - trace -, f 5;
#X obj 50 70 route tempo swing meter pgm chan;
#X text 50 20 - input -;
#X obj 170 230 arpeggio 15;
#X obj 170 200 inlet;
#X obj 600 166 change;
#X floatatom 600 190 5 0 0 0 - - n, f 5;
#X floatatom 420 146 5 0 0 0 - - -, f 5;
#X obj 420 321 spigot;
#X obj 490 295 tgl 15 0 empty empty empty 17 7 0 10 #fcfcfc #000000
#000000 0 1;
#X obj 420 346 spigot;
#X obj 306 310 tgl 15 1 empty empty empty 17 7 0 10 #fcfcfc #000000
#000000 1 1;
#X obj 513 166 r n;
#X floatatom 420 221 5 0 0 0 - - -, f 5;
#X obj 420 270 expr rint($f1*60)+60;
#X floatatom 420 295 5 0 0 0 - - -, f 5;
#X obj 525 396 r ms;
#X obj 420 420 makenote 127 160, f 18;
#X obj 420 445 noteout 10;
#X msg 420 397 54 \$1;
#X obj 660 201 loadbang;
#X floatatom 660 251 5 0 0 0 - - -, f 5;
#X obj 560 271 expr $f1>$f2;
#X obj 420 196 expr ($f1+1)/$f2;
#X msg 660 226 0.4;
#X obj 288 310 bng 15 150 10 0 empty empty empty 17 7 0 10 #a0a0a0
#202020 #202020;
#X obj 570 216 expr $f1==1;
#X obj 420 245 t f f f;
#X obj 570 241 sel 1;
#X obj 260 310 hsl 20 15 0 1 0 0 empty empty empty -2 -8 0 10 #a0a0a0
#000000 #000000 127 1;
#X obj 710 251 sel 0;
#X obj 710 281 bng 15 250 50 0 empty empty empty 17 7 0 10 #fcfcfc
#000000 #000000;
#X obj 743 141 inlet;
#X msg 743 201 1;
#X obj 710 304 spigot;
#X obj 710 329 t b b;
#X msg 710 354 0;
#X obj 710 379 s metro;
#X msg 743 354 0;
#X obj 743 281 tgl 15 0 empty empty empty 17 7 0 10 #fcfcfc #000000
#000000 0 1;
#X msg 776 354 1;
#X obj 743 166 sel 0 1;
#X floatatom 620 381 5 0 0 0 - - -, f 5;
#X msg 620 405 color \$1 12 12;
#X msg 640 351 1;
#X msg 600 351 13;
#X obj 420 371 pipe;
#N canvas 321 122 457 405 swing 0;
#X text 30 10 experimental humanizer / swing feature;
#X floatatom 230 40 5 0 100 0 - swing -, f 5;
#X floatatom 30 175 5 0 0 0 - - -, f 5;
#X obj 30 199 *;
#X floatatom 30 224 5 0 0 0 - - -, f 5;
#X obj 80 175 r ms;
#X obj 30 248 outlet;
#X obj 159 90 r n;
#X obj 30 114 expr $f1/max(1 \, $f2-1);
#X obj 230 114 / 100;
#X obj 30 90 inlet;
#X obj 30 150 expr if($f3>=0 \, $f3*(1-$f1)*$f2 \, -$f3*$f1*$f2);
#X obj 230 64 t f f;
#X obj 230 89 abs;
#X obj 303 90 expr ($f1>0)-($f1<0);
#X connect 1 0 12 0;
#X connect 2 0 3 0;
#X connect 3 0 4 0;
#X connect 4 0 6 0;
#X connect 5 0 3 1;
#X connect 7 0 8 1;
#X connect 8 0 11 0;
#X connect 9 0 11 1;
#X connect 10 0 8 0;
#X connect 11 0 2 0;
#X connect 12 0 13 0;
#X connect 12 1 14 0;
#X connect 13 0 9 0;
#X connect 14 0 11 2;
#X restore 480 321 pd swing;
#X obj 480 346 t f f;
#X obj 420 170 t f f f;
#X text 420 100 - time -;
#X text 130 170 - arpeggiator external -;
#X obj 160 340 hsl 48 15 0 600 0 1 trace empty trace -2 -8 0 10 #fcfcfc
#000000 #000000 2350 1;
#X obj 220 340 bng 15 250 50 0 empty empty empty 17 7 0 10 #fcfcfc
#000000 #000000;
#X msg 220 360 300;
#X connect 0 0 8 0;
#X connect 1 0 5 0;
#X connect 2 0 11 0;
#X connect 2 1 11 1;
#X connect 3 0 2 2;
#X connect 4 0 0 0;
#X connect 4 1 1 0;
#X connect 4 2 3 0;
#X connect 5 0 2 1;
#X connect 6 0 5 1;
#X connect 7 0 5 2;
#X connect 8 0 2 0;
#X connect 9 0 10 0;
#X connect 10 0 12 0;
#X connect 10 1 13 0;
#X connect 13 0 11 2;
#X connect 13 1 12 1;
#X connect 13 2 15 2;
#X connect 13 3 14 0;
#X connect 14 0 15 0;
#X connect 17 0 26 0;
#X connect 19 0 20 0;
#X connect 21 0 22 0;
#X connect 21 1 22 1;
#X connect 22 0 23 0;
#X connect 22 1 24 0;
#X connect 25 0 22 2;
#X connect 26 0 18 0;
#X connect 26 1 19 0;
#X connect 26 2 28 1;
#X connect 26 5 28 0;
#X connect 28 0 4 0;
#X connect 28 1 32 0;
#X connect 28 2 30 0;
#X connect 29 0 28 0;
#X connect 30 0 31 0;
#X connect 32 0 74 0;
#X connect 33 0 35 0;
#X connect 34 0 33 1;
#X connect 35 0 71 0;
#X connect 36 0 35 1;
#X connect 37 0 48 1;
#X connect 38 0 52 0;
#X connect 39 0 40 0;
#X connect 40 0 33 0;
#X connect 41 0 42 2;
#X connect 42 0 43 0;
#X connect 42 1 43 1;
#X connect 44 0 42 0;
#X connect 45 0 49 0;
#X connect 46 0 47 1;
#X connect 47 0 34 0;
#X connect 48 0 38 0;
#X connect 49 0 46 0;
#X connect 51 0 53 0;
#X connect 52 0 39 0;
#X connect 52 1 47 0;
#X connect 52 2 51 0;
#X connect 52 2 54 0;
#X connect 53 0 50 0;
#X connect 55 0 56 0;
#X connect 56 0 59 0;
#X connect 57 0 66 0;
#X connect 58 0 64 0;
#X connect 59 0 60 0;
#X connect 60 0 61 0;
#X connect 60 0 69 0;
#X connect 60 1 63 0;
#X connect 61 0 62 0;
#X connect 63 0 64 0;
#X connect 63 0 62 0;
#X connect 64 0 59 1;
#X connect 65 0 62 0;
#X connect 66 0 58 0;
#X connect 66 0 70 0;
#X connect 66 1 65 0;
#X connect 67 0 68 0;
#X connect 68 0 50 0;
#X connect 69 0 67 0;
#X connect 70 0 67 0;
#X connect 71 0 44 0;
#X connect 72 0 73 0;
#X connect 73 0 71 1;
#X connect 73 1 8 1;
#X connect 74 0 48 0;
#X connect 74 1 72 0;
#X connect 74 2 55 0;
#X connect 78 0 79 0;
#X connect 79 0 77 0;
#X coords 0 -1 1 1 167 52 1 157 307;
#X restore 20 170 pd arp;
#N canvas 207 37 482 686 control 0;
#X obj 12 137 sel 0;
#X obj 12 162 bng 15 250 50 0 empty empty empty 17 7 0 10 #fcfcfc #000000
#000000;
#X obj 12 112 ctlin 81;
#X obj 42 347 sel 0;
#X obj 42 372 bng 15 250 50 0 empty empty empty 17 7 0 10 #fcfcfc #000000
#000000;
#X obj 102 347 sel 0;
#X obj 102 372 bng 15 250 50 0 empty empty empty 17 7 0 10 #fcfcfc
#000000 #000000;
#X obj 102 322 ctlin 65;
#X obj 162 347 sel 0;
#X obj 162 372 bng 15 250 50 0 empty empty empty 17 7 0 10 #fcfcfc
#000000 #000000;
#X obj 222 347 sel 0;
#X obj 222 372 bng 15 250 50 0 empty empty empty 17 7 0 10 #fcfcfc
#000000 #000000;
#X obj 282 347 sel 0;
#X obj 282 372 bng 15 250 50 0 empty empty empty 17 7 0 10 #fcfcfc
#000000 #000000;
#X obj 342 347 sel 0;
#X obj 342 372 bng 15 250 50 0 empty empty empty 17 7 0 10 #fcfcfc
#000000 #000000;
#X msg 42 395 0;
#X msg 102 395 1;
#X msg 162 395 2;
#X msg 222 395 3;
#X msg 282 395 4;
#X msg 342 395 5;
#X obj 42 420 s mode;
#X obj 162 322 ctlin 66;
#X obj 222 322 ctlin 67;
#X obj 282 322 ctlin 68;
#X obj 342 322 ctlin 69;
#X obj 212 112 ctlin 91;
#X obj 212 162 tgl 15 0 empty empty empty 17 7 0 10 #fcfcfc #000000
#000000 0 1;
#X obj 292 162 tgl 15 0 empty empty empty 17 7 0 10 #fcfcfc #000000
#000000 0 1;
#X obj 292 112 ctlin 92;
#X obj 212 185 +;
#X obj 292 185 +;
#X floatatom 212 210 5 0 0 0 - - down, f 5;
#X floatatom 292 210 5 0 0 0 - - up, f 5;
#X obj 372 162 tgl 15 0 empty empty empty 17 7 0 10 #fcfcfc #000000
#000000 0 1;
#X obj 372 112 ctlin 93;
#X obj 126 205 ctlin 7;
#X floatatom 72 258 5 0 0 0 - - mod-switch, f 5;
#X text 22 82 start/stop \, octave \, gate - assumes D2 COLOR preset
;
#X obj 72 112 ctlin 80;
#X obj 212 137 != 0;
#X obj 292 137 != 0;
#X obj 372 137 != 0;
#X obj 72 137 == 0;
#X obj 142 162 tgl 15 0 empty empty empty 17 7 0 10 #fcfcfc #000000
#000000 0 1;
#X obj 142 112 ctlin 94;
#X obj 126 230 expr $f1/127*2;
#X obj 72 162 tgl 15 0 empty empty empty 17 7 0 10 #fcfcfc #000000
#000000 0 1;
#N canvas 825 285 455 434 gate 0;
#X obj 40 20 inlet;
#X obj 217 20 inlet;
#X obj 40 70 outlet;
#X obj 40 45 expr if($f2==0 \, 2-$f1 \, $f1);
#X connect 0 0 3 0;
#X connect 1 0 3 1;
#X connect 3 0 2 0;
#X restore 72 185 pd gate;
#X obj 72 210 * 100;
#X obj 72 234 int;
#X obj 42 487 swap;
#X obj 42 512 pack f f;
#X floatatom 76 562 5 0 0 1 gate - gate, f 5;
#X floatatom 59 607 5 0 0 1 pmod - pmod, f 5;
#X obj 162 462 inlet;
#X obj 142 137 != 0;
#X obj 59 582 expr $f1-100;
#X text 382 502 64 - HOLD;
#X obj 382 582 tgl 15 0 empty empty empty 17 7 0 10 #fcfcfc #000000
#000000 0 1;
#X obj 382 557 != 0;
#X obj 382 532 ctlin 64;
#X obj 382 605 s hold;
#X obj 42 462 r mod-switch;
#X floatatom 162 487 5 0 0 0 - - -, f 5;
#X floatatom 42 657 5 0 0 1 velmod - velmod, f 5;
#X obj 42 632 expr if($f1>=100 \, 200-$f1 \, $f1-100);
#X floatatom 140 607 5 0 0 1 gatemod - gatemod, f 5;
#X obj 140 582 expr $f1-100;
#X obj 42 537 route 0 1 2 3 4;
#X floatatom 239 602 5 0 0 1 swing - swing, f 5;
#X obj 239 552 expr $f1-100;
#X obj 239 577 * 0.25;
#X floatatom 272 522 5 0 1 0 - - -, f 5;
#X text 179 509 adjust the swing factor to your liking, f 14;
#N canvas 663 241 456 406 swing 0;
#X obj 20 20 r arp;
#X obj 20 41 route swing;
#X obj 20 104 change;
#X obj 20 125 / 100;
#X obj 20 146 outlet;
#X obj 20 62 sel 0;
#X obj 20 83 abs;
#X connect 0 0 1 0;
#X connect 1 0 5 0;
#X connect 2 0 3 0;
#X connect 3 0 4 0;
#X connect 5 1 6 0;
#X connect 6 0 2 0;
#X restore 272 492 pd swing;
#X obj 12 187 s play;
#X obj 42 322 ctlin 82;
#X text 132 282 mode - assumes D3 KBDTL preset (with modifications
\, see below), f 32;
#X text 222 462 mod switcher;
#X text 102 422 NOTE: CC64 remapped to CC82 on Pacer \, as CC64 conflicts
with HOLD \, see below, f 56;
#X text 12 12 NOTE: This control setup is for the Nektar PACER \, if
you use a different MIDI controller \, you'll have to change the controls
below accordingly. A suitably modified Pacer setup (.syx file) for
this patch is included in the same folder!, f 72;
#X text 272 632 This assumes that you have a hold pedal hooked up to
Pd in some way (I have it as FS1 on my Pacer)., f 33;
#X connect 0 1 1 0;
#X connect 1 0 77 0;
#X connect 2 0 0 0;
#X connect 3 1 4 0;
#X connect 4 0 16 0;
#X connect 5 1 6 0;
#X connect 6 0 17 0;
#X connect 7 0 5 0;
#X connect 8 1 9 0;
#X connect 9 0 18 0;
#X connect 10 1 11 0;
#X connect 11 0 19 0;
#X connect 12 1 13 0;
#X connect 13 0 20 0;
#X connect 14 1 15 0;
#X connect 15 0 21 0;
#X connect 16 0 22 0;
#X connect 17 0 22 0;
#X connect 18 0 22 0;
#X connect 19 0 22 0;
#X connect 20 0 22 0;
#X connect 21 0 22 0;
#X connect 23 0 8 0;
#X connect 24 0 10 0;
#X connect 25 0 12 0;
#X connect 26 0 14 0;
#X connect 27 0 41 0;
#X connect 28 0 31 0;
#X connect 29 0 32 0;
#X connect 30 0 42 0;
#X connect 31 0 33 0;
#X connect 32 0 34 0;
#X connect 35 0 31 1;
#X connect 35 0 32 1;
#X connect 36 0 43 0;
#X connect 37 0 47 0;
#X connect 40 0 44 0;
#X connect 41 0 28 0;
#X connect 42 0 29 0;
#X connect 43 0 35 0;
#X connect 44 0 48 0;
#X connect 45 0 49 1;
#X connect 46 0 57 0;
#X connect 47 0 50 0;
#X connect 48 0 49 0;
#X connect 49 0 50 0;
#X connect 50 0 51 0;
#X connect 51 0 38 0;
#X connect 52 0 53 0;
#X connect 52 1 53 1;
#X connect 53 0 70 0;
#X connect 56 0 65 0;
#X connect 57 0 45 0;
#X connect 58 0 55 0;
#X connect 60 0 63 0;
#X connect 61 0 60 0;
#X connect 62 0 61 0;
#X connect 64 0 52 0;
#X connect 65 0 52 1;
#X connect 67 0 66 0;
#X connect 69 0 68 0;
#X connect 70 0 67 0;
#X connect 70 1 58 0;
#X connect 70 2 54 0;
#X connect 70 3 69 0;
#X connect 70 4 72 0;
#X connect 72 0 73 0;
#X connect 73 0 71 0;
#X connect 74 0 73 1;
#X connect 76 0 74 0;
#X connect 78 0 3 0;
#X restore 100 140 pd control;
#N canvas 205 87 500 592 panel 0;
#X floatatom 102 51 6 0 127 2 minvel minvel -, f 6;
#X msg 102 301 minvel \$1;
#X floatatom 147 51 6 0 127 2 maxvel maxvel -, f 6;
#X msg 147 301 maxvel \$1;
#X obj 360 430 s arp;
#X obj 200 53 hsl 64 15 -100 100 0 0 empty velmod velmod -3 -12 0 10
#fcfcfc #000000 #000000 0 1;
#X msg 200 301 velmod \$1;
#X msg 310 53 100;
#X obj 272 53 bng 15 250 50 0 empty empty empty 17 7 0 10 #fcfcfc #000000
#000000;
#X obj 200 87 hsl 64 15 -100 100 0 0 empty pmod pmod -3 -12 0 10 #fcfcfc
#000000 #000000 0 1;
#X msg 310 87 0;
#X floatatom 100 87 6 0 100 2 pmin pmin -, f 6;
#X floatatom 147 87 6 0 100 2 pmax pmax -, f 6;
#X msg 100 330 pmin \$1;
#X msg 147 330 pmax \$1;
#X msg 200 330 pmod \$1;
#X obj 272 87 bng 15 250 50 0 empty empty empty 17 7 0 10 #fcfcfc #000000
#000000;
#X obj 100 121 hsl 64 15 0 200 0 0 empty gate gate -1 -12 0 10 #fcfcfc
#000000 #000000 0 1;
#X msg 310 121 100;
#X msg 100 360 gate \$1;
#X obj 200 121 hsl 64 15 -100 100 0 0 empty gatemod gatemod -2 -12
0 10 #fcfcfc #000000 #000000 0 1;
#X msg 350 121 0;
#X msg 200 360 gatemod \$1;
#X obj 272 121 bng 15 250 50 0 empty empty empty 17 7 0 10 #fcfcfc
#000000 #000000;
#X obj 172 121 bng 15 250 50 0 empty empty empty 17 7 0 10 #fcfcfc
#000000 #000000;
#X obj 273 20 tgl 15 0 empty hold hold -27 6 0 10 #fcfcfc #000000 #000000
0 1;
#X msg 273 301 hold \$1;
#X floatatom 166 19 4 1 128 0 pgm pgm -, f 4;
#X msg 166 520 pgm \$1;
#X floatatom 112 19 4 -100 100 0 swing swing -, f 4;
#X msg 112 520 swing \$1;
#X obj 200 155 hsl 64 15 -100 100 0 0 empty hmod hmod -3 -12 0 10 #fcfcfc
#000000 #000000 0 1;
#X msg 310 155 0;
#X floatatom 100 155 6 0 100 2 hmin hmin -, f 6;
#X floatatom 147 155 6 0 100 2 hmax hmax -, f 6;
#X obj 272 155 bng 15 250 50 0 empty empty empty 17 7 0 10 #fcfcfc
#000000 #000000;
#X obj 200 190 hsl 64 15 -100 100 0 0 empty prefmod prefmod -3 -12
0 10 #fcfcfc #000000 #000000 0 1;
#X msg 310 190 0;
#X floatatom 100 190 6 -100 100 2 pref pref -, f 6;
#X obj 272 190 bng 15 250 50 0 empty empty empty 17 7 0 10 #fcfcfc
#000000 #000000;
#X obj 200 225 hsl 64 15 -100 100 0 0 empty smod smod -3 -12 0 10 #fcfcfc
#000000 #000000 0 1;
#X msg 310 225 0;
#X floatatom 100 225 6 -127 127 2 smin smin -, f 6;
#X floatatom 147 225 6 -127 127 2 smax smax -, f 6;
#X obj 272 225 bng 15 250 50 0 empty empty empty 17 7 0 10 #fcfcfc
#000000 #000000;
#X obj 200 260 hsl 64 15 -100 100 0 0 empty nmod nmod -3 -12 0 10 #fcfcfc
#000000 #000000 0 1;
#X msg 310 260 0;
#X floatatom 147 260 6 0 10 2 nmax nmax -, f 6;
#X obj 272 260 bng 15 250 50 0 empty empty empty 17 7 0 10 #fcfcfc
#000000 #000000;
#X obj 100 260 tgl 15 0 empty uniq uniq -1 -10 0 10 #fcfcfc #000000
#000000 0 1;
#X msg 100 390 hmin \$1;
#X msg 147 390 hmax \$1;
#X msg 200 390 hmod \$1;
#X msg 100 420 pref \$1;
#X msg 200 420 prefmod \$1;
#X msg 100 450 smin \$1;
#X msg 147 450 smax \$1;
#X msg 200 450 smod \$1;
#X msg 100 480 uniq \$1;
#X msg 147 480 nmax \$1;
#X msg 200 480 nmod \$1;
#X obj 30 45 vradio 15 0 0 7 empty downval dn 0 -8 0 10 #fcfcfc #000000
#000000 0;
#X obj 50 45 vradio 15 0 0 7 empty upval up 0 -8 0 10 #fcfcfc #000000
#000000 0;
#N canvas 730 172 459 457 octave 0;
#X obj 20 20 inlet;
#X obj 190 200 s arp;
#X obj 39 70 v downval;
#X obj 20 100 t b f;
#X obj 20 125 v upval;
#X obj 20 150 min;
#X obj 20 175 change;
#X obj 20 200 s upval;
#X obj 300 20 inlet;
#X obj 300 100 t b f;
#X obj 300 175 change;
#X obj 319 70 v upval;
#X obj 300 125 v downval;
#X obj 300 150 max;
#X obj 300 200 s downval;
#X floatatom 80 175 5 0 0 0 - - -, f 5;
#X floatatom 370 175 5 0 0 0 - - -, f 5;
#X obj 120 20 r down;
#X obj 120 70 s downval;
#X obj 390 20 r up;
#X obj 390 70 s upval;
#X obj 20 45 t f f f;
#X obj 80 100 expr 3-$f1;
#X obj 370 100 expr 3-$f1;
#X obj 300 45 t f f f;
#X msg 80 125 down \$1;
#X msg 370 125 up \$1;
#X obj 120 45 expr max(0 \, min(6 \, 3-$f1));
#X obj 390 45 expr max(0 \, min(6 \, 3-$f1));
#X connect 0 0 21 0;
#X connect 3 0 4 0;
#X connect 3 1 5 1;
#X connect 4 0 5 0;
#X connect 5 0 6 0;
#X connect 5 0 15 0;
#X connect 6 0 7 0;
#X connect 8 0 24 0;
#X connect 9 0 12 0;
#X connect 9 1 13 1;
#X connect 10 0 14 0;
#X connect 12 0 13 0;
#X connect 13 0 10 0;
#X connect 13 0 16 0;
#X connect 17 0 27 0;
#X connect 19 0 28 0;
#X connect 21 0 3 0;
#X connect 21 1 2 0;
#X connect 21 2 22 0;
#X connect 22 0 25 0;
#X connect 23 0 26 0;
#X connect 24 0 9 0;
#X connect 24 1 11 0;
#X connect 24 2 23 0;
#X connect 25 0 1 0;
#X connect 26 0 1 0;
#X connect 27 0 18 0;
#X connect 28 0 20 0;
#X restore 30 300 pd octave;
#X text 70 45 +3;
#X text 70 60 +2;
#X text 70 75 +1;
#X text 76 92 0;
#X text 70 105 -1;
#X text 70 120 -2;
#X text 70 135 -3;
#X obj 30 165 vradio 15 0 0 6 empty mode empty 0 -8 0 10 #fcfcfc #000000
#000000 0;
#X text 50 178 up;
#X text 50 193 down;
#X text 50 208 up-down;
#X text 50 223 down-up;
#X text 50 163 random;
#X obj 30 259 tgl 15 0 empty raptor raptor 20 6 0 10 #fcfcfc #000000
#000000 0 1;
#N canvas 740 245 455 407 mode 0;
#X obj 30 20 inlet;
#X obj 90 20 inlet;
#X msg 30 42 mode \$1;
#X obj 30 100 s arp;
#X obj 90 46 != 0;
#X msg 90 71 raptor \$1;
#X connect 0 0 2 0;
#X connect 1 0 4 0;
#X connect 2 0 3 0;
#X connect 4 0 5 0;
#X connect 5 0 3 0;
#X restore 30 330 pd mode;
#X text 50 239 outs-in;
#X floatatom 224 19 3 0 0 0 chan chan -, f 3;
#X msg 224 520 chan \$1;
#X connect 0 0 1 0;
#X connect 1 0 4 0;
#X connect 2 0 3 0;
#X connect 3 0 4 0;
#X connect 5 0 6 0;
#X connect 6 0 4 0;
#X connect 7 0 5 0;
#X connect 8 0 7 0;
#X connect 9 0 15 0;
#X connect 10 0 9 0;
#X connect 11 0 13 0;
#X connect 12 0 14 0;
#X connect 13 0 4 0;
#X connect 14 0 4 0;
#X connect 15 0 4 0;
#X connect 16 0 10 0;
#X connect 17 0 19 0;
#X connect 18 0 17 0;
#X connect 19 0 4 0;
#X connect 20 0 22 0;
#X connect 21 0 20 0;
#X connect 22 0 4 0;
#X connect 23 0 21 0;
#X connect 24 0 18 0;
#X connect 25 0 26 0;
#X connect 26 0 4 0;
#X connect 27 0 28 0;
#X connect 28 0 4 0;
#X connect 29 0 30 0;
#X connect 30 0 4 0;
#X connect 31 0 52 0;
#X connect 32 0 31 0;
#X connect 33 0 50 0;
#X connect 34 0 51 0;
#X connect 35 0 32 0;
#X connect 36 0 54 0;
#X connect 37 0 36 0;
#X connect 38 0 53 0;
#X connect 39 0 37 0;
#X connect 40 0 57 0;
#X connect 41 0 40 0;
#X connect 42 0 55 0;
#X connect 43 0 56 0;
#X connect 44 0 41 0;
#X connect 45 0 60 0;
#X connect 46 0 45 0;
#X connect 47 0 59 0;
#X connect 48 0 46 0;
#X connect 49 0 58 0;
#X connect 50 0 4 0;
#X connect 51 0 4 0;
#X connect 52 0 4 0;
#X connect 53 0 4 0;
#X connect 54 0 4 0;
#X connect 55 0 4 0;
#X connect 56 0 4 0;
#X connect 57 0 4 0;
#X connect 58 0 4 0;
#X connect 59 0 4 0;
#X connect 60 0 4 0;
#X connect 61 0 63 0;
#X connect 62 0 63 1;
#X connect 71 0 78 0;
#X connect 77 0 78 1;
#X connect 80 0 81 0;
#X connect 81 0 4 0;
#X coords 0 -1 1 1 266 266 1 25 15;
#X restore 260 20 pd panel;
#X connect 0 0 44 0;
#X connect 1 0 22 0;
#X connect 2 0 44 0;
#X connect 3 0 9 0;
#X connect 4 0 9 0;
#X connect 5 0 9 0;
#X connect 6 0 9 0;
#X connect 7 0 9 0;
#X connect 8 0 9 0;
#X connect 9 0 27 0;
#X connect 11 0 22 1;
#X connect 12 0 9 0;
#X connect 13 0 9 0;
#X connect 14 0 21 0;
#X connect 15 0 21 0;
#X connect 16 0 21 0;
#X connect 17 0 21 0;
#X connect 18 0 21 0;
#X connect 21 0 29 0;
#X connect 22 0 0 0;
#X connect 23 0 29 0;
#X connect 24 0 29 0;
#X connect 25 0 44 1;
#X connect 26 0 9 0;
#X connect 27 0 10 0;
#X connect 28 0 21 0;
#X connect 31 0 45 0;
