#N canvas 430 112 580 532 10;
#X declare -path lib;
#X msg 30 80 panic;
#X msg 145 203 240;
#X msg 172 203 400;
#X msg 91 203 120;
#X msg 64 203 100;
#X msg 118 203 200;
#X msg 209 203 480;
#X floatatom 10 277 5 0 0 1 ms - #0-ms, f 5;
#X msg 10 203 50;
#X msg 37 203 60;
#X msg 10 330 4;
#X msg 40 330 8;
#X msg 70 330 9;
#X msg 100 330 12;
#X msg 130 330 15;
#X text 70 180 tempo;
#X msg 110 360 3 2 2;
#X msg 154 360 2 3 2;
#X obj 10 20 tgl 20 0 empty \$0-play play -1 -11 0 10 #69be77 #000000
#000000 0 1;
#N canvas 710 212 460 419 tempo 0;
#X obj 30 10 inlet;
#X obj 30 105 change;
#X obj 204 143 t b f;
#X obj 30 160 expr rint(60000/$f1*4/max(1 \, $f2));
#X msg 160 210 tempo \$1;
#X obj 30 75 expr rint($f1);
#X obj 30 185 t f f;
#X obj 30 210 outlet;
#X obj 80 210 f;
#X obj 160 235 s \$0-arp;
#X obj 80 185 r \$0-getms;
#X obj 80 235 s \$0-ms;
#X obj 204 118 r \$0-n;
#X obj 30 130 t f f;
#X obj 30 40 hsl 128 15 40 480 0 0 empty empty empty -25 5 0 10 #fcfcfc
#000000 #000000 0 1;
#X floatatom 170 40 5 40 480 0 - #0-tempo -, f 5;
#X connect 0 0 14 0;
#X connect 1 0 13 0;
#X connect 2 0 3 0;
#X connect 2 1 3 1;
#X connect 3 0 6 0;
#X connect 4 0 9 0;
#X connect 5 0 1 0;
#X connect 6 0 7 0;
#X connect 6 1 8 1;
#X connect 8 0 11 0;
#X connect 10 0 8 0;
#X connect 12 0 2 0;
#X connect 13 0 3 0;
#X connect 13 1 4 0;
#X connect 14 0 5 0;
#X connect 15 0 14 0;
#X coords 0 -1 1 1 180 37 1 26 22;
#X restore 10 232 pd tempo;
#N canvas 286 255 468 483 meter 0;
#X obj 30 100 inlet;
#X obj 30 125 route float list;
#X msg 30 250 meter \$1;
#X obj 150 202 list prepend meter;
#X obj 150 225 list trim;
#X obj 30 275 s \$0-arp;
#X obj 30 202 change;
#X obj 30 150 expr rint($f1);
#X msg 100 250 set \$1;
#X obj 270 225 list trim;
#X obj 270 202 list prepend set;
#X obj 270 275 outlet;
#X obj 30 225 t f f b;
#X msg 200 250 set;
#X msg 184 173 set 0;
#X obj 150 100 r \$0-meter;
#X obj 100 275 s \$0-meter-set;
#X obj 150 150 t a a b a;
#N canvas 250 238 450 326 product 0;
#X obj 20 20 inlet;
#X obj 20 100 llist-drip;
#X msg 100 100 1;
#X obj 20 125 *;
#X obj 50 125 f;
#X obj 20 160 f;
#X obj 20 45 t b a b;
#X text 140 60 Calculate the product of a list. NOTE: We use the pd-lua
version of drip here \, since presumably you already have that on the
library path. If you don't then you can also replace llist-drip with
the drip version from list-abs (list-drip) or zexy (drip)., f 44;
#X obj 20 185 outlet;
#X connect 0 0 6 0;
#X connect 1 0 3 0;
#X connect 2 0 3 1;
#X connect 3 0 4 0;
#X connect 3 0 5 1;
#X connect 4 0 3 1;
#X connect 5 0 8 0;
#X connect 6 0 5 0;
#X connect 6 1 1 0;
#X connect 6 2 2 0;
#X restore 270 173 pd product;
#X obj 30 40 hsl 128 15 1 17 0 0 empty \$0-meter-set empty -2 -8 0
10 #fcfcfc #000000 #000000 8731 1;
#X floatatom 170 40 5 1 17 0 - #0-meter-set -, f 5;
#X connect 0 0 1 0;
#X connect 1 0 7 0;
#X connect 1 1 17 0;
#X connect 2 0 5 0;
#X connect 3 0 4 0;
#X connect 4 0 5 0;
#X connect 6 0 12 0;
#X connect 7 0 6 0;
#X connect 8 0 16 0;
#X connect 9 0 11 0;
#X connect 10 0 9 0;
#X connect 12 0 2 0;
#X connect 12 1 8 0;
#X connect 12 2 13 0;
#X connect 13 0 11 0;
#X connect 14 0 6 0;
#X connect 15 0 1 0;
#X connect 17 0 3 0;
#X connect 17 1 10 0;
#X connect 17 2 14 0;
#X connect 17 3 18 0;
#X connect 18 0 8 0;
#X connect 19 0 1 0;
#X connect 20 0 1 0;
#X coords 0 -1 1 1 180 37 1 26 22;
#X restore 10 377 pd meter;
#X symbolatom 290 330 10 0 0 0 - #0-preset #0-preset-set, f 10;
#X obj 200 70 vradio 15 0 1 5 empty empty mod-switch 0 -8 0 10 #fcfcfc
#000000 #000000 4;
#X text 220 70 velmod;
#X text 220 84 pmod;
#X text 220 99 gate;
#X text 220 116 gatemod;
#X text 220 131 swing;
#N canvas 90 68 465 704 init 0;
#X obj 70 20 loadbang;
#X obj 210 20 declare -path lib;
#X obj 97 70 f \$0;
#X obj 70 45 t b b;
#X obj 97 95 t f f;
#X msg 97 120 \; \$1-hmin 0 \; \$1-hmax 100 \; \$1-hmod 0 \; \$1-pref
100 \; \$1-prefmod 0 \; \$1-smin 1 \; \$1-smax 7 \; \$1-smod 0 \; \$1-uniq
1 \; \$1-nmax 1 \; \$1-nmod 0;
#X msg 70 300 set default;
#X obj 70 325 s \$0-preset;
#X msg 194 120 \; \$1-tempo 100 \; \$1-meter 15 \; \$1-swing 0 \; \$1-mode
1 \; \$1-raptor 0 \; \$1-minvel 60 \; \$1-maxvel 120 \; \$1-velmod
100 \; \$1-pmin 30 \; \$1-pmax 100 \; \$1-pmod 0 \; \$1-gate 100 \;
\$1-gatemod 0 \; \$1-pan 64 \; \$1-pgm 1 \; \$1-inchan 1 \; \$1-outchan
1 \; \$1-down -1 \; \$1-up 1 \; \$1-transp 0;
#X connect 0 0 3 0;
#X connect 2 0 4 0;
#X connect 3 0 6 0;
#X connect 3 1 2 0;
#X connect 4 0 5 0;
#X connect 4 1 8 0;
#X connect 6 0 7 0;
#X restore 10 425 pd init;
#N canvas 295 64 795 678 arp 0;
#X floatatom 20 398 5 0 0 0 - - -, f 5;
#X floatatom 66 398 5 0 0 0 - - -, f 5;
#X obj 20 442 makenote 127 160;
#N canvas 727 184 463 320 gate 0;
#X obj 50 20 inlet;
#X obj 50 120 * 1;
#X floatatom 50 50 5 0 0 0 - - -, f 5;
#X obj 50 145 outlet;
#X obj 50 79 t f b;
#X obj 77 100 f;
#X obj 140 20 loadbang;
#X obj 92 79 r \$0-ms;
#X obj 140 45 s \$0-getms;
#X connect 0 0 2 0;
#X connect 1 0 3 0;
#X connect 2 0 4 0;
#X connect 4 0 1 0;
#X connect 4 1 5 0;
#X connect 5 0 1 1;
#X connect 6 0 8 0;
#X connect 7 0 5 1;
#X restore 113 398 pd gate;
#X obj 20 370 unpack f f f;
#X floatatom 250 340 5 0 0 0 - #0-vel -, f 5;
#X obj 230 340 tgl 15 1 empty \$0-veltracker vel-tracker -2 -8 0 10
#fcfcfc #000000 #000000 1 1;
#X obj 20 421 pipe;
#X obj 20 480 noteout;
#X obj 190 480 pgmout;
#X obj 231 450 t f f f b;
#X msg 282 480 0;
#X obj 282 505 ctlout 123;
#X text 20 310 - output -;
#X obj 57 136 change;
#X obj 200 40 notein;
#X obj 200 112 trace 300;
#X floatatom 251 90 5 0 0 0 - #0-trace -, f 5;
#X text 20 20 - input -;
#X obj 140 240 arpeggio 15;
#X obj 140 210 inlet;
#X obj 540 146 change;
#X floatatom 540 170 5 0 0 0 - - #0-n, f 5;
#X floatatom 360 126 5 0 0 0 - - -, f 5;
#X obj 360 324 spigot;
#X obj 430 298 tgl 15 0 empty empty empty 17 7 0 10 #fcfcfc #000000
#000000 0 1;
#X obj 360 349 spigot;
#X obj 276 310 tgl 15 1 empty empty empty 17 7 0 10 #fcfcfc #000000
#000000 1 1;
#X floatatom 360 201 5 0 0 0 - - -, f 5;
#X obj 360 250 expr rint($f1*60)+60;
#X floatatom 360 275 5 0 0 0 - - -, f 5;
#X obj 360 423 makenote 127 160, f 18;
#X obj 360 448 noteout 10;
#X msg 360 400 54 \$1;
#X obj 600 181 loadbang;
#X floatatom 600 231 5 0 0 0 - - -, f 5;
#X obj 500 251 expr $f1>$f2;
#X obj 360 176 expr ($f1+1)/$f2;
#X msg 600 206 0.4;
#X obj 258 310 bng 15 150 10 0 empty empty empty 17 7 0 10 #a0a0a0
#202020 #202020;
#X obj 510 196 expr $f1==1;
#X obj 360 225 t f f f;
#X obj 510 221 sel 1;
#X obj 230 310 hsl 20 15 0 1 0 0 empty empty empty -2 -8 0 10 #a0a0a0
#000000 #000000 127 1;
#X obj 650 231 sel 0;
#X obj 650 261 bng 15 250 50 0 empty empty empty 17 7 0 10 #fcfcfc
#000000 #000000;
#X obj 683 121 inlet;
#X msg 683 181 1;
#X obj 650 284 spigot;
#X obj 650 309 t b b;
#X msg 650 334 0;
#X msg 683 334 0;
#X obj 683 261 tgl 15 0 empty empty empty 17 7 0 10 #fcfcfc #000000
#000000 0 1;
#X msg 716 334 1;
#X obj 683 146 sel 0 1;
#X floatatom 560 361 5 0 0 0 - - -, f 5;
#X msg 560 385 color \$1 12 12;
#X msg 580 331 1;
#X msg 540 331 13;
#X obj 360 374 pipe;
#N canvas 320 122 460 459 swing 0;
#X text 30 10 experimental humanizer / swing feature;
#X floatatom 230 40 5 0 100 0 - #0-swing -, f 5;
#X floatatom 30 175 5 0 0 0 - - -, f 5;
#X obj 30 199 *;
#X floatatom 30 224 5 0 0 0 - - -, f 5;
#X obj 30 248 outlet;
#X obj 30 114 expr $f1/max(1 \, $f2-1);
#X obj 230 114 / 100;
#X obj 30 90 inlet;
#X obj 30 150 expr if($f3>=0 \, $f3*(1-$f1)*$f2 \, -$f3*$f1*$f2);
#X obj 230 64 t f f;
#X obj 230 89 abs;
#X obj 303 90 expr ($f1>0)-($f1<0);
#X obj 159 90 r \$0-n;
#X obj 80 175 r \$0-ms;
#X connect 1 0 10 0;
#X connect 2 0 3 0;
#X connect 3 0 4 0;
#X connect 4 0 5 0;
#X connect 6 0 9 0;
#X connect 7 0 9 1;
#X connect 8 0 6 0;
#X connect 9 0 2 0;
#X connect 10 0 11 0;
#X connect 10 1 12 0;
#X connect 11 0 7 0;
#X connect 12 0 9 2;
#X connect 13 0 6 1;
#X connect 14 0 3 1;
#X restore 420 324 pd swing;
#X obj 420 349 t f f;
#X obj 360 150 t f f f;
#X text 360 80 - time -;
#X text 100 180 - arpeggiator external -;
#X obj 130 340 hsl 48 15 0 600 0 1 \$0-trace empty trace -2 -8 0 10
#fcfcfc #000000 #000000 2350 1;
#X obj 190 340 bng 15 250 50 0 empty empty empty 17 7 0 10 #fcfcfc
#000000 #000000;
#X msg 190 360 300;
#X obj 20 45 r \$0-arp;
#X obj 200 134 s \$0-arp;
#X obj 251 134 s \$0-vel;
#X obj 20 110 s \$0-tempo;
#X obj 57 161 s \$0-swing;
#X obj 190 400 r \$0-arp;
#X obj 453 146 r \$0-n;
#N canvas 505 149 452 352 veltracker 0;
#X obj 100 94 /;
#X obj 155 94 /;
#X floatatom 100 116 5 0 0 0 - - -, f 5;
#X floatatom 155 116 5 0 0 0 - - -, f 5;
#X obj 100 136 min 1;
#X obj 155 136 max 1;
#X floatatom 100 158 5 0 0 0 - - -, f 5;
#X floatatom 155 158 5 0 0 0 - - -, f 5;
#X obj 100 178 *;
#X floatatom 100 200 5 0 0 0 - - -, f 5;
#X obj 115 69 route minvel maxvel;
#X obj 20 260 outlet;
#X obj 20 20 inlet;
#X obj 45 225 * 1;
#X obj 100 20 inlet;
#X obj 150 20 inlet;
#X obj 20 45 swap;
#X obj 20 70 pack f f;
#X obj 20 95 route 0 1;
#X obj 155 182 t b f;
#X obj 115 48 r \$0-arp;
#X connect 0 0 2 0;
#X connect 1 0 3 0;
#X connect 2 0 4 0;
#X connect 3 0 5 0;
#X connect 4 0 6 0;
#X connect 5 0 7 0;
#X connect 6 0 8 0;
#X connect 7 0 19 0;
#X connect 8 0 9 0;
#X connect 9 0 13 1;
#X connect 10 0 0 1;
#X connect 10 1 1 1;
#X connect 12 0 16 0;
#X connect 13 0 11 0;
#X connect 14 0 0 0;
#X connect 14 0 1 0;
#X connect 15 0 16 1;
#X connect 16 0 17 0;
#X connect 16 1 17 1;
#X connect 17 0 18 0;
#X connect 18 0 11 0;
#X connect 18 1 13 0;
#X connect 19 0 8 0;
#X connect 19 1 8 1;
#X connect 20 0 10 0;
#X restore 66 420 pd veltracker;
#X obj 650 359 s \$0-metro;
#X obj 465 399 r \$0-ms;
#X obj 720 210 r stop;
#X obj 720 235 t b b;
#X msg 720 270 set 0;
#X obj 720 295 s \$0-play;
#X obj 410 275 r \$0-master;
#X obj 360 299 spigot;
#X obj 180 210 r all-arp;
#N canvas 125 312 450 460 notefilter 0;
#X obj 30 30 inlet;
#X obj 75 30 inlet;
#X obj 140 30 inlet;
#X obj 30 55 pack f f;
#X obj 30 80 spigot;
#X obj 140 55 swap;
#X obj 140 110 route 0;
#X msg 140 135 1;
#X obj 90 55 tgl 15 0 empty empty empty 17 7 0 10 #fcfcfc #000000 #000000
1 1;
#X obj 179 135 ==;
#X obj 30 105 unpack f f;
#X obj 140 80 pack f f;
#X obj 30 200 outlet;
#X obj 87 200 outlet;
#X obj 30 170 +;
#X obj 200 30 r \$0-arp;
#X obj 200 55 route inchan transp;
#X obj 255 80 change;
#X obj 255 105 t f b;
#X msg 282 130 panic;
#X obj 282 155 s \$0-arp;
#X connect 0 0 3 0;
#X connect 1 0 3 1;
#X connect 2 0 5 0;
#X connect 3 0 4 0;
#X connect 4 0 10 0;
#X connect 5 0 11 0;
#X connect 5 1 11 1;
#X connect 6 0 7 0;
#X connect 6 1 9 0;
#X connect 7 0 8 0;
#X connect 8 0 4 1;
#X connect 9 0 8 0;
#X connect 10 0 14 0;
#X connect 10 1 13 0;
#X connect 11 0 6 0;
#X connect 14 0 12 0;
#X connect 15 0 16 0;
#X connect 16 0 5 1;
#X connect 16 1 17 0;
#X connect 17 0 18 0;
#X connect 18 0 14 1;
#X connect 18 1 19 0;
#X connect 19 0 20 0;
#X restore 200 70 pd notefilter;
#X obj 20 70 route tempo swing meter pgm pan transp inchan outchan
, f 27;
#X obj 190 425 route pgm outchan pan;
#X obj 352 505 ctlout 8;
#X connect 0 0 7 0;
#X connect 1 0 75 0;
#X connect 2 0 8 0;
#X connect 2 1 8 1;
#X connect 3 0 2 2;
#X connect 4 0 0 0;
#X connect 4 1 1 0;
#X connect 4 2 3 0;
#X connect 5 0 75 1;
#X connect 6 0 75 2;
#X connect 7 0 2 0;
#X connect 10 0 8 2;
#X connect 10 1 9 1;
#X connect 10 2 12 2;
#X connect 10 2 88 2;
#X connect 10 3 11 0;
#X connect 11 0 12 0;
#X connect 14 0 72 0;
#X connect 15 0 85 0;
#X connect 15 1 85 1;
#X connect 15 2 85 2;
#X connect 16 0 69 0;
#X connect 16 1 70 0;
#X connect 17 0 16 2;
#X connect 19 0 4 0;
#X connect 19 1 23 0;
#X connect 19 2 21 0;
#X connect 20 0 19 0;
#X connect 21 0 22 0;
#X connect 23 0 62 0;
#X connect 24 0 26 0;
#X connect 25 0 24 1;
#X connect 26 0 59 0;
#X connect 27 0 26 1;
#X connect 28 0 41 0;
#X connect 29 0 30 0;
#X connect 30 0 83 0;
#X connect 31 0 32 0;
#X connect 31 1 32 1;
#X connect 33 0 31 0;
#X connect 34 0 38 0;
#X connect 35 0 36 1;
#X connect 36 0 25 0;
#X connect 37 0 28 0;
#X connect 38 0 35 0;
#X connect 40 0 42 0;
#X connect 41 0 29 0;
#X connect 41 1 36 0;
#X connect 41 2 40 0;
#X connect 41 2 43 0;
#X connect 42 0 39 0;
#X connect 44 0 45 0;
#X connect 45 0 48 0;
#X connect 46 0 54 0;
#X connect 47 0 52 0;
#X connect 48 0 49 0;
#X connect 49 0 50 0;
#X connect 49 0 57 0;
#X connect 49 1 51 0;
#X connect 50 0 76 0;
#X connect 51 0 52 0;
#X connect 52 0 48 1;
#X connect 53 0 76 0;
#X connect 54 0 47 0;
#X connect 54 0 58 0;
#X connect 54 1 53 0;
#X connect 55 0 56 0;
#X connect 56 0 39 0;
#X connect 57 0 55 0;
#X connect 58 0 55 0;
#X connect 59 0 33 0;
#X connect 60 0 61 0;
#X connect 61 0 59 1;
#X connect 61 1 7 1;
#X connect 62 0 37 0;
#X connect 62 1 60 0;
#X connect 62 2 44 0;
#X connect 66 0 67 0;
#X connect 67 0 65 0;
#X connect 68 0 86 0;
#X connect 73 0 87 0;
#X connect 74 0 37 1;
#X connect 75 0 2 1;
#X connect 77 0 31 2;
#X connect 78 0 79 0;
#X connect 79 0 49 0;
#X connect 79 1 80 0;
#X connect 80 0 81 0;
#X connect 82 0 83 1;
#X connect 83 0 24 0;
#X connect 84 0 19 0;
#X connect 85 0 16 0;
#X connect 85 1 16 1;
#X connect 86 0 71 0;
#X connect 86 1 14 0;
#X connect 86 2 19 1;
#X connect 86 8 19 0;
#X connect 87 0 9 0;
#X connect 87 1 10 0;
#X connect 87 2 88 0;
#X coords 0 -1 1 1 167 52 1 127 307;
#X restore 10 110 pd arp;
#N canvas 528 29 515 743 control 0;
#X obj 12 137 sel 0;
#X obj 12 162 bng 15 250 50 0 empty empty empty 17 7 0 10 #fcfcfc #000000
#000000;
#X obj 12 92 ctlin 81;
#X obj 42 347 sel 0;
#X obj 42 372 bng 15 250 50 0 empty empty empty 17 7 0 10 #fcfcfc #000000
#000000;
#X obj 102 347 sel 0;
#X obj 102 372 bng 15 250 50 0 empty empty empty 17 7 0 10 #fcfcfc
#000000 #000000;
#X obj 102 292 ctlin 65;
#X obj 162 347 sel 0;
#X obj 162 372 bng 15 250 50 0 empty empty empty 17 7 0 10 #fcfcfc
#000000 #000000;
#X obj 222 347 sel 0;
#X obj 222 372 bng 15 250 50 0 empty empty empty 17 7 0 10 #fcfcfc
#000000 #000000;
#X obj 282 347 sel 0;
#X obj 282 372 bng 15 250 50 0 empty empty empty 17 7 0 10 #fcfcfc
#000000 #000000;
#X obj 342 347 sel 0;
#X obj 342 372 bng 15 250 50 0 empty empty empty 17 7 0 10 #fcfcfc
#000000 #000000;
#X msg 42 395 0;
#X msg 102 395 1;
#X msg 162 395 2;
#X msg 222 395 3;
#X msg 282 395 4;
#X msg 342 395 5;
#X obj 162 292 ctlin 66;
#X obj 222 292 ctlin 67;
#X obj 282 292 ctlin 68;
#X obj 342 292 ctlin 69;
#X obj 212 92 ctlin 91;
#X obj 212 162 tgl 15 0 empty empty empty 17 7 0 10 #fcfcfc #000000
#000000 0 1;
#X obj 292 162 tgl 15 0 empty empty empty 17 7 0 10 #fcfcfc #000000
#000000 0 1;
#X obj 292 92 ctlin 92;
#X obj 212 185 +;
#X obj 292 185 +;
#X floatatom 212 210 5 0 0 0 down - #0-down, f 5;
#X floatatom 292 210 5 0 0 0 up - #0-up, f 5;
#X obj 372 162 tgl 15 0 empty empty empty 17 7 0 10 #fcfcfc #000000
#000000 0 1;
#X obj 372 92 ctlin 93;
#X obj 126 205 ctlin 7;
#X floatatom 72 258 5 0 0 0 mod-switch - #0-mod-switch, f 5;
#X text 50 70 start/stop \, octave \, gate - assumes D2 COLOR preset
;
#X obj 72 92 ctlin 80;
#X obj 212 137 != 0;
#X obj 292 137 != 0;
#X obj 372 137 != 0;
#X obj 72 137 == 0;
#X obj 142 162 tgl 15 0 empty empty empty 17 7 0 10 #fcfcfc #000000
#000000 0 1;
#X obj 142 92 ctlin 94;
#X obj 126 230 expr $f1/127*2;
#X obj 72 162 tgl 15 0 empty empty empty 17 7 0 10 #fcfcfc #000000
#000000 1 1;
#N canvas 825 285 455 434 gate 0;
#X obj 40 20 inlet;
#X obj 217 20 inlet;
#X obj 40 70 outlet;
#X obj 40 45 expr if($f2==0 \, 2-$f1 \, $f1);
#X connect 0 0 3 0;
#X connect 1 0 3 1;
#X connect 3 0 2 0;
#X restore 72 185 pd gate;
#X obj 72 210 * 100;
#X obj 72 234 int;
#X obj 42 487 swap;
#X obj 42 512 pack f f;
#X floatatom 76 562 5 0 0 1 gate - #0-gate, f 5;
#X floatatom 59 607 5 0 0 1 pmod - #0-pmod, f 5;
#X obj 162 462 inlet;
#X obj 142 137 != 0;
#X obj 59 582 expr $f1-100;
#X text 382 482 64 - HOLD;
#X obj 382 562 tgl 15 0 empty empty empty 17 7 0 10 #fcfcfc #000000
#000000 0 1;
#X obj 382 537 != 0;
#X obj 382 512 ctlin 64;
#X floatatom 162 487 5 0 0 0 - - -, f 5;
#X floatatom 42 657 5 0 0 1 velmod - #0-velmod, f 5;
#X obj 42 632 expr if($f1>=100 \, 200-$f1 \, $f1-100);
#X floatatom 140 607 5 0 0 1 gatemod - #0-gatemod, f 5;
#X obj 140 582 expr $f1-100;
#X obj 42 537 route 0 1 2 3 4;
#X floatatom 239 602 5 0 0 1 swing - #0-swing, f 5;
#X obj 239 552 expr $f1-100;
#X obj 239 577 * 0.25;
#X floatatom 272 522 5 0 1 0 - - -, f 5;
#X text 179 509 adjust the swing factor to your liking, f 14;
#N canvas 662 242 458 432 swing 0;
#X obj 20 20 r arp;
#X obj 20 41 route swing;
#X obj 20 104 change;
#X obj 20 125 / 100;
#X obj 20 146 outlet;
#X obj 20 62 sel 0;
#X obj 20 83 abs;
#X connect 0 0 1 0;
#X connect 1 0 5 0;
#X connect 2 0 3 0;
#X connect 3 0 4 0;
#X connect 5 1 6 0;
#X connect 6 0 2 0;
#X restore 272 492 pd swing;
#X obj 42 292 ctlin 82;
#X text 132 252 mode - assumes D3 KBDTL preset (with modifications
\, see below), f 32;
#X text 222 462 mod switcher;
#X text 380 360 NOTE: CC64 remapped to CC82 on Pacer \, as CC64 conflicts
with HOLD \, see below, f 19;
#X text 12 12 NOTE: This control setup is for the Nektar PACER \, if
you use a different MIDI controller \, you'll have to change the controls
below accordingly. A suitably modified Pacer setup (.syx file) for
this patch is included in the same folder!, f 72;
#X text 272 632 This assumes that you have a hold pedal hooked up to
Pd in some way (I have it as FS1 on my Pacer)., f 33;
#X obj 12 187 s \$0-play;
#X obj 42 420 s \$0-mode;
#X obj 382 585 s \$0-hold;
#X obj 42 442 r \$0-mod-switch;
#X obj 12 115 spigot;
#X obj 72 115 spigot;
#X obj 142 115 spigot;
#X obj 212 115 spigot;
#X obj 292 115 spigot;
#X obj 372 115 spigot;
#X obj 430 92 r \$0-master;
#X obj 42 320 spigot;
#X obj 102 320 spigot;
#X obj 162 320 spigot;
#X obj 222 320 spigot;
#X obj 282 320 spigot;
#X obj 400 292 r \$0-master;
#X obj 342 320 spigot;
#X obj 42 465 spigot;
#X obj 150 442 r \$0-master;
#X text 350 190 NOTE: These are all disabled unless we are the time
master., f 23;
#X connect 0 1 1 0;
#X connect 1 0 80 0;
#X connect 2 0 84 0;
#X connect 3 1 4 0;
#X connect 4 0 16 0;
#X connect 5 1 6 0;
#X connect 6 0 17 0;
#X connect 7 0 92 0;
#X connect 8 1 9 0;
#X connect 9 0 18 0;
#X connect 10 1 11 0;
#X connect 11 0 19 0;
#X connect 12 1 13 0;
#X connect 13 0 20 0;
#X connect 14 1 15 0;
#X connect 15 0 21 0;
#X connect 16 0 81 0;
#X connect 17 0 81 0;
#X connect 18 0 81 0;
#X connect 19 0 81 0;
#X connect 20 0 81 0;
#X connect 21 0 81 0;
#X connect 22 0 93 0;
#X connect 23 0 94 0;
#X connect 24 0 95 0;
#X connect 25 0 97 0;
#X connect 26 0 87 0;
#X connect 27 0 30 0;
#X connect 28 0 31 0;
#X connect 29 0 88 0;
#X connect 30 0 32 0;
#X connect 31 0 33 0;
#X connect 34 0 30 1;
#X connect 34 0 31 1;
#X connect 35 0 89 0;
#X connect 36 0 46 0;
#X connect 39 0 85 0;
#X connect 40 0 27 0;
#X connect 41 0 28 0;
#X connect 42 0 34 0;
#X connect 43 0 47 0;
#X connect 44 0 48 1;
#X connect 45 0 86 0;
#X connect 46 0 49 0;
#X connect 47 0 48 0;
#X connect 48 0 49 0;
#X connect 49 0 50 0;
#X connect 50 0 37 0;
#X connect 51 0 52 0;
#X connect 51 1 52 1;
#X connect 52 0 67 0;
#X connect 55 0 62 0;
#X connect 56 0 44 0;
#X connect 57 0 54 0;
#X connect 59 0 82 0;
#X connect 60 0 59 0;
#X connect 61 0 60 0;
#X connect 62 0 51 1;
#X connect 64 0 63 0;
#X connect 66 0 65 0;
#X connect 67 0 64 0;
#X connect 67 1 57 0;
#X connect 67 2 53 0;
#X connect 67 3 66 0;
#X connect 67 4 69 0;
#X connect 69 0 70 0;
#X connect 70 0 68 0;
#X connect 71 0 70 1;
#X connect 73 0 71 0;
#X connect 74 0 91 0;
#X connect 83 0 98 0;
#X connect 84 0 0 0;
#X connect 85 0 43 0;
#X connect 86 0 56 0;
#X connect 87 0 40 0;
#X connect 88 0 41 0;
#X connect 89 0 42 0;
#X connect 90 0 89 1;
#X connect 90 0 84 1;
#X connect 90 0 88 1;
#X connect 90 0 87 1;
#X connect 90 0 86 1;
#X connect 90 0 85 1;
#X connect 91 0 3 0;
#X connect 92 0 5 0;
#X connect 93 0 8 0;
#X connect 94 0 10 0;
#X connect 95 0 12 0;
#X connect 96 0 91 1;
#X connect 96 0 95 1;
#X connect 96 0 94 1;
#X connect 96 0 93 1;
#X connect 96 0 92 1;
#X connect 96 0 97 1;
#X connect 97 0 14 0;
#X connect 98 0 51 0;
#X connect 99 0 98 1;
#X restore 200 150 pd control;
#N canvas 535 29 515 743 panel 0;
#X obj 27 31 cnv 15 67 157 empty empty empty 20 12 0 14 #e0e0e0 #404040
0;
#X obj 27 197 cnv 15 67 113 empty empty empty 20 12 0 14 #e0e0e0 #404040
0;
#X floatatom 102 51 6 0 127 2 minvel #0-minvel -, f 6;
#X msg 102 361 minvel \$1;
#X floatatom 147 51 6 0 127 2 maxvel #0-maxvel -, f 6;
#X msg 147 361 maxvel \$1;
#X obj 200 53 hsl 64 15 -100 100 0 0 empty \$0-velmod velmod -3 -12
0 10 #fcfcfc #000000 #000000 6300 1;
#X msg 200 361 velmod \$1;
#X msg 310 53 100;
#X obj 272 53 bng 15 250 50 0 empty empty empty 17 7 0 10 #fcfcfc #000000
#000000;
#X obj 200 87 hsl 64 15 -100 100 0 0 empty \$0-pmod pmod -3 -12 0 10
#fcfcfc #000000 #000000 3150 1;
#X msg 310 87 0;
#X floatatom 100 87 6 0 100 2 pmin #0-pmin -, f 6;
#X floatatom 147 87 6 0 100 2 pmax #0-pmax -, f 6;
#X msg 100 390 pmin \$1;
#X msg 147 390 pmax \$1;
#X msg 200 390 pmod \$1;
#X obj 272 87 bng 15 250 50 0 empty empty empty 17 7 0 10 #fcfcfc #000000
#000000;
#X obj 100 121 hsl 64 15 0 200 0 0 empty \$0-gate gate -1 -12 0 10
#fcfcfc #000000 #000000 3150 1;
#X msg 310 121 100;
#X msg 100 420 gate \$1;
#X obj 200 121 hsl 64 15 -100 100 0 0 empty \$0-gatemod gatemod -2
-12 0 10 #fcfcfc #000000 #000000 3150 1;
#X msg 350 121 0;
#X msg 200 420 gatemod \$1;
#X obj 272 121 bng 15 250 50 0 empty empty empty 17 7 0 10 #fcfcfc
#000000 #000000;
#X obj 172 121 bng 15 250 50 0 empty empty empty 17 7 0 10 #fcfcfc
#000000 #000000;
#X obj 273 20 tgl 15 0 empty \$0-hold hold -27 6 0 10 #fcfcfc #000000
#000000 0 1;
#X msg 273 361 hold \$1;
#X floatatom 199 19 4 1 128 0 pgm #0-pgm -, f 4;
#X msg 199 610 pgm \$1;
#X floatatom 100 190 4 -100 100 2 swing #0-swing -, f 4;
#X msg 100 330 swing \$1;
#X obj 200 155 hsl 64 15 -100 100 0 0 empty \$0-hmod hmod -3 -12 0
10 #fcfcfc #000000 #000000 0 1;
#X msg 310 155 0;
#X floatatom 100 155 6 0 100 2 hmin #0-hmin -, f 6;
#X floatatom 147 155 6 0 100 2 hmax #0-hmax -, f 6;
#X obj 272 155 bng 15 250 50 0 empty empty empty 17 7 0 10 #fcfcfc
#000000 #000000;
#X obj 200 190 hsl 64 15 -100 100 0 0 empty \$0-prefmod prefmod -3
-12 0 10 #fcfcfc #000000 #000000 6300 1;
#X msg 310 190 0;
#X floatatom 147 190 6 -100 100 2 pref #0-pref -, f 6;
#X obj 272 190 bng 15 250 50 0 empty empty empty 17 7 0 10 #fcfcfc
#000000 #000000;
#X obj 200 225 hsl 64 15 -100 100 0 0 empty \$0-smod smod -3 -12 0
10 #fcfcfc #000000 #000000 3150 1;
#X msg 310 225 0;
#X floatatom 100 225 6 -127 127 2 smin #0-smin -, f 6;
#X floatatom 147 225 6 -127 127 2 smax #0-smax -, f 6;
#X obj 272 225 bng 15 250 50 0 empty empty empty 17 7 0 10 #fcfcfc
#000000 #000000;
#X obj 200 260 hsl 64 15 -100 100 0 0 empty \$0-nmod nmod -3 -12 0
10 #fcfcfc #000000 #000000 0 1;
#X msg 310 260 0;
#X floatatom 147 260 6 0 10 2 nmax #0-nmax -, f 6;
#X obj 272 260 bng 15 250 50 0 empty empty empty 17 7 0 10 #fcfcfc
#000000 #000000;
#X obj 100 260 tgl 15 0 empty \$0-uniq uniq -1 -10 0 10 #fcfcfc #000000
#000000 0 1;
#X msg 100 450 hmin \$1;
#X msg 147 450 hmax \$1;
#X msg 200 450 hmod \$1;
#X msg 147 480 pref \$1;
#X msg 200 480 prefmod \$1;
#X msg 100 510 smin \$1;
#X msg 147 510 smax \$1;
#X msg 200 510 smod \$1;
#X msg 100 540 uniq \$1;
#X msg 147 540 nmax \$1;
#X msg 200 540 nmod \$1;
#X obj 30 45 vradio 15 0 0 7 empty \$0-downval dn 0 -8 0 10 #fcfcfc
#000000 #000000 5;
#X obj 50 45 vradio 15 0 0 7 empty \$0-upval up 0 -8 0 10 #fcfcfc #000000
#000000 2;
#N canvas 526 202 589 302 octave 0;
#X obj 20 20 inlet;
#X obj 20 100 t b f;
#X obj 20 150 min;
#X obj 20 175 change;
#X obj 300 20 inlet;
#X obj 300 100 t b f;
#X obj 300 175 change;
#X obj 300 150 max;
#X floatatom 80 175 5 0 0 0 - - -, f 5;
#X floatatom 370 175 5 0 0 0 - - -, f 5;
#X obj 20 45 t f f f;
#X obj 90 100 expr 3-$f1;
#X obj 390 100 expr 3-$f1;
#X obj 300 45 t f f f;
#X msg 90 125 down \$1;
#X msg 390 125 up \$1;
#X obj 120 45 expr max(0 \, min(6 \, 3-$f1));
#X obj 390 45 expr max(0 \, min(6 \, 3-$f1));
#X obj 39 70 v \$0-downval;
#X obj 120 70 s \$0-downval;
#X obj 120 20 r \$0-down;
#X obj 20 125 v \$0-upval;
#X obj 20 200 s \$0-upval;
#X obj 190 200 s \$0-arp;
#X obj 319 70 v \$0-upval;
#X obj 390 70 s \$0-upval;
#X obj 390 20 r \$0-up;
#X obj 300 125 v \$0-downval;
#X obj 300 200 s \$0-downval;
#X connect 0 0 10 0;
#X connect 1 0 21 0;
#X connect 1 1 2 1;
#X connect 2 0 3 0;
#X connect 2 0 8 0;
#X connect 3 0 22 0;
#X connect 4 0 13 0;
#X connect 5 0 27 0;
#X connect 5 1 7 1;
#X connect 6 0 28 0;
#X connect 7 0 6 0;
#X connect 7 0 9 0;
#X connect 10 0 1 0;
#X connect 10 1 18 0;
#X connect 10 2 11 0;
#X connect 11 0 14 0;
#X connect 12 0 15 0;
#X connect 13 0 5 0;
#X connect 13 1 24 0;
#X connect 13 2 12 0;
#X connect 14 0 23 0;
#X connect 15 0 23 0;
#X connect 16 0 19 0;
#X connect 17 0 25 0;
#X connect 20 0 16 0;
#X connect 21 0 2 0;
#X connect 26 0 17 0;
#X connect 27 0 7 0;
#X restore 30 360 pd octave;
#X text 70 45 +3;
#X text 70 60 +2;
#X text 70 75 +1;
#X text 76 92 0;
#X text 70 105 -1;
#X text 70 120 -2;
#X text 70 135 -3;
#X obj 30 219 vradio 15 0 0 6 empty \$0-mode empty 0 -8 0 10 #fcfcfc
#000000 #000000 0;
#X text 50 232 up;
#X text 50 247 down;
#X text 50 262 up-down;
#X text 50 277 down-up;
#X text 50 217 random;
#N canvas 740 245 455 434 mode 0;
#X obj 30 20 inlet;
#X obj 90 20 inlet;
#X msg 30 42 mode \$1;
#X obj 90 46 != 0;
#X msg 90 71 raptor \$1;
#X obj 30 100 s \$0-arp;
#X connect 0 0 2 0;
#X connect 1 0 3 0;
#X connect 2 0 5 0;
#X connect 3 0 4 0;
#X connect 4 0 5 0;
#X restore 30 390 pd mode;
#X floatatom 147 19 3 0 128 0 out #0-outchan -, f 3;
#X obj 360 490 s \$0-arp;
#X msg 147 580 outchan \$1;
#X floatatom 30 155 5 0 0 3 transp #0-transp -, f 5;
#X floatatom 102 19 3 0 128 0 in #0-inchan -, f 3;
#X msg 102 610 inchan \$1;
#X msg 30 330 transp \$1;
#X text 50 293 outside-in;
#X obj 30 201 tgl 15 0 empty \$0-raptor raptor 20 6 0 10 #fcfcfc #000000
#000000 1 1;
#X obj 200 294 hsl 64 15 0 127 0 0 empty \$0-pan pan -3 -12 0 10 #fcfcfc
#000000 #000000 3175 1;
#X obj 272 294 bng 15 250 50 0 empty empty empty 17 7 0 10 #fcfcfc
#000000 #000000;
#X msg 310 294 64;
#X floatatom 199 19 4 1 128 0 pgm #0-pgm -, f 4;
#X msg 199 610 pgm \$1;
#X msg 200 330 pan \$1;
#X connect 2 0 3 0;
#X connect 3 0 80 0;
#X connect 4 0 5 0;
#X connect 5 0 80 0;
#X connect 6 0 7 0;
#X connect 7 0 80 0;
#X connect 8 0 6 0;
#X connect 9 0 8 0;
#X connect 10 0 16 0;
#X connect 11 0 10 0;
#X connect 12 0 14 0;
#X connect 13 0 15 0;
#X connect 14 0 80 0;
#X connect 15 0 80 0;
#X connect 16 0 80 0;
#X connect 17 0 11 0;
#X connect 18 0 20 0;
#X connect 19 0 18 0;
#X connect 20 0 80 0;
#X connect 21 0 23 0;
#X connect 22 0 21 0;
#X connect 23 0 80 0;
#X connect 24 0 22 0;
#X connect 25 0 19 0;
#X connect 26 0 27 0;
#X connect 27 0 80 0;
#X connect 28 0 29 0;
#X connect 29 0 80 0;
#X connect 30 0 31 0;
#X connect 31 0 80 0;
#X connect 32 0 53 0;
#X connect 33 0 32 0;
#X connect 34 0 51 0;
#X connect 35 0 52 0;
#X connect 36 0 33 0;
#X connect 37 0 55 0;
#X connect 38 0 37 0;
#X connect 39 0 54 0;
#X connect 40 0 38 0;
#X connect 41 0 58 0;
#X connect 42 0 41 0;
#X connect 43 0 56 0;
#X connect 44 0 57 0;
#X connect 45 0 42 0;
#X connect 46 0 61 0;
#X connect 47 0 46 0;
#X connect 48 0 60 0;
#X connect 49 0 47 0;
#X connect 50 0 59 0;
#X connect 51 0 80 0;
#X connect 52 0 80 0;
#X connect 53 0 80 0;
#X connect 54 0 80 0;
#X connect 55 0 80 0;
#X connect 56 0 80 0;
#X connect 57 0 80 0;
#X connect 58 0 80 0;
#X connect 59 0 80 0;
#X connect 60 0 80 0;
#X connect 61 0 80 0;
#X connect 62 0 64 0;
#X connect 63 0 64 1;
#X connect 72 0 78 0;
#X connect 79 0 81 0;
#X connect 81 0 80 0;
#X connect 82 0 85 0;
#X connect 83 0 84 0;
#X connect 84 0 80 0;
#X connect 85 0 80 0;
#X connect 87 0 78 1;
#X connect 88 0 93 0;
#X connect 89 0 90 0;
#X connect 90 0 88 0;
#X connect 91 0 92 0;
#X connect 93 0 80 0;
#X coords 0 -1 1 1 266 299 1 25 15;
#X restore 290 20 pd panel;
#X obj 290 350 p \$0 default 1;
#X obj 290 375 p \$0 triplet 2;
#X obj 290 400 p \$0 weirdmod 3;
#X obj 290 425 p \$0 bla 4;
#X obj 290 450 p \$0 raptor 5;
#X obj 290 475 p \$0 tr808 6;
#N canvas 200 167 465 406 time 0;
#X obj 350 160 inlet;
#X obj 200 20 tgl 15 1 empty \$0-master-toggle M 17 7 0 10 #fcfcfc
#000000 #000000 1 1;
#X obj 70 90 bng 15 50 10 0 pulse empty empty 17 7 0 10 #fcfcfc #000000
#000000;
#X obj 230 20 tgl 15 0 empty \$0-metro empty 17 7 0 10 #fcfcfc #000000
#000000 0 1;
#X obj 70 69 metro 160;
#X obj 121 18 r \$0-ms;
#X obj 170 100 != 0;
#X obj 260 100 == 0;
#X obj 170 125 s \$0-master;
#X obj 260 125 s \$0-slave;
#X obj 40 180 r \$0-master;
#X obj 170 180 r \$0-slave;
#X text 40 150 - master -;
#X text 170 150 - slave -;
#X obj 230 235 sel \$0;
#X msg 263 260 0;
#X obj 70 43 spigot;
#X obj 250 20 bng 15 50 10 0 empty pulse empty 17 7 0 10 #fcfcfc #000000
#000000;
#X obj 350 210 outlet;
#X obj 170 235 spigot;
#X msg 170 260 1;
#X obj 400 240 s \$0-me;
#X obj 170 210 r \$0-me;
#X obj 250 43 outlet;
#X obj 230 210 r all-master;
#X obj 170 70 t f f f;
#X obj 350 100 t b;
#X obj 350 125 s stop;
#X obj 170 285 s \$0-master-toggle;
#X obj 170 50 change -1;
#X obj 40 290 s all-master;
#X obj 40 240 sel 1;
#X obj 40 265 f \$0;
#X obj 350 185 t f f b;
#X obj 350 240 sel 1;
#X msg 350 265 0;
#X obj 350 290 s all-arp;
#X obj 40 210 t f f;
#X connect 0 0 33 0;
#X connect 1 0 29 0;
#X connect 3 0 16 0;
#X connect 4 0 2 0;
#X connect 5 0 4 1;
#X connect 6 0 8 0;
#X connect 7 0 9 0;
#X connect 10 0 37 0;
#X connect 11 0 19 1;
#X connect 14 1 15 0;
#X connect 15 0 28 0;
#X connect 16 0 4 0;
#X connect 17 0 23 0;
#X connect 19 0 20 0;
#X connect 20 0 28 0;
#X connect 22 0 19 0;
#X connect 24 0 14 0;
#X connect 25 0 6 0;
#X connect 25 1 7 0;
#X connect 25 2 26 0;
#X connect 26 0 27 0;
#X connect 29 0 25 0;
#X connect 31 0 32 0;
#X connect 32 0 30 0;
#X connect 33 0 18 0;
#X connect 33 1 34 0;
#X connect 33 2 21 0;
#X connect 34 0 35 0;
#X connect 35 0 36 0;
#X connect 37 0 31 0;
#X connect 37 1 16 1;
#X coords 0 -1 1 1 134 21 1 134 17;
#X restore 10 50 pd time;
#X msg 190 414;
#X msg 198 360 5 2;
#X msg 230 360 7 2;
#X text 70 300 meter;
#X connect 0 0 29 0;
#X connect 1 0 19 0;
#X connect 2 0 19 0;
#X connect 3 0 19 0;
#X connect 4 0 19 0;
#X connect 5 0 19 0;
#X connect 6 0 19 0;
#X connect 8 0 19 0;
#X connect 9 0 19 0;
#X connect 10 0 20 0;
#X connect 11 0 20 0;
#X connect 12 0 20 0;
#X connect 13 0 20 0;
#X connect 14 0 20 0;
#X connect 16 0 20 0;
#X connect 17 0 20 0;
#X connect 18 0 38 0;
#X connect 19 0 7 0;
#X connect 20 0 39 0;
#X connect 22 0 30 0;
#X connect 38 0 29 0;
#X connect 38 1 29 1;
#X connect 40 0 20 0;
#X connect 41 0 20 0;
