#N canvas 485 125 605 524 10;
#X declare -path lib;
#X obj 140 70 bng 15 50 10 0 empty empty empty 17 7 0 10 #fcfcfc #000000
#000000;
#X obj 140 30 tgl 15 0 empty metro empty 17 7 0 10 #fcfcfc #000000
#000000 1 1;
#X obj 140 130 arpeggio 15;
#X msg 100 100 panic;
#X msg 275 253 240;
#X msg 302 253 400;
#X msg 221 253 120;
#X msg 194 253 100;
#X msg 248 253 200;
#X msg 329 253 480;
#X obj 140 279 hsl 128 15 40 480 0 0 empty empty empty -25 5 0 10 #fcfcfc
#000000 #000000 2309 1;
#X floatatom 140 327 5 0 0 1 ms - ms, f 5;
#X obj 191 28 r ms;
#X msg 140 253 50;
#X msg 167 253 60;
#X msg 140 384 4;
#X msg 180 384 8;
#X msg 220 384 9;
#X msg 260 384 12;
#X msg 300 384 15;
#X text 200 230 tempo;
#X text 200 360 meter;
#X obj 140 409 hsl 128 15 1 17 0 0 empty empty empty -2 -8 0 10 #fcfcfc
#000000 #000000 8731 1;
#X obj 140 49 metro 160;
#X msg 220 435 3 2 2;
#X msg 270 435 2 3 2;
#N canvas 145 130 470 424 time 0;
#X obj 40 10 inlet;
#X obj 220 30 inlet;
#X obj 220 55 change;
#X floatatom 220 79 5 0 0 0 - - n, f 5;
#X floatatom 40 35 5 0 0 0 - - -, f 5;
#X obj 40 210 spigot;
#X obj 110 184 tgl 15 0 empty empty empty 17 7 0 10 #fcfcfc #000000
#000000 1 1;
#X obj 40 235 spigot;
#X obj 300 210 tgl 15 1 empty empty empty 17 7 0 10 #fcfcfc #000000
#000000 1 1;
#X obj 133 55 r n;
#X floatatom 40 110 5 0 0 0 - - -, f 5;
#X obj 40 159 expr rint($f1*60)+60;
#X floatatom 40 184 5 0 0 0 - - -, f 5;
#X obj 145 285 r ms;
#X obj 40 309 makenote 127 160, f 18;
#X obj 40 334 noteout 10;
#X msg 40 286 54 \$1;
#X obj 280 90 loadbang;
#X floatatom 280 140 5 0 0 0 - - -, f 5;
#X obj 180 160 expr $f1>$f2;
#X obj 40 85 expr ($f1+1)/$f2;
#X msg 280 115 0.4;
#X obj 282 210 bng 15 150 10 0 empty empty empty 17 7 0 10 #a0a0a0
#202020 #202020;
#X obj 190 105 expr $f1==1;
#X obj 40 134 t f f f;
#X obj 190 130 sel 1;
#X obj 254 210 hsl 20 15 0 1 0 0 empty empty empty -2 -8 0 10 #a0a0a0
#000000 #000000 1425 1;
#X obj 330 140 sel 0;
#X obj 330 170 bng 15 250 50 0 empty empty empty 17 7 0 10 #fcfcfc
#000000 #000000;
#X obj 363 30 inlet;
#X msg 363 90 1;
#X obj 330 193 spigot;
#X obj 330 218 t b b;
#X msg 330 243 0;
#X obj 330 268 s metro;
#X msg 363 243 0;
#X obj 363 170 tgl 15 0 empty empty empty 17 7 0 10 #fcfcfc #000000
#000000 0 1;
#X msg 396 243 1;
#X obj 363 55 sel 0 1;
#X floatatom 240 270 5 0 0 0 - - -, f 5;
#X msg 240 294 color \$1 12 12;
#X msg 260 240 1;
#X msg 220 240 13;
#X obj 40 260 pipe;
#N canvas 321 122 457 405 swing 0;
#X text 30 10 experimental humanizer / swing feature;
#X floatatom 230 40 5 0 100 0 - swing -, f 5;
#X floatatom 30 175 5 0 0 0 - - -, f 5;
#X obj 30 199 *;
#X floatatom 30 224 5 0 0 0 - - -, f 5;
#X obj 80 175 r ms;
#X obj 30 248 outlet;
#X obj 159 90 r n;
#X obj 30 114 expr $f1/max(1 \, $f2-1);
#X obj 230 114 / 100;
#X obj 30 90 inlet;
#X obj 30 150 expr if($f3>=0 \, $f3*(1-$f1)*$f2 \, -$f3*$f1*$f2);
#X obj 230 64 t f f;
#X obj 230 89 abs;
#X obj 303 90 expr ($f1>0)-($f1<0);
#X connect 1 0 12 0;
#X connect 2 0 3 0;
#X connect 3 0 4 0;
#X connect 4 0 6 0;
#X connect 5 0 3 1;
#X connect 7 0 8 1;
#X connect 8 0 11 0;
#X connect 9 0 11 1;
#X connect 10 0 8 0;
#X connect 11 0 2 0;
#X connect 12 0 13 0;
#X connect 12 1 14 0;
#X connect 13 0 9 0;
#X connect 14 0 11 2;
#X restore 100 210 pd swing;
#X obj 100 235 t f f;
#X obj 127 260 outlet;
#X obj 40 59 t f f f;
#X connect 0 0 4 0;
#X connect 1 0 2 0;
#X connect 2 0 3 0;
#X connect 4 0 47 0;
#X connect 5 0 7 0;
#X connect 6 0 5 1;
#X connect 7 0 43 0;
#X connect 8 0 7 1;
#X connect 9 0 20 1;
#X connect 10 0 24 0;
#X connect 11 0 12 0;
#X connect 12 0 5 0;
#X connect 13 0 14 2;
#X connect 14 0 15 0;
#X connect 14 1 15 1;
#X connect 16 0 14 0;
#X connect 17 0 21 0;
#X connect 18 0 19 1;
#X connect 19 0 6 0;
#X connect 20 0 10 0;
#X connect 21 0 18 0;
#X connect 23 0 25 0;
#X connect 24 0 11 0;
#X connect 24 1 19 0;
#X connect 24 2 23 0;
#X connect 24 2 26 0;
#X connect 25 0 22 0;
#X connect 27 0 28 0;
#X connect 28 0 31 0;
#X connect 29 0 38 0;
#X connect 30 0 36 0;
#X connect 31 0 32 0;
#X connect 32 0 33 0;
#X connect 32 0 41 0;
#X connect 32 1 35 0;
#X connect 33 0 34 0;
#X connect 35 0 36 0;
#X connect 35 0 34 0;
#X connect 36 0 31 1;
#X connect 37 0 34 0;
#X connect 38 0 30 0;
#X connect 38 0 42 0;
#X connect 38 1 37 0;
#X connect 39 0 40 0;
#X connect 40 0 22 0;
#X connect 41 0 39 0;
#X connect 42 0 39 0;
#X connect 43 0 16 0;
#X connect 44 0 45 0;
#X connect 45 0 43 1;
#X connect 45 1 46 0;
#X connect 47 0 20 0;
#X connect 47 1 44 0;
#X connect 47 2 27 0;
#X coords 0 -1 1 1 114 21 1 204 207;
#X restore 150 157 pd time;
#X obj 257 133 tgl 15 0 empty play play 17 7 0 10 #fcfcfc #000000 #000000
1 1;
#X obj 20 30 vradio 15 0 0 4 empty down dn 0 -8 0 10 #fcfcfc #000000
#000000 3;
#X obj 40 30 vradio 15 0 0 4 empty up up 0 -8 0 10 #fcfcfc #000000
#000000 1;
#X msg 40 124 up \$1;
#X msg 20 103 down \$1;
#X obj 20 180 vradio 15 0 0 6 empty mode empty 0 -8 0 10 #fcfcfc #000000
#000000 0;
#X obj 20 148 s arp;
#X text 40 193 up;
#X text 40 208 down;
#X text 40 223 up-down;
#X text 40 238 down-up;
#X text 40 178 random;
#X text 40 254 outside-in;
#X floatatom 140 230 5 40 480 0 - tempo -, f 5;
#N canvas 175 222 455 380 tempo 0;
#X obj 30 20 inlet;
#X obj 30 75 change;
#X obj 30 100 t f f;
#X obj 204 88 r n;
#X obj 204 113 t b f;
#X obj 30 130 expr rint(60000/$f1*4/max(1 \, $f2));
#X obj 30 155 outlet;
#X msg 90 75 tempo \$1;
#X obj 90 100 s arp;
#X obj 30 45 expr rint($f1);
#X connect 0 0 9 0;
#X connect 1 0 2 0;
#X connect 2 0 5 0;
#X connect 2 1 7 0;
#X connect 3 0 4 0;
#X connect 4 0 5 0;
#X connect 4 1 5 1;
#X connect 5 0 6 0;
#X connect 7 0 8 0;
#X connect 9 0 1 0;
#X restore 140 302 pd tempo;
#X floatatom 140 360 5 1 17 0 - meter -, f 5;
#N canvas 196 354 453 352 meter 0;
#X obj 30 20 inlet;
#X obj 30 45 route float list;
#X obj 30 90 expr rint($f1);
#X obj 30 115 t f f;
#X msg 30 140 meter \$1;
#X obj 30 165 s arp;
#X obj 80 115 s meter;
#X obj 140 90 list prepend meter;
#X obj 140 115 list trim;
#X obj 30 70 change;
#X connect 0 0 1 0;
#X connect 1 0 9 0;
#X connect 1 1 7 0;
#X connect 2 0 3 0;
#X connect 3 0 4 0;
#X connect 3 1 6 0;
#X connect 4 0 5 0;
#X connect 7 0 8 0;
#X connect 8 0 5 0;
#X connect 9 0 2 0;
#X restore 140 452 pd meter;
#X symbolatom 380 300 10 0 0 0 - preset preset-set, f 10;
#X obj 20 340 vradio 15 0 1 5 empty empty mod-switch 0 -8 0 10 #fcfcfc
#000000 #000000 4;
#X text 40 340 velmod;
#X text 40 354 pmod;
#X text 40 369 gate;
#X text 40 386 gatemod;
#X text 40 401 swing;
#X obj 59 280 tgl 15 0 empty raptor raptor 17 4 0 10 #fcfcfc #000000
#000000 1 1;
#N canvas 741 245 453 353 mode 0;
#X obj 30 20 inlet;
#X obj 90 20 inlet;
#X msg 30 42 mode \$1;
#X obj 30 100 s arp;
#X obj 90 46 != 0;
#X msg 90 71 raptor \$1;
#X connect 0 0 2 0;
#X connect 1 0 4 0;
#X connect 2 0 3 0;
#X connect 4 0 5 0;
#X connect 5 0 3 0;
#X restore 20 300 pd mode;
#X obj 380 320 preset default 1;
#X obj 380 357 preset triplet 2;
#X obj 380 394 preset weirdmod 3;
#X obj 380 431 preset bla 4;
#N canvas 275 230 330 285 input 0;
#X obj 30 20 r arp;
#X obj 30 70 s tempo;
#X obj 189 100 outlet;
#X obj 237 100 outlet;
#X obj 149 70 pgmout;
#X obj 30 45 route tempo swing meter pgm;
#X obj 69 96 change;
#X obj 69 121 s swing;
#X obj 30 150 notein;
#X obj 30 172 trace 300;
#X obj 30 194 s arp;
#X obj 81 194 s vel;
#X floatatom 81 150 5 0 0 0 - trace -, f 5;
#X connect 0 0 5 0;
#X connect 5 0 1 0;
#X connect 5 1 6 0;
#X connect 5 2 3 0;
#X connect 5 3 4 0;
#X connect 5 4 2 0;
#X connect 6 0 7 0;
#X connect 8 0 9 0;
#X connect 8 1 9 1;
#X connect 9 0 10 0;
#X connect 9 1 11 0;
#X connect 12 0 9 2;
#X restore 158 100 pd input;
#N canvas 171 214 451 326 output 0;
#X obj 30 20 inlet;
#X obj 100 20 inlet;
#X obj 30 144 noteout;
#X floatatom 30 78 5 0 0 0 - - -, f 5;
#X floatatom 76 78 5 0 0 0 - - -, f 5;
#X obj 30 122 makenote 127 160;
#N canvas 771 235 458 432 gate 0;
#X obj 50 20 inlet;
#X obj 100 50 r ms;
#X obj 50 100 * 1;
#X floatatom 50 50 5 0 0 0 - - -, f 5;
#X obj 100 100 t b f;
#X obj 50 125 outlet;
#X obj 50 74 / 100;
#X connect 0 0 3 0;
#X connect 1 0 4 0;
#X connect 2 0 5 0;
#X connect 3 0 6 0;
#X connect 4 0 2 0;
#X connect 4 1 2 1;
#X connect 6 0 2 0;
#X restore 123 78 pd gate;
#X obj 30 50 unpack f f f;
#X obj 76 100 veltracker;
#X floatatom 200 40 5 0 0 0 - vel -, f 5;
#X obj 237 40 tgl 15 1 empty empty empty 17 7 0 10 #fcfcfc #000000
#000000 1 1;
#X obj 30 101 pipe;
#X connect 0 0 7 0;
#X connect 1 0 11 1;
#X connect 3 0 11 0;
#X connect 4 0 8 0;
#X connect 5 0 2 0;
#X connect 5 1 2 1;
#X connect 6 0 5 2;
#X connect 7 0 3 0;
#X connect 7 1 4 0;
#X connect 7 2 6 0;
#X connect 8 0 5 1;
#X connect 9 0 8 1;
#X connect 10 0 8 2;
#X connect 11 0 5 0;
#X coords 0 -1 1 1 118 24 1 138 36;
#X restore 140 191 pd output;
#N canvas 711 206 456 462 init 0;
#X obj 70 20 loadbang;
#X msg 89 80 \; hmin 0 \; hmax 100 \; hmod 0 \; pref 100 \; prefmod
0 \; smin 1 \; smax 7 \; smod 0 \; uniq 1 \; nmax 1 \; nmod 0;
#X obj 210 20 declare -path lib;
#X obj 70 45 t b b b;
#X msg 166 80 \; tempo 100 \; meter 15 \; swing 0 \; minvel 60 \; maxvel
120 \; velmod 100 \; pmin 30 \; pmax 100 \; pmod 0 \; gate 100 \; gatemod
0 \; pgm 1 \; down 1 \; up 1, f 12;
#X msg 70 290 \; preset symbol default;
#X connect 0 0 3 0;
#X connect 3 0 5 0;
#X connect 3 1 1 0;
#X connect 3 2 4 0;
#X restore 300 160 pd init;
#X obj 20 420 control;
#X obj 380 468 preset raptor 5;
#X obj 380 20 panel;
#X obj 240 50 hsl 48 15 0 600 0 1 trace empty trace -2 -8 0 10 #fcfcfc
#000000 #000000 2350 1;
#X obj 300 50 bng 15 250 50 0 empty empty empty 17 7 0 10 #fcfcfc #000000
#000000;
#X msg 300 30 300;
#X connect 0 0 2 0;
#X connect 1 0 23 0;
#X connect 2 0 58 0;
#X connect 2 1 26 0;
#X connect 2 2 26 1;
#X connect 3 0 2 0;
#X connect 4 0 10 0;
#X connect 5 0 10 0;
#X connect 6 0 10 0;
#X connect 7 0 10 0;
#X connect 8 0 10 0;
#X connect 9 0 10 0;
#X connect 10 0 41 0;
#X connect 12 0 23 1;
#X connect 13 0 10 0;
#X connect 14 0 10 0;
#X connect 15 0 22 0;
#X connect 16 0 22 0;
#X connect 17 0 22 0;
#X connect 18 0 22 0;
#X connect 19 0 22 0;
#X connect 22 0 43 0;
#X connect 23 0 0 0;
#X connect 24 0 43 0;
#X connect 25 0 43 0;
#X connect 26 0 58 1;
#X connect 27 0 26 2;
#X connect 28 0 31 0;
#X connect 29 0 30 0;
#X connect 30 0 33 0;
#X connect 31 0 33 0;
#X connect 32 0 52 0;
#X connect 40 0 10 0;
#X connect 41 0 11 0;
#X connect 42 0 22 0;
#X connect 45 0 60 0;
#X connect 51 0 52 1;
#X connect 57 0 2 0;
#X connect 57 1 2 1;
#X connect 64 0 65 0;
#X connect 65 0 63 0;
