#N canvas 435 87 568 560 10;
#X declare -path lib;
#X obj 239 240 bng 25 250 50 0 \$0-play empty empty 17 7 0 10 #fcfcfc
#000000 #000000;
#X obj 239 215 bng 25 250 50 0 \$0-play empty empty 17 7 0 10 #fcfcfc
#000000 #000000;
#X msg 30 76 panic;
#X msg 201 193 240;
#X msg 116 193 120;
#X msg 89 193 100;
#X msg 173 193 200;
#X floatatom 10 267 7 0 0 1 ms - #0-ms, f 7;
#X msg 10 193 50;
#X msg 37 193 60;
#X msg 10 300 4;
#X msg 40 300 8;
#X msg 70 300 9;
#X msg 100 300 12;
#X msg 130 300 15;
#X text 70 170 tempo;
#X msg 110 330 3 2 2;
#X msg 154 330 2 3 2;
#X obj 10 20 tgl 20 0 empty \$0-play play -1 -11 0 10 #69be77 #000000
#000000 0 1;
#N canvas 300 175 475 440 tempo 0;
#X obj 30 10 inlet;
#X obj 30 105 change;
#X obj 204 143 t b f;
#X msg 160 210 tempo \$1;
#X obj 30 230 outlet;
#X obj 160 235 s \$0-arp;
#X obj 30 130 t f f;
#X obj 30 40 hsl 128 15 40 480 0 0 empty empty empty -25 5 0 10 #fcfcfc
#000000 #000000 1732 1;
#X floatatom 170 40 6 40 480 0 - #0-tempo -, f 6;
#X obj 80 210 v \$0-ms;
#X obj 30 270 r \$0-ms;
#X obj 30 295 change;
#X msg 30 210 set \$1;
#X floatatom 30 345 5 0 0 0 - - #0-tempo, f 5;
#X obj 30 185 t f f f;
#X obj 80 230 s \$0-tick;
#X obj 30 160 expr 60000/$f1*4/max(1 \, $f2);
#X obj 30 320 expr 60000/$f1*4/max(1 \, $f2);
#X obj 204 118 r \$0-m;
#X obj 204 303 r \$0-m;
#X connect 0 0 7 0;
#X connect 1 0 6 0;
#X connect 2 0 16 0;
#X connect 2 1 16 1;
#X connect 3 0 5 0;
#X connect 6 0 16 0;
#X connect 6 1 3 0;
#X connect 7 0 1 0;
#X connect 8 0 7 0;
#X connect 10 0 11 0;
#X connect 11 0 17 0;
#X connect 12 0 4 0;
#X connect 14 0 12 0;
#X connect 14 1 15 0;
#X connect 14 2 9 0;
#X connect 16 0 14 0;
#X connect 17 0 13 0;
#X connect 18 0 2 0;
#X connect 19 0 17 1;
#X coords 0 -1 1 1 185 37 1 26 22;
#X restore 10 222 pd tempo;
#N canvas 705 57 483 713 meter 0;
#X obj 30 100 inlet;
#X obj 30 125 route float list;
#X msg 30 250 meter \$1;
#X obj 150 202 list prepend meter;
#X obj 150 225 list trim;
#X obj 30 275 s \$0-arp;
#X obj 30 202 change;
#X obj 30 150 expr rint($f1);
#X msg 100 250 set \$1;
#X obj 270 225 list trim;
#X obj 270 202 list prepend set;
#X obj 270 275 outlet;
#X obj 30 225 t f f b;
#X msg 200 250 set;
#X msg 184 173 set 0;
#X obj 150 100 r \$0-meter;
#X obj 100 275 s \$0-meter-set;
#X obj 150 150 t a a b a;
#N canvas 250 240 450 405 product 0;
#X obj 20 20 inlet;
#X msg 100 100 1;
#X obj 20 125 *;
#X obj 50 125 f;
#X obj 20 160 f;
#X obj 20 45 t b a b;
#X obj 20 185 outlet;
#X text 140 60 Calculate the product of a list. NOTE: We use the zexy
version of drip here \, so you need to have that installed \, or replace
it with a suitable replacement \, such as list-drip from list-abs.
, f 44;
#X obj 20 100 drip;
#X connect 0 0 5 0;
#X connect 1 0 2 1;
#X connect 2 0 3 0;
#X connect 2 0 4 1;
#X connect 3 0 2 1;
#X connect 4 0 6 0;
#X connect 5 0 4 0;
#X connect 5 1 8 0;
#X connect 5 2 1 0;
#X connect 8 0 2 0;
#X restore 270 173 pd product;
#X obj 30 46 hsl 128 15 1 24 0 0 empty \$0-meter-set empty -2 -8 0
10 #fcfcfc #000000 #000000 7730 1;
#X floatatom 170 25 6 1 24 0 - - -, f 6;
#X floatatom 170 45 6 1 64 0 - - -, f 6;
#X floatatom 100 300 5 0 0 0 - - -, f 5;
#X obj 30 175 t f f;
#X obj 100 225 t f f;
#X floatatom 100 374 5 0 0 0 - - -, f 5;
#X msg 100 398 meter-base \$1;
#X obj 100 324 expr pow(2 \, ceil(log($f1)/log(2)));
#X obj 240 69 change;
#X obj 240 94 t f f;
#X obj 240 119 s \$0-m;
#X obj 240 20 r \$0-meter-base;
#X obj 360 20 r \$0-meter-set;
#N canvas 637 162 453 352 clamp1 0;
#X obj 30 10 inlet;
#X obj 30 35 route set;
#X obj 30 60 moses 1;
#X msg 30 85 set \$1;
#X obj 30 110 outlet;
#X obj 90 60 moses 1;
#X connect 0 0 1 0;
#X connect 1 0 2 0;
#X connect 1 1 5 0;
#X connect 2 1 3 0;
#X connect 3 0 4 0;
#X connect 5 1 4 0;
#X restore 360 44 pd clamp1;
#N canvas 636 162 454 379 clamp1 0;
#X obj 30 10 inlet;
#X obj 30 35 route set;
#X obj 30 60 moses 1;
#X msg 30 85 set \$1;
#X obj 30 110 outlet;
#X obj 90 60 moses 1;
#X connect 0 0 1 0;
#X connect 1 0 2 0;
#X connect 1 1 5 0;
#X connect 2 1 3 0;
#X connect 3 0 4 0;
#X connect 5 1 4 0;
#X restore 240 44 pd clamp1;
#X connect 0 0 1 0;
#X connect 1 0 7 0;
#X connect 1 1 17 0;
#X connect 2 0 5 0;
#X connect 3 0 4 0;
#X connect 4 0 5 0;
#X connect 6 0 12 0;
#X connect 7 0 23 0;
#X connect 8 0 16 0;
#X connect 9 0 11 0;
#X connect 10 0 9 0;
#X connect 12 0 2 0;
#X connect 12 1 8 0;
#X connect 12 2 13 0;
#X connect 13 0 11 0;
#X connect 14 0 6 0;
#X connect 15 0 1 0;
#X connect 17 0 3 0;
#X connect 17 1 10 0;
#X connect 17 2 14 0;
#X connect 17 3 18 0;
#X connect 18 0 24 0;
#X connect 19 0 1 0;
#X connect 20 0 1 0;
#X connect 21 0 28 0;
#X connect 22 0 27 0;
#X connect 23 0 6 0;
#X connect 23 1 22 0;
#X connect 24 0 8 0;
#X connect 24 1 22 0;
#X connect 25 0 26 0;
#X connect 26 0 5 0;
#X connect 27 0 25 0;
#X connect 28 0 29 0;
#X connect 29 0 30 0;
#X connect 29 1 25 0;
#X connect 31 0 34 0;
#X connect 32 0 33 0;
#X connect 33 0 20 0;
#X connect 34 0 21 0;
#X coords 0 -1 1 1 185 43 1 26 22;
#X restore 10 347 pd meter;
#X symbolatom 494 330 10 0 0 0 - #0-preset #0-preset-set, f 10;
#X obj 200 21 vradio 15 0 1 8 empty \$0-mod-switch mod-switch 0 -8
0 10 #fcfcfc #000000 #000000 0;
#X text 220 35 velmod;
#X text 220 50 pmod;
#X text 220 65 gate;
#X text 220 81 gatemod;
#X text 220 96 swing;
#N canvas 741 34 489 738 init 0;
#X obj 70 20 loadbang;
#X obj 210 20 declare -path lib;
#X obj 121 250 f \$0;
#X obj 121 275 t f f;
#X msg 104 120 set default;
#X obj 104 145 s \$0-preset;
#X msg 121 300 \; \$1-hmin 0 \; \$1-hmax 100 \; \$1-hmod 0 \; \$1-pref
100 \; \$1-prefmod 0 \; \$1-smin 1 \; \$1-smax 7 \; \$1-smod 0 \; \$1-uniq
1 \; \$1-nmax 1 \; \$1-nmod 0 \; \$1-pitchtracker 0 \; \$1-pitchlo
0 \; \$1-pitchhi 0;
#X msg 274 300 \; \$1-tempo 100 \; \$1-meter 15 \; \$1-swing 0 \; \$1-mode
1 \; \$1-raptor 0 \; \$1-minvel 60 \; \$1-maxvel 120 \; \$1-velmod
100 \; \$1-pmin 30 \; \$1-pmax 100 \; \$1-pmod 0 \; \$1-gate 100 \;
\$1-gatemod 0 \; \$1-gain 64 \; \$1-pan 64 \; \$1-pgm 1 \; \$1-inchan
1 \; \$1-outchan 1 \; \$1-down -1 \; \$1-up 1 \; \$1-transp 0 \; \$1-loopsize
4;
#X obj 70 70 symbol \$1;
#X obj 70 45 t b b b b;
#X obj 70 95 s \$0-change-preset;
#X obj 87 195 s \$0-op;
#X text 140 70 preset recall on startup;
#X text 190 120 update the preset name shown initially in the symbol
box, f 30;
#X text 190 170 This is important. MIDI CCs are handled in the presets
\, but we don't want every preset to update the GUI \, just one of
them. "default" is supposed to always exist \, so use that one. (And
better don't remove it \, otherwise MIDI control will stop working.)
, f 46;
#X text 200 275 These are the factory defaults.;
#X msg 87 170 symbol default;
#X connect 0 0 9 0;
#X connect 2 0 3 0;
#X connect 3 0 6 0;
#X connect 3 1 7 0;
#X connect 4 0 5 0;
#X connect 8 0 10 0;
#X connect 9 0 8 0;
#X connect 9 1 16 0;
#X connect 9 2 4 0;
#X connect 9 3 2 0;
#X connect 16 0 11 0;
#X restore 290 330 pd init;
#N canvas 2945 29 884 743 arp 0;
#X floatatom 20 428 5 0 0 0 - - -, f 5;
#X floatatom 66 428 5 0 0 0 - - -, f 5;
#X obj 20 501 makenote 127 160;
#N canvas 725 185 465 508 gate 0;
#X obj 50 20 inlet;
#X obj 50 120 * 1;
#X floatatom 50 50 5 0 0 0 - - -, f 5;
#X obj 50 145 outlet;
#X obj 50 79 t f b;
#X obj 77 100 v \$0-ms;
#X connect 0 0 2 0;
#X connect 1 0 3 0;
#X connect 2 0 4 0;
#X connect 4 0 1 0;
#X connect 4 1 5 0;
#X connect 5 0 1 1;
#X restore 113 428 pd gate;
#X obj 20 400 unpack f f f;
#X obj 20 480 pipe;
#X obj 20 530 noteout;
#X obj 192 545 pgmout;
#X obj 230 515 t f f f b;
#X msg 281 545 0;
#X obj 281 570 ctlout 123;
#X text 20 340 - output -;
#X obj 48 150 change;
#X obj 280 23 notein;
#X obj 280 142 trace 300;
#X floatatom 331 120 5 0 0 0 - #0-trace -, f 5;
#X text 20 20 - input -;
#X obj 140 280 arpeggio 15;
#X obj 140 250 inlet;
#X obj 580 286 change;
#X floatatom 580 310 5 0 0 0 - - #0-n, f 5;
#X floatatom 400 266 5 0 0 0 - - -, f 5;
#X obj 400 464 spigot;
#X obj 470 438 tgl 15 0 empty empty empty 17 7 0 10 #fcfcfc #000000
#000000 0 1;
#X obj 400 489 spigot;
#X obj 276 340 tgl 15 1 empty empty empty 17 7 0 10 #fcfcfc #000000
#000000 1 1;
#X floatatom 400 341 5 0 0 0 - - -, f 5;
#X obj 400 390 expr rint($f1*60)+60;
#X floatatom 400 415 5 0 0 0 - - -, f 5;
#X obj 400 614 makenote 127 160, f 18;
#X obj 400 639 noteout 10;
#X obj 640 321 loadbang;
#X floatatom 640 371 5 0 0 0 - - -, f 5;
#X obj 540 391 expr $f1>$f2;
#X obj 400 316 expr ($f1+1)/$f2;
#X msg 640 346 0.4;
#X obj 230 340 bng 15 150 10 0 empty empty empty 17 7 0 10 #a0a0a0
#202020 #202020;
#X obj 550 336 expr $f1==1;
#X obj 400 365 t f f f;
#X obj 550 361 sel 1;
#X obj 202 340 hsl 20 15 0 1 0 0 empty empty empty -2 -8 0 10 #a0a0a0
#000000 #000000 0 1;
#X obj 690 371 sel 0;
#X obj 690 401 bng 15 250 50 0 empty empty empty 17 7 0 10 #fcfcfc
#000000 #000000;
#X obj 723 261 inlet;
#X msg 723 321 1;
#X obj 690 424 spigot;
#X obj 690 449 t b b;
#X msg 690 474 0;
#X msg 723 474 0;
#X obj 723 401 tgl 15 0 empty empty empty 17 7 0 10 #fcfcfc #000000
#000000 0 1;
#X msg 756 474 1;
#X obj 723 286 sel 0 1;
#X floatatom 600 501 5 0 0 0 - - -, f 5;
#X msg 600 525 color \$1 12 12;
#X msg 620 471 1;
#X msg 580 471 13;
#X obj 400 514 pipe;
#N canvas 50 147 465 594 swing 0;
#X text 30 10 experimental humanizer / swing feature;
#X floatatom 230 40 5 0 100 0 - #0-swing -, f 5;
#X floatatom 30 175 5 0 0 0 - - -, f 5;
#X obj 30 249 *;
#X floatatom 30 274 5 0 0 0 - - -, f 5;
#X obj 30 298 outlet;
#X obj 30 114 expr $f1/max(1 \, $f2-1);
#X obj 230 114 / 100;
#X obj 30 90 inlet;
#X obj 30 150 expr if($f3>=0 \, $f3*(1-$f1)*$f2 \, -$f3*$f1*$f2);
#X obj 230 64 t f f;
#X obj 230 89 abs;
#X obj 303 90 expr ($f1>0)-($f1<0);
#X obj 159 90 r \$0-n;
#X obj 57 224 v \$0-ms;
#X obj 30 199 t f b;
#X connect 1 0 10 0;
#X connect 2 0 15 0;
#X connect 3 0 4 0;
#X connect 4 0 5 0;
#X connect 6 0 9 0;
#X connect 7 0 9 1;
#X connect 8 0 6 0;
#X connect 9 0 2 0;
#X connect 10 0 11 0;
#X connect 10 1 12 0;
#X connect 11 0 7 0;
#X connect 12 0 9 2;
#X connect 13 0 6 1;
#X connect 14 0 3 1;
#X connect 15 0 3 0;
#X connect 15 1 14 0;
#X restore 460 464 pd swing;
#X obj 460 489 t f f;
#X obj 400 290 t f f f;
#X text 580 250 - time -;
#X text 100 220 - arpeggiator external -;
#X obj 130 370 hsl 32 15 0 600 0 1 \$0-trace empty trace -2 -8 0 10
#fcfcfc #000000 #000000 1550 1;
#X obj 171 370 bng 15 250 50 0 empty empty empty 17 7 0 10 #fcfcfc
#000000 #000000;
#X msg 171 430 300;
#X obj 20 45 r \$0-arp;
#X obj 20 107 s \$0-tempo;
#X obj 48 175 s \$0-swing;
#X obj 493 286 r \$0-n;
#X obj 690 499 s \$0-metro;
#X obj 760 350 r stop;
#X obj 760 375 t b b;
#X msg 760 410 set 0;
#X obj 760 435 s \$0-play;
#X obj 450 415 r \$0-master;
#X obj 400 439 spigot;
#X obj 180 250 r all-arp;
#N canvas 665 197 457 271 notefilter 0;
#X obj 30 30 inlet;
#X obj 30 85 pack f f;
#X obj 30 110 spigot;
#X obj 140 55 swap;
#X obj 140 110 route 0;
#X msg 140 135 1;
#X obj 90 85 tgl 15 0 empty empty empty 17 7 0 10 #fcfcfc #000000 #000000
0 1;
#X obj 179 135 ==;
#X obj 30 135 unpack f f;
#X obj 140 80 pack f f;
#X obj 30 180 outlet;
#X obj 87 180 outlet;
#X obj 190 30 r \$0-inch;
#X obj 30 55 unpack f f f;
#X connect 0 0 13 0;
#X connect 1 0 2 0;
#X connect 2 0 8 0;
#X connect 3 0 9 0;
#X connect 3 1 9 1;
#X connect 4 0 5 0;
#X connect 4 1 7 0;
#X connect 5 0 6 0;
#X connect 6 0 2 1;
#X connect 7 0 6 0;
#X connect 8 0 10 0;
#X connect 8 1 11 0;
#X connect 9 0 4 0;
#X connect 12 0 3 1;
#X connect 13 0 1 0;
#X connect 13 1 1 1;
#X connect 13 2 3 0;
#X restore 280 100 pd notefilter;
#X obj 268 595 ctlout 8;
#X obj 195 370 hsl 32 15 0 127 0 0 empty \$0-gain gain -2 -8 0 10 #fcfcfc
#000000 #000000 1562 1;
#X obj 400 589 t a b;
#X obj 505 589 v \$0-ms;
#X msg 195 430 gain \$1;
#X obj 195 455 s \$0-arp;
#X obj 163 150 s \$0-inch;
#X obj 70 250 r \$0-myarp;
#X obj 280 166 s \$0-myarp;
#X obj 611 75 s \$0-myarp;
#N canvas 165 250 455 432 harm-sweep 0;
#X text 20 10 harm-sweep messages - filtered out;
#X obj 20 40 inlet;
#X obj 20 65 route harm-from harm-to pref-from pref-to harm-time pref-time
harm-sweep pref-sweep part target;
#X obj 20 103 outlet;
#X connect 1 0 2 0;
#X connect 2 10 3 0;
#X restore 192 175 pd harm-sweep;
#X obj 20 590 r \$0-inch;
#X obj 202 390 tgl 15 1 empty empty bend 17 7 0 10 #fcfcfc #000000
#000000 1 1;
#X obj 245 390 tgl 15 1 empty empty touch 17 7 0 10 #fcfcfc #000000
#000000 0 1;
#X obj 20 640 bendout;
#X obj 80 640 touchout;
#X obj 106 107 s \$0-meter-base;
#X obj 210 590 tgl 15 0 empty empty mute 17 7 0 10 #fcfcfc #000000
#000000 0 1;
#X obj 210 613 == 0;
#X obj 150 613 && 1;
#X obj 100 613 && 1;
#X obj 20 374 spigot 1;
#X obj 590 100 r \$0-n;
#X obj 575 150 *;
#X floatatom 575 175 5 0 0 0 - - -, f 5;
#X obj 590 125 t b f;
#X msg 575 199 loopsize \$1;
#X text 530 20 - looper -;
#X obj 500 50 route loop loopsize;
#X obj 500 75 t f f;
#X obj 280 48 pack f f f;
#X obj 280 73 spigot 1;
#X obj 500 120 tgl 15 0 empty empty empty 17 7 0 10 #fcfcfc #000000
#000000 0 1;
#X msg 500 143 loop \$1;
#X obj 192 490 route pgm outchan pan mute;
#X obj 527 120 == 0;
#X obj 527 170 tgl 15 0 empty empty empty 17 7 0 10 #fcfcfc #000000
#000000 0 1;
#X obj 527 193 t f f;
#X obj 527 218 sel 0;
#X msg 527 243 panic;
#X obj 715 30 r \$0-n;
#X obj 700 60 /;
#X floatatom 700 85 5 0 0 0 - - -, f 5;
#X obj 700 109 t b f;
#X msg 737 130 set \$1;
#X obj 737 155 s \$0-loopsize;
#X msg 700 130 1;
#X obj 700 155 t f f;
#X msg 700 180 set \$1;
#X obj 700 205 s \$0-loop;
#X obj 192 130 s \$0-cch;
#X obj 400 55 sel 0;
#X obj 400 80 s \$0-loopstart;
#X obj 400 539 swap;
#X obj 400 564 pack 54 f;
#X obj 460 520 nbx 2 14 35 81 0 1 empty empty empty 0 -8 0 10 #fcfcfc
#000000 #000000 54 256 0;
#X floatatom 250 340 3 35 81 0 - - -, f 3;
#X obj 320 360 change;
#X obj 400 30 t f f;
#X obj 415 100 r \$0-n;
#X floatatom 440 50 5 0 0 0 - - -, f 5;
#X obj 400 130 div;
#X obj 400 180 change;
#X obj 400 205 s \$0-loopcounter;
#X obj 400 155 + 1;
#X obj 140 305 route list loopsize loopidx loop;
#X obj 340 330 tgl 15 0 \$0-loopcheck empty empty 17 7 0 10 #fcfcfc
#000000 #000000 1 1;
#X obj 20 70 route tempo swing meter meter-base transp inchan cchan
, f 34;
#X obj 236 370 bng 15 250 50 0 empty empty empty 17 7 0 10 #fcfcfc
#000000 #000000;
#X msg 236 430 64;
#X floatatom 259 370 5 0 0 2 - #0-transp -, f 5;
#X msg 259 430 transp \$1;
#X obj 20 452 +;
#X text 254 356 transp;
#X obj 130 390 hradio 15 0 1 3 empty empty thru 46 7 0 10 #fcfcfc #000000
#000000 0;
#X text 20 563 - thru -;
#X obj 20 615 thru;
#X obj 150 640 noteout;
#X obj 210 640 spigot;
#X obj 210 665 s \$0-transp;
#X obj 554 170 tgl 15 0 \$0-loop-playing empty empty 17 7 0 10 #fcfcfc
#000000 #000000 0 1;
#X obj 527 96 t f f;
#X obj 260 640 tgl 15 0 empty \$0-loop-playing empty 17 7 0 10 #fcfcfc
#000000 #000000 0 1;
#X connect 0 0 150 0;
#X connect 1 0 2 1;
#X connect 2 0 6 0;
#X connect 2 1 6 1;
#X connect 3 0 2 2;
#X connect 4 0 0 0;
#X connect 4 1 1 0;
#X connect 4 2 3 0;
#X connect 5 0 2 0;
#X connect 8 0 6 2;
#X connect 8 1 7 1;
#X connect 8 2 10 2;
#X connect 8 2 78 2;
#X connect 8 2 92 1;
#X connect 8 2 93 1;
#X connect 8 2 155 2;
#X connect 8 3 9 0;
#X connect 9 0 10 0;
#X connect 12 0 67 0;
#X connect 13 0 108 0;
#X connect 13 1 108 1;
#X connect 13 2 108 2;
#X connect 14 0 86 0;
#X connect 15 0 14 2;
#X connect 17 0 143 0;
#X connect 17 1 21 0;
#X connect 17 2 19 0;
#X connect 18 0 17 0;
#X connect 19 0 20 0;
#X connect 21 0 59 0;
#X connect 22 0 24 0;
#X connect 23 0 22 1;
#X connect 24 0 56 0;
#X connect 25 0 24 1;
#X connect 26 0 38 0;
#X connect 27 0 28 0;
#X connect 28 0 75 0;
#X connect 29 0 30 0;
#X connect 29 1 30 1;
#X connect 31 0 35 0;
#X connect 32 0 33 1;
#X connect 33 0 23 0;
#X connect 34 0 26 0;
#X connect 35 0 32 0;
#X connect 37 0 39 0;
#X connect 38 0 27 0;
#X connect 38 1 33 0;
#X connect 38 2 37 0;
#X connect 38 2 40 0;
#X connect 39 0 36 0;
#X connect 41 0 42 0;
#X connect 42 0 45 0;
#X connect 43 0 51 0;
#X connect 44 0 49 0;
#X connect 45 0 46 0;
#X connect 46 0 47 0;
#X connect 46 0 54 0;
#X connect 46 1 48 0;
#X connect 47 0 69 0;
#X connect 48 0 49 0;
#X connect 49 0 45 1;
#X connect 50 0 69 0;
#X connect 51 0 44 0;
#X connect 51 0 55 0;
#X connect 51 1 50 0;
#X connect 52 0 53 0;
#X connect 53 0 36 0;
#X connect 54 0 52 0;
#X connect 55 0 52 0;
#X connect 56 0 131 0;
#X connect 57 0 58 0;
#X connect 58 0 56 1;
#X connect 58 1 5 1;
#X connect 59 0 34 0;
#X connect 59 1 57 0;
#X connect 59 2 41 0;
#X connect 63 0 64 0;
#X connect 64 0 62 0;
#X connect 65 0 145 0;
#X connect 68 0 34 1;
#X connect 70 0 71 0;
#X connect 71 0 46 0;
#X connect 71 1 72 0;
#X connect 72 0 73 0;
#X connect 74 0 75 1;
#X connect 75 0 22 0;
#X connect 76 0 17 0;
#X connect 77 0 14 0;
#X connect 77 1 14 1;
#X connect 79 0 82 0;
#X connect 80 0 29 0;
#X connect 80 1 81 0;
#X connect 81 0 29 2;
#X connect 82 0 83 0;
#X connect 85 0 17 0;
#X connect 88 0 112 0;
#X connect 89 0 154 0;
#X connect 90 0 98 0;
#X connect 91 0 97 0;
#X connect 95 0 96 0;
#X connect 96 0 97 1;
#X connect 96 0 98 1;
#X connect 96 0 99 1;
#X connect 97 0 154 2;
#X connect 98 0 154 1;
#X connect 99 0 4 0;
#X connect 100 0 103 0;
#X connect 101 0 102 0;
#X connect 102 0 104 0;
#X connect 103 0 101 0;
#X connect 103 1 101 1;
#X connect 104 0 87 0;
#X connect 106 0 107 0;
#X connect 106 1 101 0;
#X connect 106 2 87 0;
#X connect 107 0 110 0;
#X connect 107 1 159 0;
#X connect 108 0 109 0;
#X connect 109 0 77 0;
#X connect 110 0 111 0;
#X connect 111 0 87 0;
#X connect 112 0 7 0;
#X connect 112 1 8 0;
#X connect 112 2 78 0;
#X connect 112 3 95 0;
#X connect 112 4 106 0;
#X connect 113 0 114 0;
#X connect 114 0 115 0;
#X connect 115 0 116 0;
#X connect 115 1 109 1;
#X connect 116 0 117 0;
#X connect 117 0 87 0;
#X connect 118 0 119 1;
#X connect 119 0 120 0;
#X connect 120 0 121 0;
#X connect 121 0 124 0;
#X connect 121 1 122 0;
#X connect 122 0 123 0;
#X connect 124 0 125 0;
#X connect 125 0 126 0;
#X connect 125 1 159 0;
#X connect 126 0 127 0;
#X connect 129 0 130 0;
#X connect 131 0 132 0;
#X connect 131 1 132 1;
#X connect 132 0 80 0;
#X connect 133 0 131 1;
#X connect 133 0 134 0;
#X connect 134 0 135 0;
#X connect 135 0 133 0;
#X connect 136 0 129 0;
#X connect 136 1 138 0;
#X connect 137 0 139 1;
#X connect 138 0 139 0;
#X connect 139 0 142 0;
#X connect 140 0 141 0;
#X connect 142 0 140 0;
#X connect 143 0 99 0;
#X connect 143 1 119 0;
#X connect 143 2 136 0;
#X connect 143 3 144 0;
#X connect 145 0 66 0;
#X connect 145 1 12 0;
#X connect 145 2 17 1;
#X connect 145 3 94 0;
#X connect 145 4 150 1;
#X connect 145 5 84 0;
#X connect 145 6 128 0;
#X connect 145 7 88 0;
#X connect 146 0 147 0;
#X connect 147 0 79 0;
#X connect 148 0 149 0;
#X connect 149 0 83 0;
#X connect 150 0 5 0;
#X connect 152 0 154 3;
#X connect 154 0 92 0;
#X connect 154 1 93 0;
#X connect 154 2 155 0;
#X connect 154 3 156 0;
#X connect 156 0 157 0;
#X connect 159 0 113 0;
#X connect 159 1 158 0;
#X connect 160 0 156 1;
#X coords 0 -1 1 1 167 71 1 127 337;
#X restore 10 93 pd arp;
#N canvas 701 29 573 743 control 0;
#X obj 380 115 sel 0;
#X obj 380 140 bng 15 250 50 0 empty empty empty 17 7 0 10 #fcfcfc
#000000 #000000;
#X floatatom 30 210 5 0 0 0 down - #0-down, f 5;
#X floatatom 100 210 5 0 0 0 up - #0-up, f 5;
#X floatatom 290 213 5 0 0 0 mod-val - #0-mod-val, f 5;
#X obj 320 115 == 0;
#X obj 250 140 tgl 15 0 empty empty empty 17 7 0 10 #fcfcfc #000000
#000000 0 1;
#X obj 320 140 tgl 15 0 empty empty empty 17 7 0 10 #fcfcfc #000000
#000000 0 1;
#X obj 290 188 * 100;
#X obj 331 188 int;
#X obj 22 467 swap;
#X obj 22 492 pack f f;
#X floatatom 55 542 5 0 0 1 gate - #0-gate, f 5;
#X floatatom 38 587 5 0 0 1 pmod - #0-pmod, f 5;
#X obj 142 442 inlet;
#X obj 250 115 != 0;
#X obj 38 562 expr $f1-100;
#X obj 438 455 tgl 15 0 empty empty empty 17 7 0 10 #fcfcfc #000000
#000000 0 1;
#X obj 438 433 != 0;
#X floatatom 142 467 5 0 0 0 - - -, f 5;
#X floatatom 240 612 5 0 0 1 velmod - #0-velmod, f 5;
#X obj 22 612 expr if($f1>=100 \, 200-$f1 \, $f1-100);
#X floatatom 120 587 5 0 0 1 gatemod - #0-gatemod, f 5;
#X obj 120 562 expr $f1-100;
#X floatatom 219 587 5 0 0 1 swing - #0-swing, f 5;
#X obj 219 534 expr $f1-100;
#X obj 219 562 * 0.25;
#X floatatom 252 502 5 0 1 0 - - -, f 5;
#X text 310 470 adjust the swing factor to your liking, f 14;
#N canvas 662 242 458 432 swing 0;
#X obj 20 20 r arp;
#X obj 20 41 route swing;
#X obj 20 104 change;
#X obj 20 125 / 100;
#X obj 20 146 outlet;
#X obj 20 62 sel 0;
#X obj 20 83 abs;
#X connect 0 0 1 0;
#X connect 1 0 5 0;
#X connect 2 0 3 0;
#X connect 3 0 4 0;
#X connect 5 1 6 0;
#X connect 6 0 2 0;
#X restore 252 472 pd swing;
#X obj 380 165 s \$0-play;
#X obj 230 390 s \$0-mode;
#X obj 438 475 s \$0-hold;
#N canvas 825 257 455 515 mod 0;
#X obj 40 20 inlet;
#X obj 217 20 inlet;
#X obj 40 70 outlet;
#X obj 40 45 expr if($f2==0 \, 2-$f1 \, $f1);
#X connect 0 0 3 0;
#X connect 1 0 3 1;
#X connect 3 0 2 0;
#X restore 320 163 pd mod;
#X text 225 163 mod shift -->;
#X text 440 140 play/stop;
#X text 12 12 NOTE: This control setup is for the Nektar PACER \, if
you use a different MIDI controller \, you'll have to change the controls
below accordingly. A suitably modified Pacer setup (.syx file) for
this patch is included in the distribution!, f 80;
#X text 60 420 mod switcher - see R2MOD above;
#X obj 32 340 tgl 15 0 empty empty empty 17 7 0 10 #fcfcfc #000000
#000000 0 1;
#X obj 32 363 s \$0-raptor;
#X text 430 391 CC64 - HOLD;
#X floatatom 380 259 5 0 0 0 - - -, f 5;
#X obj 380 234 expr 1-$f1/127;
#X obj 331 213 change;
#X obj 30 90 ctrl 91;
#X obj 100 90 ctrl 92;
#X obj 180 90 ctrl 93;
#X obj 250 90 ctrl 94;
#X obj 320 90 ctrl 80;
#X obj 438 411 ctrl 64;
#X obj 450 90 r \$0-master;
#X obj 450 115 spigot;
#X obj 380 90 ctlin 81;
#N canvas 200 315 450 353 sweep 0;
#X obj 20 20 inlet;
#X obj 100 20 inlet;
#X obj 20 100 swap;
#X obj 20 125 pack f f;
#X obj 20 75 - 100;
#X obj 20 150 route 0 1;
#X obj 20 175 expr 100-$f1;
#X floatatom 20 200 5 0 0 0 - - -, f 5;
#X obj 110 175 abs;
#X obj 20 224 outlet;
#X connect 0 0 4 0;
#X connect 1 0 2 1;
#X connect 2 0 3 0;
#X connect 2 1 3 1;
#X connect 3 0 5 0;
#X connect 4 0 2 0;
#X connect 5 0 6 0;
#X connect 5 1 8 0;
#X connect 6 0 7 0;
#X connect 7 0 9 0;
#X connect 8 0 7 0;
#X restore 300 534 pd sweep;
#X obj 300 562 / 100;
#X floatatom 300 587 5 0 0 1 sweep - #0-sweep-val, f 5;
#X obj 360 534 sel 0 200;
#X obj 360 559 bng 15 250 50 0 \$0-sweep empty autosweep 17 7 0 10
#fcfcfc #000000 #000000;
#X text 390 190 modwheel/pedal support;
#X obj 380 213 ctrl 1;
#X obj 438 213 ctrl 11;
#X obj 438 565 tgl 15 0 empty empty empty 17 7 0 10 #fcfcfc #000000
#000000 0 1;
#X obj 438 543 != 0;
#X text 430 501 CC67 - MUTE;
#X obj 438 521 ctrl 67;
#X obj 438 585 s \$0-mute;
#X obj 32 290 ctrl 46;
#X obj 112 290 ctrl 47;
#X text 20 650 NOTE: To make CC64 (hold) and CC67 (mute) work \, you
need to have a foot pedals hooked up to Pd in some way (the custom
PACER setup has them on FS1+2)., f 79;
#X obj 22 517 route 1 2 3 4 5 6 7;
#X obj 22 445 r \$0-mod-val;
#X obj 180 115 mod 8;
#X floatatom 180 210 5 0 0 2 mod-switch - #0-mod-switch, f 5;
#X obj 32 315 != 0;
#X obj 112 315 mod 6;
#X floatatom 112 340 5 0 0 0 - - -, f 5;
#X obj 172 315 mod 6;
#X floatatom 172 340 5 0 0 0 - - -, f 5;
#X obj 172 290 ctrl 48;
#X obj 172 364 t b f;
#X floatatom 230 364 5 0 0 0 - - -, f 5;
#X obj 112 364 -;
#X obj 230 340 mod 6;
#X floatatom 230 315 5 0 0 0 - - -, f 5;
#X text 110 260 R3ARP: arp mode special functions;
#X text 110 67 R2MOD: octave \, mod \, start/stop;
#X obj 282 290 ctrl 49;
#X obj 282 363 s \$0-loop;
#X obj 342 290 ctrl 50;
#X obj 342 315 sel 0;
#X obj 342 340 bng 15 250 50 0 empty empty empty 17 7 0 10 #fcfcfc
#000000 #000000;
#X obj 342 363 s \$0-loop-file;
#X obj 282 315 sel 0;
#X obj 282 340 bng 15 250 50 0 empty empty empty 17 7 0 10 #fcfcfc
#000000 #000000;
#X obj 438 273 r \$0-cch;
#X obj 438 73 r \$0-cch;
#X floatatom 480 320 3 0 128 0 cin #0-cchan -, f 3;
#X obj 504 321 tgl 15 1 empty empty empty 17 7 0 10 #fcfcfc #000000
#000000 1 1;
#N canvas 247 207 451 326 cchan 0;
#X obj 20 20 inlet;
#X obj 20 45 change;
#X obj 20 70 nbx 5 14 -1e+37 1e+37 0 1 empty empty empty 0 -8 0 10
#fcfcfc #000000 #000000 0 256 0;
#X obj 20 142 expr if($f2 \, $f1 \, -1);
#X floatatom 20 167 5 0 0 0 - - -, f 5;
#X obj 20 216 s \$0-arp;
#X obj 100 20 inlet;
#X obj 100 45 t b f;
#X obj 20 92 t f f;
#X obj 20 117 f;
#X obj 60 117 s \$0-cchan;
#X msg 20 191 cchan \$1;
#X connect 0 0 1 0;
#X connect 1 0 2 0;
#X connect 2 0 8 0;
#X connect 3 0 4 0;
#X connect 4 0 11 0;
#X connect 6 0 7 0;
#X connect 7 0 9 0;
#X connect 7 1 3 1;
#X connect 8 0 9 0;
#X connect 8 1 10 0;
#X connect 9 0 3 0;
#X connect 11 0 5 0;
#X restore 459 344 pd cchan;
#X obj 30 115 expr 2-($f1+2)%5;
#X obj 100 135 expr ($f1+2)%5-2;
#X connect 0 1 1 0;
#X connect 1 0 30 0;
#X connect 5 0 7 0;
#X connect 6 0 33 1;
#X connect 6 0 53 1;
#X connect 7 0 33 0;
#X connect 8 0 9 0;
#X connect 9 0 43 0;
#X connect 10 0 11 0;
#X connect 10 1 11 1;
#X connect 11 0 69 0;
#X connect 14 0 19 0;
#X connect 15 0 6 0;
#X connect 16 0 13 0;
#X connect 17 0 32 0;
#X connect 18 0 17 0;
#X connect 19 0 10 1;
#X connect 21 0 20 0;
#X connect 23 0 22 0;
#X connect 25 0 26 0;
#X connect 26 0 24 0;
#X connect 27 0 26 1;
#X connect 29 0 27 0;
#X connect 33 0 8 0;
#X connect 38 0 39 0;
#X connect 42 0 41 0;
#X connect 42 0 33 0;
#X connect 43 0 4 0;
#X connect 44 0 99 0;
#X connect 45 0 100 0;
#X connect 46 0 71 0;
#X connect 47 0 15 0;
#X connect 48 0 5 0;
#X connect 49 0 18 0;
#X connect 50 0 51 1;
#X connect 51 0 0 0;
#X connect 52 0 51 0;
#X connect 53 0 54 0;
#X connect 54 0 55 0;
#X connect 56 0 57 0;
#X connect 56 1 57 0;
#X connect 59 0 42 0;
#X connect 60 0 42 0;
#X connect 61 0 65 0;
#X connect 62 0 61 0;
#X connect 64 0 62 0;
#X connect 66 0 73 0;
#X connect 67 0 74 0;
#X connect 69 0 21 0;
#X connect 69 1 16 0;
#X connect 69 2 12 0;
#X connect 69 3 23 0;
#X connect 69 4 25 0;
#X connect 69 5 53 0;
#X connect 69 6 56 0;
#X connect 70 0 10 0;
#X connect 71 0 72 0;
#X connect 73 0 38 0;
#X connect 74 0 75 0;
#X connect 75 0 81 0;
#X connect 76 0 77 0;
#X connect 77 0 79 0;
#X connect 78 0 76 0;
#X connect 79 0 81 0;
#X connect 79 1 81 1;
#X connect 80 0 31 0;
#X connect 81 0 83 0;
#X connect 82 0 80 0;
#X connect 83 0 82 0;
#X connect 86 0 92 0;
#X connect 88 0 89 0;
#X connect 89 1 90 0;
#X connect 90 0 91 0;
#X connect 92 1 93 0;
#X connect 93 0 87 0;
#X connect 94 0 49 0;
#X connect 94 0 64 0;
#X connect 94 0 66 0;
#X connect 94 0 67 0;
#X connect 94 0 86 0;
#X connect 94 0 88 0;
#X connect 95 0 48 0;
#X connect 95 0 47 0;
#X connect 95 0 46 0;
#X connect 95 0 45 0;
#X connect 95 0 44 0;
#X connect 95 0 59 0;
#X connect 95 0 60 0;
#X connect 96 0 98 0;
#X connect 97 0 98 1;
#X connect 99 0 2 0;
#X connect 100 0 3 0;
#X coords 0 -1 1 1 66 34 1 456 304;
#X restore 200 151 pd control;
#N canvas 710 29 550 743 panel 0;
#X obj 27 31 cnv 15 70 161 empty empty empty 20 12 0 14 #e0e0e0 #404040
0;
#X obj 27 197 cnv 15 70 113 empty empty empty 20 12 0 14 #e0e0e0 #404040
0;
#X floatatom 107 51 6 0 127 2 minvel #0-minvel -, f 6;
#X msg 107 361 minvel \$1;
#X floatatom 152 51 6 0 127 2 maxvel #0-maxvel -, f 6;
#X msg 152 361 maxvel \$1;
#X obj 202 53 hsl 64 15 -100 100 0 0 empty \$0-velmod velmod -3 -12
0 10 #fcfcfc #000000 #000000 6300 1;
#X msg 202 361 velmod \$1;
#X msg 310 53 100;
#X obj 274 53 bng 15 250 50 0 empty empty empty 17 7 0 10 #fcfcfc #000000
#000000;
#X obj 202 87 hsl 64 15 -100 100 0 0 empty \$0-pmod pmod -3 -12 0 10
#fcfcfc #000000 #000000 3150 1;
#X msg 310 87 0;
#X floatatom 105 87 6 0 100 2 pmin #0-pmin -, f 6;
#X floatatom 152 87 6 0 100 2 pmax #0-pmax -, f 6;
#X msg 107 390 pmin \$1;
#X msg 153 390 pmax \$1;
#X msg 202 390 pmod \$1;
#X obj 274 87 bng 15 250 50 0 empty empty empty 17 7 0 10 #fcfcfc #000000
#000000;
#X obj 105 121 hsl 64 15 0 200 0 0 empty \$0-gate gate -1 -12 0 10
#fcfcfc #000000 #000000 3150 1;
#X msg 310 121 100;
#X msg 105 420 gate \$1;
#X obj 202 121 hsl 64 15 -100 100 0 0 empty \$0-gatemod gatemod -2
-12 0 10 #fcfcfc #000000 #000000 3150 1;
#X msg 350 121 0;
#X msg 202 420 gatemod \$1;
#X obj 274 121 bng 15 250 50 0 empty empty empty 17 7 0 10 #fcfcfc
#000000 #000000;
#X obj 177 121 bng 15 250 50 0 empty empty empty 17 7 0 10 #fcfcfc
#000000 #000000;
#X obj 274 20 tgl 15 0 empty \$0-hold H -10 6 0 10 #3cc840 #000000
#000000 0 1;
#X msg 278 361 hold \$1;
#X floatatom 201 19 4 1 128 0 pgm #0-pgm -, f 4;
#X msg 201 610 pgm \$1;
#X floatatom 105 190 4 -100 100 2 swing #0-swing -, f 4;
#X msg 105 330 swing \$1;
#X obj 202 155 hsl 64 15 -100 100 0 0 empty \$0-hmod hmod -3 -12 0
10 #fcfcfc #000000 #000000 3150 1;
#X msg 310 155 0;
#X floatatom 105 155 6 0 100 2 hmin #0-hmin -, f 6;
#X floatatom 152 155 6 0 100 2 hmax #0-hmax -, f 6;
#X obj 274 155 bng 15 250 50 0 empty empty empty 17 7 0 10 #fcfcfc
#000000 #000000;
#X obj 202 190 hsl 64 15 -100 100 0 0 empty \$0-prefmod prefmod -3
-12 0 10 #fcfcfc #000000 #000000 3150 1;
#X msg 310 190 0;
#X floatatom 152 190 6 -100 100 2 pref #0-pref -, f 6;
#X obj 274 190 bng 15 250 50 0 empty empty empty 17 7 0 10 #fcfcfc
#000000 #000000;
#X obj 202 225 hsl 64 15 -100 100 0 0 empty \$0-smod smod -3 -12 0
10 #fcfcfc #000000 #000000 3150 1;
#X msg 310 225 0;
#X floatatom 105 225 6 -127 127 2 smin #0-smin -, f 6;
#X floatatom 152 225 6 -127 127 2 smax #0-smax -, f 6;
#X obj 274 225 bng 15 250 50 0 empty empty empty 17 7 0 10 #fcfcfc
#000000 #000000;
#X obj 202 260 hsl 64 15 -100 100 0 0 empty \$0-nmod nmod -3 -12 0
10 #fcfcfc #000000 #000000 3150 1;
#X msg 310 260 0;
#X floatatom 152 260 6 0 10 2 nmax #0-nmax -, f 6;
#X obj 274 260 bng 15 250 50 0 empty empty empty 17 7 0 10 #fcfcfc
#000000 #000000;
#X obj 105 260 tgl 15 0 empty \$0-uniq uniq -1 -10 0 10 #fcfcfc #000000
#000000 1 1;
#X msg 105 450 hmin \$1;
#X msg 152 450 hmax \$1;
#X msg 202 450 hmod \$1;
#X msg 152 480 pref \$1;
#X msg 202 480 prefmod \$1;
#X msg 105 510 smin \$1;
#X msg 152 510 smax \$1;
#X msg 202 510 smod \$1;
#X msg 105 540 uniq \$1;
#X msg 152 540 nmax \$1;
#X msg 202 540 nmod \$1;
#X obj 30 44 vradio 15 0 0 5 empty \$0-downval dn 0 -8 0 10 #fcfcfc
#000000 #000000 3;
#X obj 50 44 vradio 15 0 0 5 empty \$0-upval up 0 -8 0 10 #fcfcfc #000000
#000000 1;
#N canvas 525 202 590 329 octave 0;
#X obj 20 20 inlet;
#X obj 20 100 t b f;
#X obj 20 150 min;
#X obj 20 175 change;
#X obj 300 20 inlet;
#X obj 300 100 t b f;
#X obj 300 175 change;
#X obj 300 150 max;
#X floatatom 80 175 5 0 0 0 - - -, f 5;
#X floatatom 370 175 5 0 0 0 - - -, f 5;
#X obj 20 45 t f f f;
#X obj 300 45 t f f f;
#X msg 90 125 down \$1;
#X msg 390 125 up \$1;
#X obj 39 70 v \$0-downval;
#X obj 120 70 s \$0-downval;
#X obj 120 20 r \$0-down;
#X obj 20 125 v \$0-upval;
#X obj 20 200 s \$0-upval;
#X obj 190 200 s \$0-arp;
#X obj 319 70 v \$0-upval;
#X obj 390 70 s \$0-upval;
#X obj 390 20 r \$0-up;
#X obj 300 125 v \$0-downval;
#X obj 300 200 s \$0-downval;
#X obj 120 45 expr max(0 \, min(4 \, 2-$f1));
#X obj 390 45 expr max(0 \, min(4 \, 2-$f1));
#X obj 90 100 expr 2-$f1;
#X obj 390 100 expr 2-$f1;
#X connect 0 0 10 0;
#X connect 1 0 17 0;
#X connect 1 1 2 1;
#X connect 2 0 3 0;
#X connect 2 0 8 0;
#X connect 3 0 18 0;
#X connect 4 0 11 0;
#X connect 5 0 23 0;
#X connect 5 1 7 1;
#X connect 6 0 24 0;
#X connect 7 0 6 0;
#X connect 7 0 9 0;
#X connect 10 0 1 0;
#X connect 10 1 14 0;
#X connect 10 2 27 0;
#X connect 11 0 5 0;
#X connect 11 1 20 0;
#X connect 11 2 28 0;
#X connect 12 0 19 0;
#X connect 13 0 19 0;
#X connect 16 0 25 0;
#X connect 17 0 2 0;
#X connect 22 0 26 0;
#X connect 23 0 7 0;
#X connect 25 0 15 0;
#X connect 26 0 21 0;
#X connect 27 0 12 0;
#X connect 28 0 13 0;
#X restore 30 360 pd octave;
#X text 70 45 +2;
#X text 70 60 +1;
#X text 76 77 0;
#X text 70 90 -1;
#X text 70 105 -2;
#X obj 30 219 vradio 15 0 0 6 empty \$0-mode empty 0 -8 0 10 #fcfcfc
#000000 #000000 1;
#X text 50 232 up;
#X text 50 247 down;
#X text 50 262 up-down;
#X text 50 277 down-up;
#X text 50 217 random;
#N canvas 740 245 455 434 mode 0;
#X obj 30 20 inlet;
#X obj 90 20 inlet;
#X msg 30 42 mode \$1;
#X obj 90 46 != 0;
#X msg 90 71 raptor \$1;
#X obj 30 100 s \$0-arp;
#X connect 0 0 2 0;
#X connect 1 0 3 0;
#X connect 2 0 5 0;
#X connect 3 0 4 0;
#X connect 4 0 5 0;
#X restore 30 390 pd mode;
#X floatatom 152 19 3 0 128 0 out #0-outchan -, f 3;
#X obj 360 490 s \$0-arp;
#X msg 152 580 outchan \$1;
#X floatatom 107 19 3 0 128 0 in #0-inchan -, f 3;
#X msg 107 610 inchan \$1;
#X text 50 293 outside-in;
#X obj 30 201 tgl 15 0 empty \$0-raptor raptor 20 6 0 10 #fcfcfc #000000
#000000 0 1;
#X obj 202 294 hsl 64 15 0 127 0 0 empty \$0-pan pan -3 -12 0 10 #fcfcfc
#000000 #000000 3175 1;
#X obj 274 294 bng 15 250 50 0 empty empty empty 17 7 0 10 #fcfcfc
#000000 #000000;
#X msg 310 294 64;
#X msg 202 330 pan \$1;
#X obj 390 120 r all-hmin;
#X obj 390 145 s \$0-hmin;
#X obj 390 180 r all-pref;
#X obj 390 210 s \$0-pref;
#X obj 245 20 tgl 15 0 empty \$0-mute M -10 6 0 10 #e8dc1c #000000
#000000 0 1;
#X msg 245 330 mute \$1;
#X floatatom 152 294 6 0 16 2 loop #0-loopsize -, f 6;
#X obj 128 294 tgl 15 0 empty \$0-loop empty -1 -10 0 10 #fcfcfc #000000
#000000 0 1;
#X msg 152 640 loopsize \$1;
#X msg 128 680 loop \$1;
#X floatatom 76 174 3 -36 36 2 - #0-pitchlo -, f 3;
#X floatatom 76 144 3 -36 36 2 - #0-pitchhi -, f 3;
#X obj 30 129 vradio 15 0 0 4 empty \$0-pitchtracker empty 0 -8 0 10
#fcfcfc #000000 #000000 0;
#X text 48 128 off;
#X text 48 143 on;
#X text 48 158 trbl;
#X text 48 175 bass;
#X msg 30 570 pitchtracker \$1;
#X msg 76 640 pitchhi \$1;
#X msg 76 660 pitchlo \$1;
#X text 75 128 hi;
#X text 75 158 lo;
#X connect 2 0 3 0;
#X connect 3 0 78 0;
#X connect 4 0 5 0;
#X connect 5 0 78 0;
#X connect 6 0 7 0;
#X connect 7 0 78 0;
#X connect 8 0 6 0;
#X connect 9 0 8 0;
#X connect 10 0 16 0;
#X connect 11 0 10 0;
#X connect 12 0 14 0;
#X connect 13 0 15 0;
#X connect 14 0 78 0;
#X connect 15 0 78 0;
#X connect 16 0 78 0;
#X connect 17 0 11 0;
#X connect 18 0 20 0;
#X connect 19 0 18 0;
#X connect 20 0 78 0;
#X connect 21 0 23 0;
#X connect 22 0 21 0;
#X connect 23 0 78 0;
#X connect 24 0 22 0;
#X connect 25 0 19 0;
#X connect 26 0 27 0;
#X connect 27 0 78 0;
#X connect 28 0 29 0;
#X connect 29 0 78 0;
#X connect 30 0 31 0;
#X connect 31 0 78 0;
#X connect 32 0 53 0;
#X connect 33 0 32 0;
#X connect 34 0 51 0;
#X connect 35 0 52 0;
#X connect 36 0 33 0;
#X connect 37 0 55 0;
#X connect 38 0 37 0;
#X connect 39 0 54 0;
#X connect 40 0 38 0;
#X connect 41 0 58 0;
#X connect 42 0 41 0;
#X connect 43 0 56 0;
#X connect 44 0 57 0;
#X connect 45 0 42 0;
#X connect 46 0 61 0;
#X connect 47 0 46 0;
#X connect 48 0 60 0;
#X connect 49 0 47 0;
#X connect 50 0 59 0;
#X connect 51 0 78 0;
#X connect 52 0 78 0;
#X connect 53 0 78 0;
#X connect 54 0 78 0;
#X connect 55 0 78 0;
#X connect 56 0 78 0;
#X connect 57 0 78 0;
#X connect 58 0 78 0;
#X connect 59 0 78 0;
#X connect 60 0 78 0;
#X connect 61 0 78 0;
#X connect 62 0 64 0;
#X connect 63 0 64 1;
#X connect 70 0 76 0;
#X connect 77 0 79 0;
#X connect 79 0 78 0;
#X connect 80 0 81 0;
#X connect 81 0 78 0;
#X connect 83 0 76 1;
#X connect 84 0 87 0;
#X connect 85 0 86 0;
#X connect 86 0 84 0;
#X connect 87 0 78 0;
#X connect 88 0 89 0;
#X connect 90 0 91 0;
#X connect 92 0 93 0;
#X connect 93 0 78 0;
#X connect 94 0 96 0;
#X connect 95 0 97 0;
#X connect 96 0 78 0;
#X connect 97 0 78 0;
#X connect 98 0 107 0;
#X connect 99 0 106 0;
#X connect 100 0 105 0;
#X connect 105 0 78 0;
#X connect 106 0 78 0;
#X connect 107 0 78 0;
#X coords 0 -1 1 1 267 299 1 25 15;
#X restore 290 20 pd panel;
#X obj 290 350 p \$0 default 1;
#X obj 290 375 p \$0 triplet 2;
#X obj 290 400 p \$0 weirdmod 3;
#X obj 290 425 p \$0 bla 4;
#X obj 290 450 p \$0 raptor 5;
#X obj 290 475 p \$0 tr808 6;
#N canvas 260 54 505 718 time 0;
#X obj 350 155 inlet;
#X obj 230 20 tgl 15 1 empty \$0-master-toggle M 17 7 0 10 #fcfcfc
#000000 #000000 1 1;
#X obj 40 143 bng 15 50 10 0 pulse empty empty 17 7 0 10 #fcfcfc #000000
#000000;
#X obj 210 20 tgl 15 0 empty \$0-metro empty 17 7 0 10 #fcfcfc #000000
#000000 0 1;
#X obj 40 122 metro 160;
#X obj 170 120 != 0;
#X obj 260 120 == 0;
#X obj 170 145 s \$0-master;
#X obj 260 145 s \$0-slave;
#X obj 40 200 r \$0-master;
#X obj 170 200 r \$0-slave;
#X text 40 170 - master -;
#X text 170 170 - slave -;
#X obj 230 255 sel \$0;
#X msg 263 280 0;
#X obj 40 36 spigot;
#X obj 282 20 bng 15 100 10 0 empty pulse empty 17 7 0 10 #fcfcfc #202020
#202020;
#X obj 350 230 outlet;
#X obj 170 255 spigot;
#X msg 170 280 1;
#X obj 400 260 s \$0-me;
#X obj 170 230 r \$0-me;
#X obj 282 43 outlet;
#X obj 230 230 r all-master;
#X obj 350 120 s stop;
#X obj 170 310 s \$0-master-toggle;
#X obj 170 70 change -1;
#X obj 40 310 s all-master;
#X obj 40 260 sel 1;
#X obj 40 285 f \$0;
#X obj 240 430 sel 1;
#X obj 170 90 t f f b;
#X obj 350 205 t f f f b;
#X msg 370 340 set \$1;
#X obj 370 365 s \$0-play;
#X obj 91 100 r \$0-tick;
#X obj 40 365 midiclock;
#X obj 40 230 t f f f;
#X obj 65 390 s \$0-ms;
#X obj 40 390 bng 15 100 50 0 pulse empty empty 17 7 0 10 #fcfcfc #000000
#000000;
#X obj 120 390 tgl 15 0 empty empty empty 17 7 0 10 #fcfcfc #000000
#000000 0 1;
#X floatatom 140 497 5 0 0 0 - - -, f 5;
#X msg 140 521 color \$1 12 12;
#X msg 120 467 13;
#X obj 120 440 sel 1 0;
#X obj 140 546 s pulse;
#X msg 160 467 0;
#X obj 350 180 spigot 1;
#X obj 40 81 spigot 1;
#X obj 190 440 == 0;
#X obj 40 340 r \$0-m;
#X obj 90 340 r \$0-n;
#X floatatom 185 19 3 -24 24 0 - #0-pos -, f 3;
#X obj 240 457 bng 15 250 50 0 empty empty empty 17 7 0 10 #fcfcfc
#000000 #000000;
#X obj 240 480 spigot;
#X obj 273 457 tgl 15 1 empty empty empty 17 7 0 10 #fcfcfc #000000
#000000 1 1;
#X text 170 340 SPP - set the pulse number;
#X obj 240 505 s \$0-pos;
#X obj 185 380 mod 15;
#X obj 185 401 s all-arp;
#X obj 218 358 r \$0-n;
#X obj 120 413 t f f f;
#X text 300 420 just leave this enabled \, in case your DAW doesn't
send SPP messages - it simply resends the pulse counter before starting
playback \, so it shouldn't do any harm even if your DAW *does* support
SPP, f 30;
#X obj 256 20 tgl 15 1 empty \$0-clkin S 17 7 0 10 #fcfcfc #000000
#000000 1 1;
#X obj 90 260 &&;
#X obj 100 230 t b f;
#N canvas 730 184 451 326 setup 0;
#X obj 260 20 r query-master;
#X obj 260 45 spigot;
#X obj 260 70 f \$0;
#X obj 260 95 s reply-master;
#X obj 360 20 inlet;
#X obj 40 20 inlet;
#X obj 40 45 pack f f;
#X msg 40 70 \$2 \$1;
#X obj 85 20 tgl 15 0 empty empty empty 17 7 0 10 #fcfcfc #000000 #000000
1 1;
#X obj 40 210 outlet;
#X obj 40 95 route 0 1;
#X obj 40 120 t f b b;
#X obj 59 150 s query-master;
#X obj 260 155 sel \$0;
#X msg 293 180 0;
#X obj 260 130 r reply-master;
#X obj 40 180 spigot 1;
#X obj 293 205 t f f;
#X obj 293 230 s \$0-master-toggle;
#X connect 0 0 1 0;
#X connect 1 0 2 0;
#X connect 2 0 3 0;
#X connect 4 0 1 1;
#X connect 5 0 6 0;
#X connect 6 0 7 0;
#X connect 7 0 10 0;
#X connect 8 0 6 1;
#X connect 10 0 11 0;
#X connect 10 1 9 0;
#X connect 11 0 16 0;
#X connect 11 1 12 0;
#X connect 11 2 8 0;
#X connect 13 1 14 0;
#X connect 14 0 17 0;
#X connect 15 0 13 0;
#X connect 16 0 9 0;
#X connect 17 0 18 0;
#X connect 17 1 16 1;
#X restore 170 50 pd setup;
#X connect 0 0 47 0;
#X connect 1 0 66 0;
#X connect 3 0 15 0;
#X connect 4 0 2 0;
#X connect 5 0 7 0;
#X connect 6 0 8 0;
#X connect 9 0 37 0;
#X connect 10 0 18 1;
#X connect 13 1 14 0;
#X connect 14 0 25 0;
#X connect 15 0 48 0;
#X connect 16 0 22 0;
#X connect 18 0 19 0;
#X connect 19 0 25 0;
#X connect 21 0 18 0;
#X connect 23 0 13 0;
#X connect 26 0 31 0;
#X connect 28 0 29 0;
#X connect 29 0 27 0;
#X connect 30 0 53 0;
#X connect 31 0 5 0;
#X connect 31 1 6 0;
#X connect 31 2 24 0;
#X connect 32 0 17 0;
#X connect 32 1 30 0;
#X connect 32 2 33 0;
#X connect 32 3 20 0;
#X connect 33 0 34 0;
#X connect 35 0 4 1;
#X connect 36 0 39 0;
#X connect 36 1 38 0;
#X connect 36 2 40 0;
#X connect 36 3 57 0;
#X connect 37 0 28 0;
#X connect 37 1 15 1;
#X connect 37 1 66 1;
#X connect 37 2 64 0;
#X connect 40 0 61 0;
#X connect 41 0 42 0;
#X connect 42 0 45 0;
#X connect 43 0 41 0;
#X connect 44 0 43 0;
#X connect 44 1 46 0;
#X connect 46 0 41 0;
#X connect 47 0 32 0;
#X connect 48 0 4 0;
#X connect 49 0 47 1;
#X connect 49 0 48 1;
#X connect 50 0 36 0;
#X connect 51 0 36 1;
#X connect 52 0 58 0;
#X connect 53 0 54 0;
#X connect 54 0 57 0;
#X connect 55 0 54 1;
#X connect 58 0 59 0;
#X connect 60 0 58 1;
#X connect 61 0 44 0;
#X connect 61 1 49 0;
#X connect 61 2 30 0;
#X connect 63 0 65 0;
#X connect 64 0 36 2;
#X connect 65 0 64 0;
#X connect 65 1 64 1;
#X connect 66 0 26 0;
#X coords 0 -1 1 1 167 21 1 134 17;
#X restore 10 50 pd time;
#X msg 195 390;
#X msg 198 330 5 2;
#X msg 230 330 7 2;
#X text 70 280 meter;
#N canvas 300 52 570 720 harm-sweep 0;
#X floatatom 20 30 5 0 100 2 hmin #0-harm-val -, f 5;
#X floatatom 60 30 5 -100 100 2 pref #0-pref-val -, f 5;
#X floatatom 20 70 5 0 100 2 from #0-harm-from -, f 5;
#X floatatom 60 70 5 -100 100 2 from #0-pref-from -, f 5;
#X floatatom 20 103 5 0 100 2 to #0-harm-to -, f 5;
#X floatatom 60 103 5 -100 100 2 to #0-pref-to -, f 5;
#X obj 170 30 vradio 15 0 0 2 \$0-harm-sweep-s \$0-harm-sweep harm
0 -8 0 10 #fcfcfc #000000 #000000 1;
#X obj 210 30 vradio 15 0 0 2 \$0-pref-sweep-s \$0-pref-sweep pref
0 -8 0 10 #fcfcfc #000000 #000000 1;
#X text 235 27 up;
#X text 235 44 down;
#X obj 100 30 vradio 15 0 0 2 \$0-part-s \$0-part part -1 -10 0 10
#dcdcdc #000000 #000000 0;
#X text 124 44 all;
#X obj 100 70 vradio 15 0 0 3 \$0-target-s \$0-target target -1 53
0 10 #dcdcdc #000000 #000000 0;
#X text 125 67 both;
#X text 125 84 harm;
#X text 125 100 pref;
#X floatatom 170 84 5 0 64 2 time #0-harm-time -, f 5;
#X floatatom 210 84 5 0 64 2 time #0-pref-time -, f 5;
#X obj 250 84 bng 15 250 50 0 empty \$0-sweep empty 17 7 0 10 #fcfcfc
#000000 #000000;
#X obj 20 140 v \$0-harm-from;
#X obj 20 160 v \$0-harm-to;
#X obj 60 180 v \$0-pref-from;
#X obj 60 200 v \$0-pref-to;
#X obj 170 140 v \$0-harm-time;
#X obj 210 160 v \$0-pref-time;
#X obj 170 200 v \$0-harm-sweep;
#X obj 280 200 v \$0-pref-sweep;
#X obj 250 380 sweep \$0 harm;
#X obj 289 400 sweep \$0 pref;
#X obj 250 360 bng 15 250 50 0 empty empty empty 17 7 0 10 #fcfcfc
#000000 #000000;
#X obj 289 360 bng 15 250 50 0 empty empty empty 17 7 0 10 #fcfcfc
#000000 #000000;
#X obj 390 200 v \$0-part;
#X obj 470 200 v \$0-target;
#X obj 250 310 v \$0-target;
#X obj 250 335 sel 1 2;
#X obj 20 340 t b f;
#X obj 20 365 v \$0-part;
#X obj 20 390 pack f f;
#X obj 20 415 route 0 1;
#X obj 20 440 s \$0-hmin;
#X obj 90 440 s all-hmin;
#X obj 170 340 t b f;
#X obj 170 365 v \$0-part;
#X obj 170 390 pack f f;
#X obj 170 415 route 0 1;
#X obj 170 440 s \$0-pref;
#X obj 240 440 s all-pref;
#X text 125 27 this;
#N canvas 625 182 465 359 harm-sweep-defaults 0;
#X obj 20 20 loadbang;
#X obj 20 45 f \$0;
#X msg 20 70 \; \$1-part 0 \; \$1-target 0 \; \$1-harm-sweep 1 \; \$1-pref-sweep
1 \; \$1-harm-from 4 \; \$1-pref-from -80 \; \$1-harm-to 12 \; \$1-pref-to
80 \; \$1-harm-time 12 \; \$1-pref-time 12 \; \$1-harm-val set 12 \;
\$1-pref-val set 80 \; \$1-sweep-val set 1;
#X connect 0 0 1 0;
#X connect 1 0 2 0;
#X restore 300 10 pd harm-sweep-defaults;
#X obj 380 410 t b f;
#X obj 380 435 v \$0-target;
#X obj 380 460 pack f f;
#X obj 380 485 route 0 1 2;
#X obj 330 515 sweep2 \$0 harm;
#X obj 450 515 sweep2 \$0 pref;
#X obj 170 117 hsl 90 15 0 1 0 0 empty \$0-sweep-val sweep -2 -8 0
10 #fcfcfc #000000 #000000 8900 1;
#X msg 20 220 harm-from \$1;
#X msg 20 240 harm-to \$1;
#X msg 60 260 pref-from \$1;
#X msg 60 280 pref-to \$1;
#X msg 170 220 harm-time \$1;
#X msg 210 240 pref-time \$1;
#X msg 170 260 harm-sweep \$1;
#X msg 280 260 pref-sweep \$1;
#X msg 390 240 part \$1;
#X msg 470 240 target \$1;
#X obj 190 300 s \$0-arp;
#X obj 170 180 r \$0-harm-sweep-s;
#X obj 280 180 r \$0-pref-sweep-s;
#X obj 390 180 r \$0-part-s;
#X obj 470 180 r \$0-target-s;
#X obj 380 380 expr rint($f1*100)/100;
#X connect 0 0 35 0;
#X connect 1 0 41 0;
#X connect 2 0 19 0;
#X connect 2 0 56 0;
#X connect 3 0 21 0;
#X connect 3 0 58 0;
#X connect 4 0 20 0;
#X connect 4 0 57 0;
#X connect 5 0 22 0;
#X connect 5 0 59 0;
#X connect 16 0 23 0;
#X connect 16 0 60 0;
#X connect 17 0 24 0;
#X connect 17 0 61 0;
#X connect 18 0 33 0;
#X connect 29 0 27 0;
#X connect 30 0 28 0;
#X connect 33 0 34 0;
#X connect 34 0 29 0;
#X connect 34 1 30 0;
#X connect 34 2 29 0;
#X connect 34 2 30 0;
#X connect 35 0 36 0;
#X connect 35 1 37 1;
#X connect 36 0 37 0;
#X connect 37 0 38 0;
#X connect 38 0 39 0;
#X connect 38 1 40 0;
#X connect 41 0 42 0;
#X connect 41 1 43 1;
#X connect 42 0 43 0;
#X connect 43 0 44 0;
#X connect 44 0 45 0;
#X connect 44 1 46 0;
#X connect 49 0 50 0;
#X connect 49 1 51 1;
#X connect 50 0 51 0;
#X connect 51 0 52 0;
#X connect 52 0 53 0;
#X connect 52 0 54 0;
#X connect 52 1 53 0;
#X connect 52 2 54 0;
#X connect 55 0 71 0;
#X connect 56 0 66 0;
#X connect 57 0 66 0;
#X connect 58 0 66 0;
#X connect 59 0 66 0;
#X connect 60 0 66 0;
#X connect 61 0 66 0;
#X connect 62 0 66 0;
#X connect 63 0 66 0;
#X connect 64 0 66 0;
#X connect 65 0 66 0;
#X connect 67 0 25 0;
#X connect 67 0 62 0;
#X connect 68 0 26 0;
#X connect 68 0 63 0;
#X connect 69 0 31 0;
#X connect 69 0 64 0;
#X connect 70 0 32 0;
#X connect 70 0 65 0;
#X connect 71 0 49 0;
#X coords 0 -1 1 1 254 136 1 15 0;
#X restore 10 410 pd harm-sweep;
#X text 220 110 sweep;
#X obj 290 500 p \$0 scratch1 7;
#X obj 290 525 p \$0 scratch2 8;
#X text 220 125 autosweep;
#X msg 62 193 90;
#X msg 144 193 140;
#N canvas 75 203 455 569 more... 0;
#X obj 10 40 p \$0 piano 9;
#X obj 10 90 p \$0 bass 10;
#X obj 10 115 p \$0 arp 11;
#X text 10 10 a few bonus presets ported from Raptor5;
#X obj 10 65 p \$0 vibes 12;
#X obj 10 140 p \$0 wave 13;
#X obj 10 165 p \$0 shred 14;
#X restore 380 330 pd more...;
#X text 220 21 off;
#N canvas 915 29 457 743 looper 0;
#X floatatom 40 82 3 0 99 0 - - -, f 3;
#X obj 70 82 bng 15 250 50 0 empty \$0-loop-file load/save 17 7 0 10
#e0e0e0 #202020 #202020;
#X obj 260 40 r \$0-loop;
#X obj 260 65 route set;
#X obj 260 90 != 0;
#X obj 260 115 tgl 15 0 empty empty empty 17 7 0 10 #fcfcfc #000000
#000000 0 1;
#X floatatom 280 277 5 0 0 0 - - -, f 5;
#X msg 280 301 color \$1 12 12;
#X obj 260 220 sel 1 0;
#X msg 300 247 0;
#X obj 280 326 s \$0-loop-file;
#X obj 330 40 r \$0-arp;
#X obj 330 65 route loop;
#X obj 170 30 r \$0-preset;
#X symbolatom 170 75 10 0 0 0 - - -, f 10;
#X obj 170 55 t b a;
#X obj 126 66 bng 15 150 10 0 empty \$0-loopstart empty 17 7 0 10 #a0a0a0
#202020 #202020;
#X floatatom 102 65 3 0 0 0 - #0-loopcounter -, f 3;
#X obj 30 106 t b f;
#N canvas 650 217 453 353 filename 0;
#X obj 40 80 symbol;
#X obj 40 105 pack s f;
#X obj 40 155 makefilename preset/%s.loop;
#X msg 40 130 symbol \$1-\$2;
#X obj 40 20 inlet;
#X obj 120 20 inlet;
#X obj 80 20 inlet;
#X obj 40 180 outlet;
#X connect 0 0 1 0;
#X connect 1 0 3 0;
#X connect 2 0 7 0;
#X connect 3 0 2 0;
#X connect 4 0 0 0;
#X connect 5 0 0 1;
#X connect 6 0 1 1;
#X restore 70 190 pd filename;
#X msg 70 215 loop \$1 2;
#X obj 70 240 s \$0-myarp;
#N canvas 650 217 453 353 filename 0;
#X obj 40 80 symbol;
#X obj 40 105 pack s f;
#X obj 40 155 makefilename preset/%s.loop;
#X msg 40 130 symbol \$1-\$2;
#X obj 40 20 inlet;
#X obj 120 20 inlet;
#X obj 80 20 inlet;
#X obj 40 180 outlet;
#X connect 0 0 1 0;
#X connect 1 0 3 0;
#X connect 2 0 7 0;
#X connect 3 0 2 0;
#X connect 4 0 0 0;
#X connect 5 0 0 1;
#X connect 6 0 1 1;
#X restore 70 106 pd filename;
#X msg 70 131 loop \$1;
#X text 130 131 load/save;
#X text 140 215 check;
#X obj 260 168 pack f f;
#X obj 330 90 r \$0-loopcheck;
#X obj 330 115 t b f;
#X obj 260 193 route 0 1;
#X obj 340 220 sel 1 0;
#X msg 260 247 10;
#X obj 170 99 t b a;
#X msg 340 247 13;
#X obj 70 156 t b a;
#X obj 340 168 change;
#X obj 260 138 t f f;
#X obj 340 193 bng 15 250 50 0 empty empty empty 17 7 0 10 #fcfcfc
#000000 #000000;
#X msg 380 247 14;
#X connect 0 0 18 0;
#X connect 0 0 22 1;
#X connect 1 0 22 0;
#X connect 2 0 3 0;
#X connect 3 0 4 0;
#X connect 3 1 4 0;
#X connect 4 0 5 0;
#X connect 5 0 36 0;
#X connect 6 0 7 0;
#X connect 7 0 10 0;
#X connect 8 0 31 0;
#X connect 8 1 9 0;
#X connect 9 0 6 0;
#X connect 11 0 12 0;
#X connect 12 0 4 0;
#X connect 13 0 15 0;
#X connect 14 0 32 0;
#X connect 15 0 14 0;
#X connect 15 1 14 0;
#X connect 18 0 19 0;
#X connect 18 1 19 1;
#X connect 19 0 20 0;
#X connect 20 0 21 0;
#X connect 22 0 23 0;
#X connect 23 0 34 0;
#X connect 26 0 29 0;
#X connect 27 0 28 0;
#X connect 28 0 26 0;
#X connect 28 1 26 1;
#X connect 29 0 8 0;
#X connect 29 1 30 0;
#X connect 30 0 33 0;
#X connect 30 1 38 0;
#X connect 31 0 6 0;
#X connect 32 0 0 0;
#X connect 32 1 19 2;
#X connect 32 1 22 2;
#X connect 33 0 6 0;
#X connect 34 0 19 0;
#X connect 34 1 21 0;
#X connect 35 0 37 0;
#X connect 36 0 26 0;
#X connect 36 1 35 0;
#X connect 37 0 19 0;
#X connect 38 0 6 0;
#X coords 0 -1 1 1 107 36 1 36 64;
#X restore 177 283 pd looper;
#X obj 252 239 ggee/image lib/autodom.gif;
#X connect 2 0 29 0;
#X connect 3 0 19 0;
#X connect 4 0 19 0;
#X connect 5 0 19 0;
#X connect 6 0 19 0;
#X connect 8 0 19 0;
#X connect 9 0 19 0;
#X connect 10 0 20 0;
#X connect 11 0 20 0;
#X connect 12 0 20 0;
#X connect 13 0 20 0;
#X connect 14 0 20 0;
#X connect 16 0 20 0;
#X connect 17 0 20 0;
#X connect 18 0 38 0;
#X connect 19 0 7 0;
#X connect 20 0 39 0;
#X connect 22 0 30 0;
#X connect 38 0 29 0;
#X connect 38 1 29 1;
#X connect 40 0 20 0;
#X connect 41 0 20 0;
#X connect 48 0 19 0;
#X connect 49 0 19 0;
