#N canvas 140 325 455 309 12;
#X obj 20 70 raptor6 piano;
#X obj 20 100 raptor6 arp;
#X obj 20 130 raptor6 bass;
#X text 20 20 A band of raptors - just add as many raptor instances
as you need and specify the desired presets as arguments;
#X msg 20 200 \; piano vis 1;
#X msg 20 250 \; pd-raptor6.pd vis 1;
#X text 170 210 show all piano raptors;
#X text 170 260 show *all* raptors (the whole band);
