#N canvas 596 41 481 688 10;
#X obj 10 135 sel 0;
#X obj 10 160 bng 15 250 50 0 empty empty empty 17 7 0 10 #fcfcfc #000000
#000000;
#X obj 10 110 ctlin 81;
#X obj 40 345 sel 0;
#X obj 40 370 bng 15 250 50 0 empty empty empty 17 7 0 10 #fcfcfc #000000
#000000;
#X obj 100 345 sel 0;
#X obj 100 370 bng 15 250 50 0 empty empty empty 17 7 0 10 #fcfcfc
#000000 #000000;
#X obj 100 320 ctlin 65;
#X obj 160 345 sel 0;
#X obj 160 370 bng 15 250 50 0 empty empty empty 17 7 0 10 #fcfcfc
#000000 #000000;
#X obj 220 345 sel 0;
#X obj 220 370 bng 15 250 50 0 empty empty empty 17 7 0 10 #fcfcfc
#000000 #000000;
#X obj 280 345 sel 0;
#X obj 280 370 bng 15 250 50 0 empty empty empty 17 7 0 10 #fcfcfc
#000000 #000000;
#X obj 340 345 sel 0;
#X obj 340 370 bng 15 250 50 0 empty empty empty 17 7 0 10 #fcfcfc
#000000 #000000;
#X msg 40 393 0;
#X msg 100 393 1;
#X msg 160 393 2;
#X msg 220 393 3;
#X msg 280 393 4;
#X msg 340 393 5;
#X obj 40 418 s mode;
#X obj 160 320 ctlin 66;
#X obj 220 320 ctlin 67;
#X obj 280 320 ctlin 68;
#X obj 340 320 ctlin 69;
#X obj 210 110 ctlin 91;
#X obj 210 160 tgl 15 0 empty empty empty 17 7 0 10 #fcfcfc #000000
#000000 0 1;
#X obj 290 160 tgl 15 0 empty empty empty 17 7 0 10 #fcfcfc #000000
#000000 0 1;
#X obj 290 110 ctlin 92;
#X obj 210 183 +;
#X obj 290 183 +;
#X floatatom 210 208 5 0 0 0 - - down, f 5;
#X floatatom 290 208 5 0 0 0 - - up, f 5;
#X obj 370 160 tgl 15 0 empty empty empty 17 7 0 10 #fcfcfc #000000
#000000 0 1;
#X obj 370 110 ctlin 93;
#X obj 124 203 ctlin 7;
#X floatatom 70 256 5 0 0 0 - - mod-switch, f 5;
#X text 20 80 start/stop \, octave \, gate - assumes D2 COLOR preset
;
#X obj 70 110 ctlin 80;
#X obj 210 135 != 0;
#X obj 290 135 != 0;
#X obj 370 135 != 0;
#X obj 70 135 == 0;
#X obj 140 160 tgl 15 0 empty empty empty 17 7 0 10 #fcfcfc #000000
#000000 0 1;
#X obj 140 110 ctlin 94;
#X obj 124 228 expr $f1/127*2;
#X obj 70 160 tgl 15 0 empty empty empty 17 7 0 10 #fcfcfc #000000
#000000 0 1;
#N canvas 825 285 455 434 gate 0;
#X obj 40 20 inlet;
#X obj 217 20 inlet;
#X obj 40 70 outlet;
#X obj 40 45 expr if($f2==0 \, 2-$f1 \, $f1);
#X connect 0 0 3 0;
#X connect 1 0 3 1;
#X connect 3 0 2 0;
#X restore 70 183 pd gate;
#X obj 70 208 * 100;
#X obj 70 232 int;
#X obj 40 485 swap;
#X obj 40 510 pack f f;
#X floatatom 74 560 5 0 0 1 gate - gate, f 5;
#X floatatom 57 605 5 0 0 1 pmod - pmod, f 5;
#X obj 160 460 inlet;
#X obj 140 135 != 0;
#X obj 57 580 expr $f1-100;
#X text 380 500 64 - HOLD;
#X obj 380 580 tgl 15 0 empty empty empty 17 7 0 10 #fcfcfc #000000
#000000 0 1;
#X obj 380 555 != 0;
#X obj 380 530 ctlin 64;
#X obj 380 603 s hold;
#X obj 40 460 r mod-switch;
#X floatatom 160 485 5 0 0 0 - - -, f 5;
#X floatatom 40 655 5 0 0 1 velmod - velmod, f 5;
#X obj 40 630 expr if($f1>=100 \, 200-$f1 \, $f1-100);
#X floatatom 138 605 5 0 0 1 gatemod - gatemod, f 5;
#X obj 138 580 expr $f1-100;
#X obj 40 535 route 0 1 2 3 4;
#X floatatom 237 600 5 0 0 1 swing - swing, f 5;
#X obj 237 550 expr $f1-100;
#X obj 237 575 * 0.25;
#X floatatom 270 520 5 0 1 0 - - -, f 5;
#X text 177 507 adjust the swing factor to your liking, f 14;
#N canvas 663 241 456 406 swing 0;
#X obj 20 20 r arp;
#X obj 20 41 route swing;
#X obj 20 104 change;
#X obj 20 125 / 100;
#X obj 20 146 outlet;
#X obj 20 62 sel 0;
#X obj 20 83 abs;
#X connect 0 0 1 0;
#X connect 1 0 5 0;
#X connect 2 0 3 0;
#X connect 3 0 4 0;
#X connect 5 1 6 0;
#X connect 6 0 2 0;
#X restore 270 490 pd swing;
#X obj 10 185 s play;
#X obj 40 320 ctlin 82;
#X text 130 280 mode - assumes D3 KBDTL preset (with modifications
\, see below), f 32;
#X text 220 460 mod switcher;
#X text 100 420 NOTE: CC64 remapped to CC82 on Pacer \, as CC64 conflicts
with HOLD \, see below, f 56;
#X text 10 10 NOTE: This control setup is for the Nektar PACER \, if
you use a different MIDI controller \, you'll have to change the controls
below accordingly. A suitably modified Pacer setup (.syx file) for
this patch is included in the same folder!, f 72;
#X text 270 630 This assumes that you have a hold pedal hooked up to
Pd in some way (I have it as FS1 on my Pacer)., f 33;
#X connect 0 1 1 0;
#X connect 1 0 77 0;
#X connect 2 0 0 0;
#X connect 3 1 4 0;
#X connect 4 0 16 0;
#X connect 5 1 6 0;
#X connect 6 0 17 0;
#X connect 7 0 5 0;
#X connect 8 1 9 0;
#X connect 9 0 18 0;
#X connect 10 1 11 0;
#X connect 11 0 19 0;
#X connect 12 1 13 0;
#X connect 13 0 20 0;
#X connect 14 1 15 0;
#X connect 15 0 21 0;
#X connect 16 0 22 0;
#X connect 17 0 22 0;
#X connect 18 0 22 0;
#X connect 19 0 22 0;
#X connect 20 0 22 0;
#X connect 21 0 22 0;
#X connect 23 0 8 0;
#X connect 24 0 10 0;
#X connect 25 0 12 0;
#X connect 26 0 14 0;
#X connect 27 0 41 0;
#X connect 28 0 31 0;
#X connect 29 0 32 0;
#X connect 30 0 42 0;
#X connect 31 0 33 0;
#X connect 32 0 34 0;
#X connect 35 0 31 1;
#X connect 35 0 32 1;
#X connect 36 0 43 0;
#X connect 37 0 47 0;
#X connect 40 0 44 0;
#X connect 41 0 28 0;
#X connect 42 0 29 0;
#X connect 43 0 35 0;
#X connect 44 0 48 0;
#X connect 45 0 49 1;
#X connect 46 0 57 0;
#X connect 47 0 50 0;
#X connect 48 0 49 0;
#X connect 49 0 50 0;
#X connect 50 0 51 0;
#X connect 51 0 38 0;
#X connect 52 0 53 0;
#X connect 52 1 53 1;
#X connect 53 0 70 0;
#X connect 56 0 65 0;
#X connect 57 0 45 0;
#X connect 58 0 55 0;
#X connect 60 0 63 0;
#X connect 61 0 60 0;
#X connect 62 0 61 0;
#X connect 64 0 52 0;
#X connect 65 0 52 1;
#X connect 67 0 66 0;
#X connect 69 0 68 0;
#X connect 70 0 67 0;
#X connect 70 1 58 0;
#X connect 70 2 54 0;
#X connect 70 3 69 0;
#X connect 70 4 72 0;
#X connect 72 0 73 0;
#X connect 73 0 71 0;
#X connect 74 0 73 1;
#X connect 76 0 74 0;
#X connect 78 0 3 0;
