#N canvas 60 124 451 301 12;
#X obj 60 150 spigot;
#X obj 99 100 expr ($f2==0) || ($f1==$f2), f 13;
#X text 130 140 test for omni or matching MIDI input channel, f 17
;
#X obj 187 30 route inchan;
#X floatatom 187 59 5 0 0 0 - - -, f 5;
#X obj 60 179 outlet;
#X obj 10 10 inlet;
#X obj 60 30 ctlin \$1;
#X connect 0 0 5 0;
#X connect 1 0 0 1;
#X connect 3 0 4 0;
#X connect 4 0 1 1;
#X connect 6 0 3 0;
#X connect 7 0 0 0;
#X connect 7 1 1 0;
