#N canvas 60 125 453 304 12;
#X obj 30 140 spigot;
#X obj 69 90 expr ($f2==0) || ($f1==$f2), f 13;
#X text 100 130 test for omni or matching MIDI input channel, f 17
;
#X floatatom 157 49 5 0 0 0 - - -, f 5;
#X obj 157 20 inlet;
#X obj 30 169 spigot;
#X obj 250 140 spigot;
#X obj 289 90 expr ($f2==0) || ($f1==$f2), f 13;
#X obj 250 169 spigot;
#X obj 250 198 outlet;
#X obj 200 20 inlet;
#X obj 200 49 tgl 15 0 empty empty empty 17 7 0 10 #fcfcfc #000000
#000000 0 1;
#X obj 330 20 inlet;
#X obj 330 49 tgl 15 0 empty empty empty 17 7 0 10 #fcfcfc #000000
#000000 0 1;
#X obj 30 20 bendin 0 1;
#X obj 250 20 touchin;
#X obj 30 198 - 8192;
#X obj 30 227 outlet;
#X connect 0 0 5 0;
#X connect 1 0 0 1;
#X connect 3 0 1 1;
#X connect 3 0 7 1;
#X connect 4 0 3 0;
#X connect 5 0 16 0;
#X connect 6 0 8 0;
#X connect 7 0 6 1;
#X connect 8 0 9 0;
#X connect 10 0 11 0;
#X connect 11 0 5 1;
#X connect 12 0 13 0;
#X connect 13 0 8 1;
#X connect 14 0 0 0;
#X connect 14 1 1 0;
#X connect 15 0 6 0;
#X connect 15 1 7 0;
#X connect 16 0 17 0;
