#N canvas 822 75 468 672 10;
#X obj 30 20 inlet;
#X obj 100 20 inlet;
#X floatatom 30 78 5 0 0 0 - - -, f 5;
#X floatatom 76 78 5 0 0 0 - - -, f 5;
#X obj 30 122 makenote 127 160;
#N canvas 770 97 460 675 gate 0;
#X obj 50 20 inlet;
#X obj 50 140 * 1;
#X floatatom 50 50 5 0 0 0 - - -, f 5;
#X obj 50 165 outlet;
#X obj 50 74 / 100;
#X obj 50 99 t f b;
#X obj 92 100 r ms;
#X obj 77 120 f;
#X obj 140 20 loadbang;
#X obj 140 45 s getms;
#X connect 0 0 2 0;
#X connect 1 0 3 0;
#X connect 2 0 4 0;
#X connect 4 0 5 0;
#X connect 5 0 1 0;
#X connect 5 1 7 0;
#X connect 6 0 7 1;
#X connect 7 0 1 1;
#X connect 8 0 9 0;
#X restore 123 78 pd gate;
#X obj 30 50 unpack f f f;
#X obj 76 100 veltracker;
#X floatatom 269 30 5 0 0 0 - vel -, f 5;
#X obj 306 30 tgl 15 1 empty veltracker vtrk 17 7 0 10 #fcfcfc #000000
#000000 0 1;
#X obj 30 101 pipe;
#X obj 200 80 r arp;
#X obj 200 105 route pgm chan;
#X obj 240 130 t f f;
#X obj 30 160 noteout;
#X obj 200 160 pgmout;
#X connect 0 0 6 0;
#X connect 1 0 10 1;
#X connect 2 0 10 0;
#X connect 3 0 7 0;
#X connect 4 0 14 0;
#X connect 4 1 14 1;
#X connect 5 0 4 2;
#X connect 6 0 2 0;
#X connect 6 1 3 0;
#X connect 6 2 5 0;
#X connect 7 0 4 1;
#X connect 8 0 7 1;
#X connect 9 0 7 2;
#X connect 10 0 4 0;
#X connect 11 0 12 0;
#X connect 12 0 15 0;
#X connect 12 1 13 0;
#X connect 13 0 14 2;
#X connect 13 1 15 1;
#X coords 0 -1 1 1 131 22 1 219 27;
