#N canvas 300 38 640 709 10;
#X obj 157 77 t b b b;
#X msg 308 102 clear;
#X msg 157 203 write \$1;
#X obj 157 228 qlist;
#X obj 157 18 inlet;
#X obj 20 45 list prepend add;
#X obj 20 70 list trim;
#X msg 371 177 read \$1;
#X obj 157 127 t s s;
#X obj 371 125 t s s;
#X obj 431 177 print load;
#X obj 226 203 print save;
#X msg 431 122 \$1;
#X msg 226 177 \$1;
#X text 350 220 other useful messages: print prints the preset to the
console \, bang recalls the preset without reloading it, f 41;
#X obj 457 268 bng 15 250 50 0 empty \$0-rcl recall 17 7 0 10 #fcfcfc
#000000 #000000;
#X msg 557 310 save;
#X msg 467 310 print;
#X msg 513 310 load;
#X obj 513 268 bng 15 250 50 0 empty empty load 17 7 0 10 #fcfcfc #000000
#000000;
#X obj 557 268 bng 15 250 50 0 empty empty save 17 7 0 10 #fcfcfc #000000
#000000;
#X obj 210 18 r \$0-op;
#X obj 457 333 s \$0-op;
#X obj 157 153 makefilename ../preset/%s;
#X obj 371 147 makefilename ../preset/%s;
#X obj 157 102 symbol \$2;
#X obj 371 102 symbol \$2;
#X obj 20 210 symbol \$2;
#X obj 530 56 sel \$3;
#X obj 20 20 r \$0-return;
#X msg 20 235 set \$1;
#X obj 20 260 s \$1-preset;
#X obj 226 102 s \$0-recall;
#X obj 20 160 t b b b b;
#X obj 37 188 s \$0-set;
#X obj 530 79 s \$0-rcl;
#X obj 530 132 route symbol;
#X obj 530 110 r \$1-preset-set;
#X obj 530 154 sel \$2;
#X obj 530 176 s \$0-rcl;
#X obj 230 270 s \$0-ctrl;
#X msg 230 250 1;
#N canvas 226 366 454 406 select 0;
#X obj 40 163 spigot;
#X obj 73 93 expr ($f2==0) || ($f1==$f2), f 13;
#X floatatom 148 67 5 0 0 0 - - -, f 5;
#X obj 40 20 pgmin;
#X obj 148 20 inlet;
#X obj 40 188 outlet;
#X connect 0 0 5 0;
#X connect 1 0 0 1;
#X connect 2 0 1 1;
#X connect 3 0 0 0;
#X connect 3 1 1 0;
#X connect 4 0 2 0;
#X restore 530 33 pd select;
#X obj 530 10 r \$1-cch;
#X obj 20 290 param \$0 \$1 part;
#X obj 200 290 param \$0 \$1 target;
#X obj 20 310 param \$0 \$1 harm-sweep;
#X obj 200 310 param \$0 \$1 pref-sweep;
#X obj 20 330 param \$0 \$1 harm-from;
#X obj 200 330 param \$0 \$1 pref-from;
#X obj 20 350 param \$0 \$1 harm-to;
#X obj 200 350 param \$0 \$1 pref-to;
#X obj 20 370 param \$0 \$1 harm-time;
#X obj 200 370 param \$0 \$1 pref-time;
#X obj 20 400 param \$0 \$1 gain 7;
#X obj 200 400 param \$0 \$1 pan 8;
#X obj 20 420 param \$0 \$1 pitchtracker 13;
#X obj 200 420 param \$0 \$1 pitchlo 14 -64;
#X obj 400 420 param \$0 \$1 pitchhi 15 -64;
#X obj 20 440 param \$0 \$1 down 16 -64;
#X obj 200 440 param \$0 \$1 up 17 -64;
#X obj 400 440 param \$0 \$1 transp 18 -64;
#X obj 20 460 param \$0 \$1 mode 19;
#X obj 200 460 param \$0 \$1 raptor 20;
#X obj 20 480 param \$0 \$1 minvel 21;
#X obj 200 480 param \$0 \$1 maxvel 22;
#X obj 400 481 param \$0 \$1 velmod 23 -100 100;
#X obj 20 500 param \$0 \$1 pmin 24 0 100;
#X obj 200 500 param \$0 \$1 pmax 25 0 100;
#X obj 400 502 param \$0 \$1 pmod 26 -100 100;
#X obj 20 520 param \$0 \$1 hmin 27 0 100;
#X obj 200 520 param \$0 \$1 hmax 28 0 100;
#X obj 400 518 param \$0 \$1 hmod 29 -100 100;
#X obj 200 540 param \$0 \$1 pref 30 -100 100;
#X obj 400 540 param \$0 \$1 prefmod 31 -100 100;
#X obj 20 560 param \$0 \$1 gate 75 0 200;
#X obj 200 560 param \$0 \$1 gatemod 76 -100 100;
#X obj 400 560 param \$0 \$1 swing 77 -100 100;
#X obj 200 580 param \$0 \$1 meter-base 79;
#X obj 20 580 param \$0 \$1 meter 78;
#X obj 200 600 param \$0 \$1 tempo;
#X obj 20 600 param \$0 \$1 loopsize;
#X obj 20 620 param \$0 \$1 smin 84 -64;
#X obj 200 620 param \$0 \$1 smax 85 -64;
#X obj 400 620 param \$0 \$1 smod 86 -100 100;
#X obj 200 640 param \$0 \$1 nmax 87;
#X obj 400 640 param \$0 \$1 nmod 88 -100 100;
#X obj 20 640 param \$0 \$1 uniq 89;
#X obj 400 660 param \$0 \$1 pgm;
#X obj 20 660 param \$0 \$1 inchan;
#X obj 200 660 param \$0 \$1 outchan;
#X obj 360 290 r \$1-change-preset;
#X obj 360 315 route symbol;
#X msg 360 340 \$1;
#X obj 360 365 route \$2;
#X obj 360 390 s \$0-rcl;
#X obj 270 18 r \$1-op;
#X obj 157 43 route save load bang symbol;
#X obj 230 230 route \$2;
#X msg 320 153 \$1;
#N canvas 770 195 453 379 init 0;
#X obj 20 20 inlet;
#X obj 20 45 swap;
#X obj 70 20 tgl 15 0 empty empty loaded 17 7 0 10 #fcfcfc #000000
#000000 0 1;
#X obj 20 70 pack f f;
#X obj 20 95 route 0 1;
#X obj 20 120 t b b;
#X obj 70 145 outlet;
#X obj 20 145 outlet;
#X text 20 190 lazy loading - this automatically triggers a load operation
when first recalling an unloaded preset;
#X connect 0 0 1 0;
#X connect 1 0 3 0;
#X connect 1 1 3 1;
#X connect 2 0 1 1;
#X connect 3 0 4 0;
#X connect 4 0 5 0;
#X connect 4 1 7 0;
#X connect 5 0 6 0;
#X connect 5 1 2 0;
#X restore 20 130 pd init;
#X obj 371 77 t b b;
#X text 20 100 recall a preset;
#X text 210 70 save a preset;
#X text 350 40 load a preset and recall it immediately, f 26;
#X connect 0 0 25 0;
#X connect 0 1 32 0;
#X connect 0 2 1 0;
#X connect 1 0 3 0;
#X connect 2 0 3 0;
#X connect 4 0 97 0;
#X connect 5 0 6 0;
#X connect 6 0 3 0;
#X connect 7 0 3 0;
#X connect 8 0 23 0;
#X connect 8 1 13 0;
#X connect 9 0 24 0;
#X connect 9 1 12 0;
#X connect 12 0 10 0;
#X connect 13 0 11 0;
#X connect 15 0 22 0;
#X connect 16 0 22 0;
#X connect 17 0 22 0;
#X connect 18 0 22 0;
#X connect 19 0 18 0;
#X connect 20 0 16 0;
#X connect 21 0 97 0;
#X connect 23 0 2 0;
#X connect 24 0 7 0;
#X connect 25 0 8 0;
#X connect 26 0 9 0;
#X connect 27 0 30 0;
#X connect 28 0 35 0;
#X connect 29 0 5 0;
#X connect 30 0 31 0;
#X connect 33 0 27 0;
#X connect 33 1 34 0;
#X connect 33 2 3 0;
#X connect 33 3 34 0;
#X connect 36 0 38 0;
#X connect 37 0 36 0;
#X connect 38 0 39 0;
#X connect 41 0 40 0;
#X connect 42 0 28 0;
#X connect 43 0 42 0;
#X connect 91 0 92 0;
#X connect 92 0 93 0;
#X connect 93 0 94 0;
#X connect 94 0 95 0;
#X connect 96 0 97 0;
#X connect 97 0 0 0;
#X connect 97 1 101 0;
#X connect 97 2 100 0;
#X connect 97 3 99 0;
#X connect 97 4 3 0;
#X connect 98 0 41 0;
#X connect 99 0 98 0;
#X connect 100 0 33 0;
#X connect 100 1 101 0;
#X connect 101 0 100 0;
#X connect 101 1 26 0;
#X coords 0 -1 1 1 266 21 1 336 265;
