#N canvas 262 105 613 549 10;
#X obj 137 77 t b b b;
#X msg 288 102 clear;
#X msg 137 203 write \$1;
#X obj 137 228 qlist;
#X obj 137 18 inlet;
#X obj 20 45 list prepend add;
#X obj 20 70 list trim;
#X msg 351 177 read \$1;
#X obj 351 77 t b b;
#X obj 403 77 loadbang;
#X obj 137 127 t s s;
#X obj 351 125 t s s;
#X obj 411 177 print load;
#X obj 206 203 print save;
#X msg 411 122 \$1;
#X msg 206 177 \$1;
#X text 189 69 save saves the preset;
#X text 291 197 other useful messages: print prints the preset to the
console \, bang recalls the preset without reloading it, f 34;
#X text 334 9 load loads a preset (this is also done automatically
at loadbang time) and recalls it immediately, f 26;
#X obj 457 368 bng 15 250 50 0 empty \$0-rcl recall 17 7 0 10 #fcfcfc
#000000 #000000;
#X msg 557 410 save;
#X msg 467 410 print;
#X msg 513 410 load;
#X obj 513 368 bng 15 250 50 0 empty empty load 17 7 0 10 #fcfcfc #000000
#000000;
#X obj 557 368 bng 15 250 50 0 empty empty save 17 7 0 10 #fcfcfc #000000
#000000;
#X obj 190 18 r \$0-op;
#X obj 457 433 s \$0-op;
#X obj 510 266 pgmin;
#X obj 137 153 makefilename ../preset/%s;
#X obj 351 147 makefilename ../preset/%s;
#X obj 137 102 symbol \$2;
#X obj 351 102 symbol \$2;
#X obj 20 180 symbol \$2;
#X obj 510 291 sel \$3;
#X obj 20 20 r \$0-return;
#X msg 20 205 set \$1;
#X obj 20 230 s \$1-preset;
#X obj 206 102 s \$0-recall;
#X obj 20 130 t b b b b;
#X obj 37 158 s \$0-set;
#X obj 510 316 s \$0-rcl;
#X obj 510 192 route symbol;
#X obj 510 170 r \$1-preset-set;
#X obj 510 214 sel \$2;
#X obj 510 236 s \$0-rcl;
#X obj 20 300 param \$0 \$1 down;
#X obj 143 300 param \$0 \$1 up;
#X obj 274 300 param \$0 \$1 mode;
#X obj 396 300 param \$0 \$1 tempo;
#X obj 20 320 param \$0 \$1 minvel;
#X obj 143 320 param \$0 \$1 maxvel;
#X obj 274 321 param \$0 \$1 velmod;
#X obj 396 321 param \$0 \$1 meter;
#X obj 20 340 param \$0 \$1 pmin;
#X obj 143 340 param \$0 \$1 pmax;
#X obj 274 342 param \$0 \$1 pmod;
#X obj 396 342 param \$0 \$1 swing;
#X obj 20 360 param \$0 \$1 gate;
#X obj 143 360 param \$0 \$1 gatemod;
#X obj 274 360 param \$0 \$1 raptor;
#X obj 20 380 param \$0 \$1 hmin;
#X obj 143 380 param \$0 \$1 hmax;
#X obj 274 378 param \$0 \$1 hmod;
#X obj 20 400 param \$0 \$1 smin;
#X obj 143 400 param \$0 \$1 smax;
#X obj 274 400 param \$0 \$1 smod;
#X obj 20 420 param \$0 \$1 uniq;
#X obj 143 420 param \$0 \$1 nmax;
#X obj 274 420 param \$0 \$1 nmod;
#X obj 143 440 param \$0 \$1 pref;
#X obj 274 440 param \$0 \$1 prefmod;
#X obj 274 460 param \$0 \$1 pgm;
#X obj 396 460 param \$0 \$1 pan 8;
#X obj 20 460 param \$0 \$1 inchan;
#X obj 143 460 param \$0 \$1 outchan;
#X obj 238 260 s \$0-ctrl;
#X msg 238 240 1;
#X obj 137 43 route save load bang \$2;
#X connect 0 0 30 0;
#X connect 0 1 37 0;
#X connect 0 2 1 0;
#X connect 1 0 3 0;
#X connect 2 0 3 0;
#X connect 4 0 77 0;
#X connect 5 0 6 0;
#X connect 6 0 3 0;
#X connect 7 0 3 0;
#X connect 8 0 38 0;
#X connect 8 1 31 0;
#X connect 9 0 31 0;
#X connect 10 0 28 0;
#X connect 10 1 15 0;
#X connect 11 0 29 0;
#X connect 11 1 14 0;
#X connect 14 0 12 0;
#X connect 15 0 13 0;
#X connect 19 0 26 0;
#X connect 20 0 26 0;
#X connect 21 0 26 0;
#X connect 22 0 26 0;
#X connect 23 0 22 0;
#X connect 24 0 20 0;
#X connect 25 0 77 0;
#X connect 27 0 33 0;
#X connect 28 0 2 0;
#X connect 29 0 7 0;
#X connect 30 0 10 0;
#X connect 31 0 11 0;
#X connect 32 0 35 0;
#X connect 33 0 40 0;
#X connect 34 0 5 0;
#X connect 35 0 36 0;
#X connect 38 0 32 0;
#X connect 38 1 39 0;
#X connect 38 2 3 0;
#X connect 38 3 39 0;
#X connect 41 0 43 0;
#X connect 42 0 41 0;
#X connect 43 0 44 0;
#X connect 76 0 75 0;
#X connect 77 0 0 0;
#X connect 77 1 8 0;
#X connect 77 2 38 0;
#X connect 77 3 76 0;
#X connect 77 4 3 0;
#X coords 0 -1 1 1 266 21 1 336 365;
