#N canvas 685 95 363 584 10;
#X floatatom 32 51 6 0 127 2 minvel minvel -, f 6;
#X msg 32 301 minvel \$1;
#X floatatom 77 51 6 0 127 2 maxvel maxvel -, f 6;
#X msg 77 301 maxvel \$1;
#X obj 290 430 s arp;
#X obj 130 53 hsl 64 15 -100 100 0 0 empty velmod velmod -3 -12 0 10
#fcfcfc #000000 #000000 0 1;
#X msg 130 301 velmod \$1;
#X msg 240 53 100;
#X obj 202 53 bng 15 250 50 0 empty empty empty 17 7 0 10 #fcfcfc #000000
#000000;
#X obj 130 87 hsl 64 15 -100 100 0 0 empty pmod pmod -3 -12 0 10 #fcfcfc
#000000 #000000 0 1;
#X msg 240 87 0;
#X floatatom 30 87 6 0 100 2 pmin pmin -, f 6;
#X floatatom 77 87 6 0 100 2 pmax pmax -, f 6;
#X msg 30 330 pmin \$1;
#X msg 77 330 pmax \$1;
#X msg 130 330 pmod \$1;
#X obj 202 87 bng 15 250 50 0 empty empty empty 17 7 0 10 #fcfcfc #000000
#000000;
#X obj 30 121 hsl 64 15 0 200 0 0 empty gate gate -1 -12 0 10 #fcfcfc
#000000 #000000 0 1;
#X msg 240 121 100;
#X msg 30 360 gate \$1;
#X obj 130 121 hsl 64 15 -100 100 0 0 empty gatemod gatemod -2 -12
0 10 #fcfcfc #000000 #000000 0 1;
#X msg 280 121 0;
#X msg 130 360 gatemod \$1;
#X obj 202 121 bng 15 250 50 0 empty empty empty 17 7 0 10 #fcfcfc
#000000 #000000;
#X obj 102 121 bng 15 250 50 0 empty empty empty 17 7 0 10 #fcfcfc
#000000 #000000;
#X obj 203 20 tgl 15 0 empty hold empty 17 7 0 10 #fcfcfc #000000 #000000
0 1;
#X msg 203 301 hold \$1;
#X floatatom 171 19 4 1 128 0 pgm pgm -, f 4;
#X msg 171 390 pgm \$1;
#X floatatom 117 19 4 -100 100 0 swing swing -, f 4;
#X msg 117 390 swing \$1;
#X obj 130 155 hsl 64 15 -100 100 0 0 empty hmod hmod -3 -12 0 10 #fcfcfc
#000000 #000000 0 1;
#X msg 240 155 0;
#X floatatom 30 155 6 0 100 2 hmin hmin -, f 6;
#X floatatom 77 155 6 0 100 2 hmax hmax -, f 6;
#X obj 202 155 bng 15 250 50 0 empty empty empty 17 7 0 10 #fcfcfc
#000000 #000000;
#X obj 130 190 hsl 64 15 -100 100 0 0 empty prefmod prefmod -3 -12
0 10 #fcfcfc #000000 #000000 0 1;
#X msg 240 190 0;
#X floatatom 30 190 6 -100 100 2 pref pref -, f 6;
#X obj 202 190 bng 15 250 50 0 empty empty empty 17 7 0 10 #fcfcfc
#000000 #000000;
#X obj 130 225 hsl 64 15 -100 100 0 0 empty smod smod -3 -12 0 10 #fcfcfc
#000000 #000000 0 1;
#X msg 240 225 0;
#X floatatom 30 225 6 -127 127 2 smin smin -, f 6;
#X floatatom 77 225 6 -127 127 2 smax smax -, f 6;
#X obj 202 225 bng 15 250 50 0 empty empty empty 17 7 0 10 #fcfcfc
#000000 #000000;
#X obj 130 260 hsl 64 15 -100 100 0 0 empty nmod nmod -3 -12 0 10 #fcfcfc
#000000 #000000 0 1;
#X msg 240 260 0;
#X floatatom 77 260 6 0 10 2 nmax nmax -, f 6;
#X obj 202 260 bng 15 250 50 0 empty empty empty 17 7 0 10 #fcfcfc
#000000 #000000;
#X obj 30 260 tgl 15 0 empty uniq uniq -1 -10 0 10 #fcfcfc #000000
#000000 0 1;
#X msg 30 430 hmin \$1;
#X msg 77 430 hmax \$1;
#X msg 130 430 hmod \$1;
#X msg 30 460 pref \$1;
#X msg 130 460 prefmod \$1;
#X msg 30 490 smin \$1;
#X msg 77 490 smax \$1;
#X msg 130 490 smod \$1;
#X msg 30 520 uniq \$1;
#X msg 77 520 nmax \$1;
#X msg 130 520 nmod \$1;
#X connect 0 0 1 0;
#X connect 1 0 4 0;
#X connect 2 0 3 0;
#X connect 3 0 4 0;
#X connect 5 0 6 0;
#X connect 6 0 4 0;
#X connect 7 0 5 0;
#X connect 8 0 7 0;
#X connect 9 0 15 0;
#X connect 10 0 9 0;
#X connect 11 0 13 0;
#X connect 12 0 14 0;
#X connect 13 0 4 0;
#X connect 14 0 4 0;
#X connect 15 0 4 0;
#X connect 16 0 10 0;
#X connect 17 0 19 0;
#X connect 18 0 17 0;
#X connect 19 0 4 0;
#X connect 20 0 22 0;
#X connect 21 0 20 0;
#X connect 22 0 4 0;
#X connect 23 0 21 0;
#X connect 24 0 18 0;
#X connect 25 0 26 0;
#X connect 26 0 4 0;
#X connect 27 0 28 0;
#X connect 28 0 4 0;
#X connect 29 0 30 0;
#X connect 30 0 4 0;
#X connect 31 0 52 0;
#X connect 32 0 31 0;
#X connect 33 0 50 0;
#X connect 34 0 51 0;
#X connect 35 0 32 0;
#X connect 36 0 54 0;
#X connect 37 0 36 0;
#X connect 38 0 53 0;
#X connect 39 0 37 0;
#X connect 40 0 57 0;
#X connect 41 0 40 0;
#X connect 42 0 55 0;
#X connect 43 0 56 0;
#X connect 44 0 41 0;
#X connect 45 0 60 0;
#X connect 46 0 45 0;
#X connect 47 0 59 0;
#X connect 48 0 46 0;
#X connect 49 0 58 0;
#X connect 50 0 4 0;
#X connect 51 0 4 0;
#X connect 52 0 4 0;
#X connect 53 0 4 0;
#X connect 54 0 4 0;
#X connect 55 0 4 0;
#X connect 56 0 4 0;
#X connect 57 0 4 0;
#X connect 58 0 4 0;
#X connect 59 0 4 0;
#X connect 60 0 4 0;
#X coords 0 -1 1 1 199 268 1 25 15;
