#N canvas 475 227 455 386 12;
#X obj 40 20 r arp;
#X obj 40 119 t b f;
#X obj 40 177 pack s f;
#X obj 40 49 route \$2;
#X obj 40 90 value \$2;
#X obj 40 148 symbol \$2;
#X obj 120 20 r \$1-recall;
#X obj 40 206 s \$1-return;
#X connect 0 0 3 0;
#X connect 1 0 5 0;
#X connect 1 1 2 1;
#X connect 2 0 7 0;
#X connect 3 0 4 0;
#X connect 4 0 1 0;
#X connect 5 0 2 0;
#X connect 6 0 4 0;
