#N canvas 475 227 455 477 12;
#X obj 120 20 r \$1-recall;
#X obj 40 206 s \$1-return;
#X obj 209 20 r \$1-set;
#X obj 170 90 spigot;
#X obj 170 50 r \$3;
#X obj 40 49 route \$3;
#X obj 170 120 s \$2-\$3;
#X obj 40 20 r \$2-arp;
#X obj 209 50 tgl 15 0 empty empty empty 17 7 0 10 #fcfcfc #000000
#000000 0 1;
#X obj 40 90 list store;
#X obj 40 148 list trim;
#X obj 40 119 list prepend \$3;
#X connect 0 0 9 0;
#X connect 2 0 8 0;
#X connect 3 0 6 0;
#X connect 4 0 3 0;
#X connect 5 0 9 1;
#X connect 7 0 5 0;
#X connect 8 0 3 1;
#X connect 9 0 11 0;
#X connect 10 0 1 0;
#X connect 11 0 10 0;
