#N canvas 271 148 487 489 12;
#X obj 120 20 r \$1-recall;
#X obj 40 206 s \$1-return;
#X obj 209 20 r \$1-set;
#X obj 170 90 spigot;
#X obj 170 50 r \$3;
#X obj 40 49 route \$3;
#X obj 170 240 s \$2-\$3;
#X obj 40 20 r \$2-arp;
#X obj 209 50 tgl 15 0 empty empty empty 17 7 0 10 #fcfcfc #000000
#000000 0 1;
#X obj 40 90 list store;
#X obj 40 148 list trim;
#X obj 40 119 list prepend \$3;
#X obj 250 120 spigot;
#X obj 250 90 ctlin \$4;
#X obj 320 50 && \$4;
#X obj 320 90 tgl 15 0 empty empty empty 17 7 0 10 #fcfcfc #000000
#000000 1 1;
#X obj 320 20 r \$1-ctrl;
#X obj 250 200 spigot;
#X obj 289 150 expr ($f2==0) || ($f1==$f2), f 13;
#X text 320 190 test for omni or matching MIDI input channel, f 17
;
#X text 250 50 MIDI bindings, f 8;
#X obj 377 40 route inchan;
#X floatatom 377 69 5 0 0 0 - - -, f 5;
#X connect 0 0 9 0;
#X connect 2 0 8 0;
#X connect 3 0 6 0;
#X connect 4 0 3 0;
#X connect 5 0 9 1;
#X connect 7 0 5 0;
#X connect 7 0 21 0;
#X connect 8 0 3 1;
#X connect 9 0 11 0;
#X connect 10 0 1 0;
#X connect 11 0 10 0;
#X connect 12 0 17 0;
#X connect 13 0 12 0;
#X connect 13 1 18 0;
#X connect 14 0 15 0;
#X connect 15 0 12 1;
#X connect 16 0 14 0;
#X connect 17 0 6 0;
#X connect 18 0 17 1;
#X connect 21 0 22 0;
#X connect 22 0 18 1;
