#N canvas 475 227 455 475 12;
#X obj 40 119 t b f;
#X obj 40 177 pack s f;
#X obj 120 20 r \$1-recall;
#X obj 40 206 s \$1-return;
#X obj 209 20 r \$1-set;
#X obj 170 90 spigot;
#X obj 40 90 value \$3;
#X obj 170 50 r \$3;
#X obj 40 49 route \$3;
#X obj 40 148 symbol \$3;
#X obj 170 120 s \$2-\$3;
#X obj 40 20 r \$2-arp;
#X obj 209 50 tgl 15 0 empty empty empty 17 7 0 10 #fcfcfc #000000
#000000 0 1;
#X connect 0 0 9 0;
#X connect 0 1 1 1;
#X connect 1 0 3 0;
#X connect 2 0 6 0;
#X connect 4 0 12 0;
#X connect 5 0 10 0;
#X connect 6 0 0 0;
#X connect 7 0 5 0;
#X connect 8 0 6 0;
#X connect 9 0 1 0;
#X connect 11 0 8 0;
#X connect 12 0 5 1;
