#N canvas 105 110 610 528 10;
#X obj 137 77 t b b b;
#X msg 288 102 clear;
#X msg 137 203 write \$1;
#X obj 137 228 qlist;
#X obj 137 18 inlet;
#X obj 137 102 symbol \$1;
#X obj 20 45 list prepend add;
#X obj 20 70 list trim;
#X obj 351 102 symbol \$1;
#X msg 351 177 read \$1;
#X obj 351 77 t b b;
#X obj 403 77 loadbang;
#X obj 137 127 t s s;
#X obj 351 125 t s s;
#X obj 411 177 print load;
#X obj 206 203 print save;
#X msg 411 122 \$1;
#X msg 206 177 \$1;
#X text 189 69 save saves the preset;
#X text 291 197 other useful messages: print prints the preset to the
console \, bang recalls the preset without reloading it, f 34;
#X text 334 9 load loads a preset (this is also done automatically
at loadbang time) and recalls it immediately, f 26;
#X obj 206 102 s \$1-recall;
#X obj 20 20 r \$1-return;
#X obj 17 266 param \$1 down;
#X obj 120 266 param \$1 up;
#X obj 223 266 param \$1 mode;
#X obj 17 290 param \$1 minvel;
#X obj 120 290 param \$1 maxvel;
#X obj 223 291 param \$1 velmod;
#X obj 17 314 param \$1 pmin;
#X obj 120 314 param \$1 pmax;
#X obj 223 316 param \$1 pmod;
#X obj 17 338 param \$1 gate;
#X obj 120 338 param \$1 gatemod;
#X obj 343 266 param \$1 tempo;
#X obj 343 291 param \$1 meter;
#X obj 51 171 t b b;
#X obj 51 197 symbol \$1;
#X obj 343 341 param \$1 pgm;
#X obj 343 316 param \$1 swing;
#X obj 457 368 bng 15 250 50 0 empty recall-\$2 recall 17 7 0 10 #fcfcfc
#000000 #000000;
#X msg 557 410 save;
#X msg 467 410 print;
#X msg 513 410 load;
#X obj 17 362 param \$1 hmin;
#X obj 120 362 param \$1 hmax;
#X obj 223 362 param \$1 hmod;
#X obj 17 386 param \$1 smin;
#X obj 120 386 param \$1 smax;
#X obj 223 386 param \$1 smod;
#X obj 17 410 param \$1 uniq;
#X obj 120 410 param \$1 nmax;
#X obj 223 410 param \$1 nmod;
#X obj 120 434 param \$1 pref;
#X obj 223 434 param \$1 prefmod;
#X obj 513 368 bng 15 250 50 0 empty empty load 17 7 0 10 #fcfcfc #000000
#000000;
#X obj 557 368 bng 15 250 50 0 empty empty save 17 7 0 10 #fcfcfc #000000
#000000;
#X obj 190 18 r \$0-op;
#X obj 457 433 s \$0-op;
#X obj 440 266 pgmin;
#X obj 440 291 sel \$2;
#X obj 440 316 s recall-\$2;
#X obj 137 153 makefilename ../preset/%s;
#X obj 351 147 makefilename ../preset/%s;
#X msg 51 222 \; preset set \$1;
#X obj 137 43 route save load bang;
#N canvas 181 313 451 326 recall 0;
#X obj 20 21 r preset-set;
#X obj 20 43 route symbol;
#X obj 20 65 sel \$1;
#X obj 20 90 s recall-\$2;
#X connect 0 0 1 0;
#X connect 1 0 2 0;
#X connect 2 0 3 0;
#X restore 380 410 pd recall;
#X obj 223 338 param \$1 raptor;
#X obj 440 341 param \$1 chan;
#X connect 0 0 5 0;
#X connect 0 1 21 0;
#X connect 0 2 1 0;
#X connect 1 0 3 0;
#X connect 2 0 3 0;
#X connect 4 0 65 0;
#X connect 5 0 12 0;
#X connect 6 0 7 0;
#X connect 7 0 3 0;
#X connect 8 0 13 0;
#X connect 9 0 3 0;
#X connect 10 0 36 0;
#X connect 10 1 8 0;
#X connect 11 0 8 0;
#X connect 12 0 62 0;
#X connect 12 1 17 0;
#X connect 13 0 63 0;
#X connect 13 1 16 0;
#X connect 16 0 14 0;
#X connect 17 0 15 0;
#X connect 22 0 6 0;
#X connect 36 0 37 0;
#X connect 36 1 3 0;
#X connect 37 0 64 0;
#X connect 40 0 58 0;
#X connect 41 0 58 0;
#X connect 42 0 58 0;
#X connect 43 0 58 0;
#X connect 55 0 43 0;
#X connect 56 0 41 0;
#X connect 57 0 65 0;
#X connect 59 0 60 0;
#X connect 60 0 61 0;
#X connect 62 0 2 0;
#X connect 63 0 9 0;
#X connect 65 0 0 0;
#X connect 65 1 10 0;
#X connect 65 2 36 0;
#X connect 65 3 3 0;
#X coords 0 -1 1 1 266 21 1 336 365;
