#N canvas 616 209 560 334 10;
#X obj 20 123 sel 0 1;
#X obj 20 148 t b b b;
#X obj 120 198 *;
#X obj 20 198 line;
#X floatatom 220 198 5 0 0 0 - - -, f 5;
#X msg 120 125 \$1 0;
#X obj 280 148 t b b b;
#X obj 380 198 *;
#X obj 280 198 line;
#X floatatom 480 198 5 0 0 0 - - -, f 5;
#X msg 450 125 \$1 0;
#X obj 220 95 == 0;
#X obj 20 20 inlet;
#X obj 220 173 r \$1-ms;
#X obj 480 173 r \$1-ms;
#X obj 20 98 v \$1-\$2-sweep;
#X obj 120 173 v \$1-\$2-time;
#X obj 220 70 v \$1-\$2-sweep;
#X obj 220 120 s \$1-\$2-sweep;
#X obj 380 173 v \$1-\$2-time;
#X obj 20 45 tgl 15 0 empty empty empty 17 7 0 10 #fcfcfc #000000 #000000
0 1;
#X obj 20 68 sel 1 0;
#X obj 20 248 s \$1-\$2-val;
#X obj 20 223 t f f f;
#X obj 190 250 t f b;
#X obj 217 275 v \$1-\$2-to;
#X obj 190 275 ==;
#X obj 190 300 sel 1;
#X obj 280 248 s \$1-\$2-val;
#X obj 450 250 t f b;
#X obj 450 275 ==;
#X obj 450 300 sel 1;
#X obj 477 275 v \$1-\$2-from;
#X obj 280 223 t f f f;
#X obj 220 40 t b b;
#X obj 320 20 v \$1-\$2-sweep;
#X obj 320 45 sel 0 1;
#X msg 320 70 stop;
#X msg 360 70 stop;
#X obj 450 50 r \$1-\$2-to-val;
#X obj 120 50 r \$1-\$2-from-val;
#X floatatom 120 70 5 0 0 0 - - -, f 5;
#X floatatom 450 70 5 0 0 0 - - -, f 5;
#X obj 20 173 v \$1-\$2-to;
#X obj 280 173 v \$1-\$2-from;
#X obj 120 100 f;
#X obj 450 100 f;
#X connect 0 0 1 0;
#X connect 0 1 6 0;
#X connect 1 0 43 0;
#X connect 1 1 16 0;
#X connect 1 2 45 0;
#X connect 2 0 3 1;
#X connect 3 0 23 0;
#X connect 5 0 3 0;
#X connect 6 0 44 0;
#X connect 6 1 19 0;
#X connect 6 2 46 0;
#X connect 7 0 8 1;
#X connect 8 0 33 0;
#X connect 10 0 8 0;
#X connect 11 0 18 0;
#X connect 12 0 20 0;
#X connect 13 0 2 1;
#X connect 13 0 4 0;
#X connect 14 0 7 1;
#X connect 14 0 9 0;
#X connect 15 0 0 0;
#X connect 16 0 2 0;
#X connect 17 0 11 0;
#X connect 19 0 7 0;
#X connect 20 0 21 0;
#X connect 21 0 15 0;
#X connect 21 1 34 0;
#X connect 23 0 22 0;
#X connect 23 1 42 0;
#X connect 23 2 24 0;
#X connect 24 0 26 0;
#X connect 24 1 25 0;
#X connect 25 0 26 1;
#X connect 26 0 27 0;
#X connect 27 0 20 0;
#X connect 29 0 30 0;
#X connect 29 1 32 0;
#X connect 30 0 31 0;
#X connect 31 0 20 0;
#X connect 32 0 30 1;
#X connect 33 0 28 0;
#X connect 33 1 41 0;
#X connect 33 2 29 0;
#X connect 34 0 17 0;
#X connect 34 1 35 0;
#X connect 35 0 36 0;
#X connect 36 0 37 0;
#X connect 36 1 38 0;
#X connect 37 0 3 0;
#X connect 38 0 8 0;
#X connect 39 0 42 0;
#X connect 40 0 41 0;
#X connect 41 0 45 1;
#X connect 42 0 46 1;
#X connect 43 0 3 0;
#X connect 44 0 8 0;
#X connect 45 0 5 0;
#X connect 46 0 10 0;
