#N canvas 245 147 563 499 10;
#X obj 27 37 inlet;
#X obj 72 37 inlet;
#X obj 131 37 inlet;
#X obj 27 92 pack f f;
#X msg 27 117 \$2 \$1;
#X obj 27 142 route 0;
#X msg 66 214 \$2 \$1;
#X obj 27 166 pipe \$1;
#X msg 27 191 \$1 0;
#X obj 27 246 outlet;
#X text 90 166 delay incoming note-offs, f 14;
#X connect 0 0 3 0;
#X connect 1 0 3 1;
#X connect 2 0 7 1;
#X connect 3 0 4 0;
#X connect 4 0 5 0;
#X connect 5 0 7 0;
#X connect 5 1 6 0;
#X connect 6 0 9 0;
#X connect 7 0 8 0;
#X connect 8 0 9 0;
