#N canvas 140 145 440 452 10;
#X obj 27 37 inlet;
#X obj 72 37 inlet;
#X obj 131 37 inlet;
#X obj 27 92 pack f f;
#X msg 27 117 \$2 \$1;
#X obj 27 142 route 0;
#X msg 66 214 \$2 \$1;
#X obj 27 166 pipe \$1;
#X msg 27 191 \$1 0;
#X obj 27 246 outlet;
#X obj 210 37 loadbang;
#X obj 210 132 v gain;
#X obj 210 195 t b f;
#X obj 210 245 expr gain*$f1+(1-gain)*$f2;
#X obj 210 350 outlet;
#X obj 210 170 moses 10;
#X obj 210 270 t f f;
#X text 270 170 calculate MIDI envelope for velocity tracking, f 24
;
#X obj 210 110 expr exp(-1/$f1);
#X floatatom 280 132 5 0 0 0 - - -, f 5;
#X text 90 166 delay incoming note-offs, f 14;
#X floatatom 210 87 5 0 0 0 - - -, f 5;
#X obj 210 62 f 3;
#X text 290 10 Attack/release time of the envelope follower. We have
musical time here \, i.e. \, measured in beats. 3 works best for me
\, YMMV., f 21;
#X text 320 132 filter gain;
#X obj 72 62 t f f;
#X obj 210 220 f 64;
#X obj 380 254 ctlin 7;
#X floatatom 380 279 5 0 0 0 - - -, f 5;
#X obj 210 320 expr $f1+(127-$f1)/127*$f2;
#X obj 380 303 t b f;
#X text 60 310 CC7 = global input "gain" \, use this to boost your
input velocities for the velocitiy tracker if needed, f 23;
#X connect 0 0 3 0;
#X connect 1 0 25 0;
#X connect 2 0 7 1;
#X connect 3 0 4 0;
#X connect 4 0 5 0;
#X connect 5 0 7 0;
#X connect 5 1 6 0;
#X connect 6 0 9 0;
#X connect 7 0 8 0;
#X connect 8 0 9 0;
#X connect 10 0 22 0;
#X connect 12 0 26 0;
#X connect 12 1 13 1;
#X connect 13 0 16 0;
#X connect 15 1 12 0;
#X connect 16 0 29 0;
#X connect 16 1 26 1;
#X connect 18 0 11 0;
#X connect 18 0 19 0;
#X connect 21 0 18 0;
#X connect 22 0 21 0;
#X connect 25 0 3 1;
#X connect 25 1 15 0;
#X connect 26 0 13 0;
#X connect 27 0 28 0;
#X connect 28 0 30 0;
#X connect 29 0 14 0;
#X connect 30 0 29 0;
#X connect 30 1 29 1;
