#N canvas 130 313 455 434 10;
#X obj 140 94 /;
#X obj 195 94 /;
#X floatatom 140 116 5 0 0 0 - - -, f 5;
#X floatatom 195 116 5 0 0 0 - - -, f 5;
#X obj 140 136 min 1;
#X obj 195 136 max 1;
#X floatatom 140 158 5 0 0 0 - - -, f 5;
#X floatatom 195 158 5 0 0 0 - - -, f 5;
#X obj 140 178 *;
#X floatatom 140 200 5 0 0 0 - - -, f 5;
#X obj 155 48 r arp;
#X obj 155 69 route minvel maxvel;
#X obj 60 260 outlet;
#X obj 60 20 inlet;
#X obj 85 225 * 1;
#X obj 140 20 inlet;
#X obj 190 20 inlet;
#X obj 60 45 swap;
#X obj 60 70 pack f f;
#X obj 60 95 route 0 1;
#X obj 195 182 t b f;
#X connect 0 0 2 0;
#X connect 1 0 3 0;
#X connect 2 0 4 0;
#X connect 3 0 5 0;
#X connect 4 0 6 0;
#X connect 5 0 7 0;
#X connect 6 0 8 0;
#X connect 7 0 20 0;
#X connect 8 0 9 0;
#X connect 9 0 14 1;
#X connect 10 0 11 0;
#X connect 11 0 0 1;
#X connect 11 1 1 1;
#X connect 13 0 17 0;
#X connect 14 0 12 0;
#X connect 15 0 0 0;
#X connect 15 0 1 0;
#X connect 16 0 17 1;
#X connect 17 0 18 0;
#X connect 17 1 18 1;
#X connect 18 0 19 0;
#X connect 19 0 12 0;
#X connect 19 1 14 0;
#X connect 20 0 8 0;
#X connect 20 1 8 1;
